<?xml version="1.0" standalone="yes"?>

<svg version="1.1" viewBox="0.0 0.0 364.0 246.0" fill="none" stroke="none" stroke-linecap="square" stroke-miterlimit="10" xmlns="http://www.w3.org/2000/svg" xmlns:xlink="http://www.w3.org/1999/xlink"><path d="M201.06459 164.974L201.06459 164.974C201.06459 163.49677 202.26213 162.29921 203.73938 162.29921L310.67328 162.29921C311.38266 162.29921 312.06302 162.58102 312.56464 163.08264C313.06625 163.58426 313.34805 164.2646 313.34805 164.974L313.34805 204.44331C313.34805 205.92056 312.1505 207.1181 310.67328 207.1181L203.73938 207.1181C202.26213 207.1181 201.06459 205.92056 201.06459 204.44331Z" fill-rule="nonzero" stroke="#073763" stroke-width="2.0" stroke-linejoin="round" stroke-linecap="butt"></path><path d="M209.88597 194.11652L209.88597 171.21027L226.87035 171.21027L226.87035 175.08527L214.51097 175.08527L214.51097 180.16339L226.01097 180.16339L226.01097 184.02277L214.51097 184.02277L214.51097 190.25714L227.30785 190.25714L227.30785 194.11652L209.88597 194.11652ZM230.87035 177.52277L234.91722 177.52277L234.91722 179.78839Q237.0891 177.14777 240.0891 177.14777Q241.68285 177.14777 242.85472 177.80402Q244.0266 178.46027 244.7766 179.78839Q245.87035 178.46027 247.13597 177.80402Q248.4016 177.14777 249.8391 177.14777Q251.66722 177.14777 252.93285 177.88995Q254.19847 178.63214 254.82347 180.06964Q255.2766 181.13214 255.2766 183.50714L255.2766 194.11652L250.88597 194.11652L250.88597 184.63214Q250.88597 182.16339 250.43285 181.44464Q249.82347 180.50714 248.55785 180.50714Q247.63597 180.50714 246.82347 181.06964Q246.01097 181.63214 245.6516 182.71808Q245.29222 183.80402 245.29222 186.14777L245.29222 194.11652L240.9016 194.11652L240.9016 185.02277Q240.9016 182.60089 240.66722 181.89777Q240.43285 181.19464 239.94066 180.85089Q239.44847 180.50714 238.60472 180.50714Q237.5891 180.50714 236.7766 181.05402Q235.9641 181.60089 235.61253 182.63214Q235.26097 183.66339 235.26097 186.05402L235.26097 194.11652L230.87035 194.11652L230.87035 177.52277ZM259.52658 177.52277L263.62033 177.52277L263.62033 179.96027Q264.4172 178.71027 265.77658 177.92902Q267.13596 177.14777 268.7922 177.14777Q271.68283 177.14777 273.69846 179.41339Q275.71408 181.67902 275.71408 185.72589Q275.71408 189.88214 273.68283 192.18683Q271.65158 194.49152 268.76096 194.49152Q267.38596 194.49152 266.26877 193.94464Q265.15158 193.39777 263.9172 192.06964L263.9172 200.42902L259.52658 200.42902L259.52658 177.52277ZM263.87033 185.53839Q263.87033 188.33527 264.9797 189.6712Q266.08908 191.00714 267.68283 191.00714Q269.21408 191.00714 270.2297 189.78058Q271.24533 188.55402 271.24533 185.75714Q271.24533 183.14777 270.19846 181.88214Q269.15158 180.61652 267.6047 180.61652Q265.99533 180.61652 264.93283 181.8587Q263.87033 183.10089 263.87033 185.53839ZM286.80783 177.52277L286.80783 181.02277L283.80783 181.02277L283.80783 187.71027Q283.80783 189.74152 283.89377 190.07745Q283.9797 190.41339 284.2844 190.63214Q284.58908 190.85089 285.02658 190.85089Q285.63596 190.85089 286.7922 190.42902L287.1672 193.83527Q285.63596 194.49152 283.69846 194.49152Q282.51096 194.49152 281.55783 194.09308Q280.6047 193.69464 280.1594 193.06183Q279.71408 192.42902 279.5422 191.35089Q279.40158 190.58527 279.40158 188.25714L279.40158 181.02277L277.38596 181.02277L277.38596 177.52277L279.40158 177.52277L279.40158 174.22589L283.80783 171.66339L283.80783 177.52277L286.80783 177.52277ZM287.77658 177.52277L292.44846 177.52277L296.4172 189.30402L300.2922 177.52277L304.83908 177.52277L298.9797 193.49152L297.93283 196.38214Q297.3547 197.83527 296.83127 198.60089Q296.30783 199.36652 295.62814 199.84308Q294.94846 200.31964 293.95627 200.58527Q292.96408 200.85089 291.71408 200.85089Q290.44846 200.85089 289.2297 200.58527L288.83908 197.14777Q289.87033 197.35089 290.69846 197.35089Q292.2297 197.35089 292.96408 196.45245Q293.69846 195.55402 294.08908 194.16339L287.77658 177.52277Z" fill-rule="nonzero" fill="#0000ff"></path><path d="M116.14457 120.3506L116.14457 120.3506C116.14457 116.94245 118.907425 114.179596 122.315575 114.179596L328.7452 114.179596C330.38187 114.179596 331.95148 114.82975 333.10876 115.98704C334.26605 117.14433 334.91623 118.71395 334.91623 120.3506L334.91623 211.41016C334.91623 214.81831 332.15338 217.58118 328.7452 217.58118L122.315575 217.58118C118.907425 217.58118 116.14457 214.81831 116.14457 211.41016Z" fill-rule="nonzero" stroke="#073763" stroke-width="2.0" stroke-linejoin="round" stroke-linecap="butt"></path><path d="M122.849525 146.68344L122.849525 123.77719L127.474525 123.77719L127.474525 146.68344L122.849525 146.68344ZM130.94327 135.37094Q130.94327 131.87094 131.99014 129.49594Q132.7714 127.74594 134.12296 126.355316Q135.47452 124.96469 137.0839 124.292816Q139.22452 123.386566 142.0214 123.386566Q147.0839 123.386566 150.12296 126.52719Q153.16202 129.66782 153.16202 135.26157Q153.16202 140.80844 150.1464 143.94125Q147.13077 147.07407 142.0839 147.07407Q136.97452 147.07407 133.9589 143.95688Q130.94327 140.83969 130.94327 135.37094ZM135.7089 135.21469Q135.7089 139.10532 137.50577 141.11313Q139.30264 143.12094 142.06827 143.12094Q144.8339 143.12094 146.60733 141.12875Q148.38077 139.13657 148.38077 135.15219Q148.38077 131.21469 146.6542 129.27719Q144.92764 127.33969 142.06827 127.33969Q139.2089 127.33969 137.4589 129.30063Q135.7089 131.26157 135.7089 135.21469ZM171.8339 146.68344L167.44327 146.68344L167.44327 138.21469Q167.44327 135.52719 167.16202 134.73813Q166.88077 133.94907 166.24796 133.51157Q165.61514 133.07407 164.72452 133.07407Q163.5839 133.07407 162.67764 133.69907Q161.7714 134.32407 161.43546 135.35532Q161.09952 136.38657 161.09952 139.16782L161.09952 146.68344L156.7089 146.68344L156.7089 130.08969L160.78702 130.08969L160.78702 132.52719Q162.9589 129.71469 166.25577 129.71469Q167.7089 129.71469 168.91202 130.23813Q170.11514 130.76157 170.73233 131.57407Q171.34952 132.38657 171.5917 133.41782Q171.8339 134.44907 171.8339 136.37094L171.8339 146.68344ZM185.8964 141.40219L190.2714 142.13657Q189.42764 144.54282 187.60733 145.80063Q185.78702 147.05844 183.05264 147.05844Q178.72452 147.05844 176.6464 144.23032Q175.00577 141.96469 175.00577 138.51157Q175.00577 134.38657 177.16202 132.05063Q179.31827 129.71469 182.61514 129.71469Q186.31827 129.71469 188.4589 132.16Q190.59952 134.60532 190.50577 139.65219L179.50577 139.65219Q179.55264 141.60532 180.56827 142.69125Q181.5839 143.77719 183.09952 143.77719Q184.13077 143.77719 184.8339 143.21469Q185.53702 142.65219 185.8964 141.40219ZM186.1464 136.96469Q186.09952 135.05844 185.16202 134.06625Q184.22452 133.07407 182.88077 133.07407Q181.44327 133.07407 180.50577 134.12094Q179.56827 135.16782 179.5839 136.96469L186.1464 136.96469ZM214.7714 146.68344L209.74014 146.68344L207.74014 141.48032L198.5839 141.48032L196.69327 146.68344L191.78702 146.68344L200.7089 123.77719L205.59952 123.77719L214.7714 146.68344ZM206.25577 137.62094L203.09952 129.12094L200.00577 137.62094L206.25577 137.62094ZM232.28702 146.68344L227.8964 146.68344L227.8964 138.21469Q227.8964 135.52719 227.61514 134.73813Q227.3339 133.94907 226.70108 133.51157Q226.06827 133.07407 225.17764 133.07407Q224.03702 133.07407 223.13077 133.69907Q222.22452 134.32407 221.88858 135.35532Q221.55264 136.38657 221.55264 139.16782L221.55264 146.68344L217.16202 146.68344L217.16202 130.08969L221.24014 130.08969L221.24014 132.52719Q223.41202 129.71469 226.7089 129.71469Q228.16202 129.71469 229.36514 130.23813Q230.56827 130.76157 231.18546 131.57407Q231.80264 132.38657 232.04483 133.41782Q232.28702 134.44907 232.28702 136.37094L232.28702 146.68344ZM251.9589 146.68344L247.88077 146.68344L247.88077 144.24594Q246.86514 145.66782 245.48233 146.36313Q244.09952 147.05844 242.69327 147.05844Q239.8339 147.05844 237.79483 144.75375Q235.75577 142.44907 235.75577 138.32407Q235.75577 134.10532 237.74014 131.91Q239.72452 129.71469 242.75577 129.71469Q245.53702 129.71469 247.56827 132.02719L247.56827 123.77719L251.9589 123.77719L251.9589 146.68344ZM240.24014 138.02719Q240.24014 140.68344 240.97452 141.87094Q242.03702 143.58969 243.94327 143.58969Q245.4589 143.58969 246.5214 142.30063Q247.5839 141.01157 247.5839 138.44907Q247.5839 135.58969 246.55264 134.33188Q245.5214 133.07407 243.91202 133.07407Q242.34952 133.07407 241.29483 134.31625Q240.24014 135.55844 240.24014 138.02719ZM256.25577 146.68344L256.25577 123.77719L263.17764 123.77719L267.3339 139.40219L271.44327 123.77719L278.38077 123.77719L278.38077 146.68344L274.0839 146.68344L274.0839 128.65219L269.53702 146.68344L265.0839 146.68344L260.55264 128.65219L260.55264 146.68344L256.25577 146.68344ZM281.92764 138.15219Q281.92764 135.96469 283.00577 133.91782Q284.0839 131.87094 286.06046 130.79282Q288.03702 129.71469 290.47452 129.71469Q294.24014 129.71469 296.6464 132.16Q299.05264 134.60532 299.05264 138.33969Q299.05264 142.10532 296.62296 144.58188Q294.19327 147.05844 290.50577 147.05844Q288.22452 147.05844 286.1542 146.02719Q284.0839 144.99594 283.00577 143.00375Q281.92764 141.01157 281.92764 138.15219ZM286.42764 138.38657Q286.42764 140.85532 287.59952 142.16782Q288.7714 143.48032 290.49014 143.48032Q292.2089 143.48032 293.37296 142.16782Q294.53702 140.85532 294.53702 138.35532Q294.53702 135.91782 293.37296 134.60532Q292.2089 133.29282 290.49014 133.29282Q288.7714 133.29282 287.59952 134.60532Q286.42764 135.91782 286.42764 138.38657ZM306.69327 146.68344L302.30264 146.68344L302.30264 130.08969L306.38077 130.08969L306.38077 132.44907Q307.42764 130.77719 308.26358 130.24594Q309.09952 129.71469 310.16202 129.71469Q311.66202 129.71469 313.05264 130.54282L311.69327 134.37094Q310.5839 133.65219 309.63077 133.65219Q308.7089 133.65219 308.06827 134.16Q307.42764 134.66782 307.06046 135.99594Q306.69327 137.32407 306.69327 141.55844L306.69327 146.68344ZM324.55264 141.40219L328.92764 142.13657Q328.0839 144.54282 326.26358 145.80063Q324.44327 147.05844 321.7089 147.05844Q317.38077 147.05844 315.30264 144.23032Q313.66202 141.96469 313.66202 138.51157Q313.66202 134.38657 315.81827 132.05063Q317.97452 129.71469 321.2714 129.71469Q324.97452 129.71469 327.11514 132.16Q329.25577 134.60532 329.16202 139.65219L318.16202 139.65219Q318.2089 141.60532 319.22452 142.69125Q320.24014 143.77719 321.75577 143.77719Q322.78702 143.77719 323.49014 143.21469Q324.19327 142.65219 324.55264 141.40219ZM324.80264 136.96469Q324.75577 135.05844 323.81827 134.06625Q322.88077 133.07407 321.53702 133.07407Q320.09952 133.07407 319.16202 134.12094Q318.22452 135.16782 318.24014 136.96469L324.80264 136.96469Z" fill-rule="nonzero" fill="#0000ff"></path><path d="M154.82353 182.04626L155.66728 178.04626Q161.46416 175.51501 164.63603 172.15564L167.3704 172.15564L162.54228 195.20251L158.02666 195.20251L161.35478 179.32751Q159.94853 180.23376 158.1126 180.98376Q156.27666 181.73376 154.82353 182.04626Z" fill-rule="nonzero" fill="#000000"></path><path d="M76.629974 78.146835L76.629974 78.146835C76.629974 72.979065 80.81928 68.789764 85.98705 68.789764L333.5721 68.789764C336.05377 68.789764 338.43378 69.7756 340.18857 71.53039C341.94336 73.28518 342.9292 75.665184 342.9292 78.146835L342.9292 216.2201C342.9292 221.38786 338.7399 225.57716 333.5721 225.57716L85.98705 225.57716C80.81928 225.57716 76.629974 221.38786 76.629974 216.2201Z" fill-rule="nonzero" stroke="#073763" stroke-width="2.0" stroke-linejoin="round" stroke-linecap="butt"></path><path d="M98.849525 98.68344L98.849525 75.77719L103.474525 75.77719L103.474525 98.68344L98.849525 98.68344ZM106.943275 87.37094Q106.943275 83.87094 107.99015 81.49594Q108.7714 79.74594 110.12296 78.355316Q111.474525 76.96469 113.0839 76.292816Q115.224525 75.386566 118.0214 75.386566Q123.0839 75.386566 126.12296 78.52719Q129.16203 81.667816 129.16203 87.261566Q129.16203 92.80844 126.1464 95.94125Q123.130775 99.074066 118.0839 99.074066Q112.974525 99.074066 109.9589 95.95688Q106.943275 92.83969 106.943275 87.37094ZM111.7089 87.21469Q111.7089 91.105316 113.505775 93.11313Q115.30265 95.12094 118.068275 95.12094Q120.8339 95.12094 122.60734 93.12875Q124.380775 91.136566 124.380775 87.15219Q124.380775 83.21469 122.65421 81.27719Q120.92765 79.33969 118.068275 79.33969Q115.2089 79.33969 113.4589 81.30063Q111.7089 83.261566 111.7089 87.21469ZM147.83391 98.68344L143.44328 98.68344L143.44328 90.21469Q143.44328 87.52719 143.16203 86.73813Q142.88078 85.949066 142.24797 85.511566Q141.61516 85.074066 140.72453 85.074066Q139.58391 85.074066 138.67766 85.699066Q137.77141 86.324066 137.43547 87.355316Q137.09953 88.386566 137.09953 91.167816L137.09953 98.68344L132.70891 98.68344L132.70891 82.08969L136.78703 82.08969L136.78703 84.52719Q138.95891 81.71469 142.25578 81.71469Q143.70891 81.71469 144.91203 82.23813Q146.11516 82.761566 146.73235 83.574066Q147.34953 84.386566 147.59172 85.417816Q147.83391 86.449066 147.83391 88.37094L147.83391 98.68344ZM161.89641 93.40219L166.27141 94.136566Q165.42766 96.542816 163.60735 97.80063Q161.78703 99.05844 159.05266 99.05844Q154.72453 99.05844 152.64641 96.230316Q151.00578 93.96469 151.00578 90.511566Q151.00578 86.386566 153.16203 84.05063Q155.31828 81.71469 158.61516 81.71469Q162.31828 81.71469 164.45891 84.16Q166.59953 86.605316 166.50578 91.65219L155.50578 91.65219Q155.55266 93.605316 156.56828 94.69125Q157.58391 95.77719 159.09953 95.77719Q160.13078 95.77719 160.83391 95.21469Q161.53703 94.65219 161.89641 93.40219ZM162.14641 88.96469Q162.09953 87.05844 161.16203 86.06625Q160.22453 85.074066 158.88078 85.074066Q157.44328 85.074066 156.50578 86.12094Q155.56828 87.167816 155.58391 88.96469L162.14641 88.96469ZM190.77141 98.68344L185.74016 98.68344L183.74016 93.480316L174.58391 93.480316L172.69328 98.68344L167.78703 98.68344L176.70891 75.77719L181.59953 75.77719L190.77141 98.68344ZM182.25578 89.62094L179.09953 81.12094L176.00578 89.62094L182.25578 89.62094ZM208.28703 98.68344L203.89641 98.68344L203.89641 90.21469Q203.89641 87.52719 203.61516 86.73813Q203.33391 85.949066 202.7011 85.511566Q202.06828 85.074066 201.17766 85.074066Q200.03703 85.074066 199.13078 85.699066Q198.22453 86.324066 197.8886 87.355316Q197.55266 88.386566 197.55266 91.167816L197.55266 98.68344L193.16203 98.68344L193.16203 82.08969L197.24016 82.08969L197.24016 84.52719Q199.41203 81.71469 202.70891 81.71469Q204.16203 81.71469 205.36516 82.23813Q206.56828 82.761566 207.18547 83.574066Q207.80266 84.386566 208.04485 85.417816Q208.28703 86.449066 208.28703 88.37094L208.28703 98.68344ZM227.95891 98.68344L223.88078 98.68344L223.88078 96.24594Q222.86516 97.667816 221.48235 98.36313Q220.09953 99.05844 218.69328 99.05844Q215.83391 99.05844 213.79485 96.75375Q211.75578 94.449066 211.75578 90.324066Q211.75578 86.105316 213.74016 83.91Q215.72453 81.71469 218.75578 81.71469Q221.53703 81.71469 223.56828 84.02719L223.56828 75.77719L227.95891 75.77719L227.95891 98.68344ZM216.24016 90.02719Q216.24016 92.68344 216.97453 93.87094Q218.03703 95.58969 219.94328 95.58969Q221.45891 95.58969 222.52141 94.30063Q223.58391 93.011566 223.58391 90.449066Q223.58391 87.58969 222.55266 86.33188Q221.52141 85.074066 219.91203 85.074066Q218.34953 85.074066 217.29485 86.31625Q216.24016 87.55844 216.24016 90.02719ZM232.25578 98.68344L232.25578 75.77719L239.17766 75.77719L243.33391 91.40219L247.44328 75.77719L254.38078 75.77719L254.38078 98.68344L250.08391 98.68344L250.08391 80.65219L245.53703 98.68344L241.08391 98.68344L236.55266 80.65219L236.55266 98.68344L232.25578 98.68344ZM257.92764 90.15219Q257.92764 87.96469 259.00577 85.917816Q260.0839 83.87094 262.06046 82.792816Q264.03702 81.71469 266.47452 81.71469Q270.24014 81.71469 272.6464 84.16Q275.05264 86.605316 275.05264 90.33969Q275.05264 94.105316 272.62296 96.58188Q270.19327 99.05844 266.50577 99.05844Q264.22452 99.05844 262.1542 98.02719Q260.0839 96.99594 259.00577 95.00375Q257.92764 93.011566 257.92764 90.15219ZM262.42764 90.386566Q262.42764 92.855316 263.59952 94.167816Q264.7714 95.480316 266.49014 95.480316Q268.2089 95.480316 269.37296 94.167816Q270.53702 92.855316 270.53702 90.355316Q270.53702 87.917816 269.37296 86.605316Q268.2089 85.292816 266.49014 85.292816Q264.7714 85.292816 263.59952 86.605316Q262.42764 87.917816 262.42764 90.386566ZM282.69327 98.68344L278.30264 98.68344L278.30264 82.08969L282.38077 82.08969L282.38077 84.449066Q283.42764 82.77719 284.26358 82.24594Q285.09952 81.71469 286.16202 81.71469Q287.66202 81.71469 289.05264 82.542816L287.69327 86.37094Q286.5839 85.65219 285.63077 85.65219Q284.7089 85.65219 284.06827 86.16Q283.42764 86.667816 283.06046 87.99594Q282.69327 89.324066 282.69327 93.55844L282.69327 98.68344ZM300.55264 93.40219L304.92764 94.136566Q304.0839 96.542816 302.26358 97.80063Q300.44327 99.05844 297.7089 99.05844Q293.38077 99.05844 291.30264 96.230316Q289.66202 93.96469 289.66202 90.511566Q289.66202 86.386566 291.81827 84.05063Q293.97452 81.71469 297.2714 81.71469Q300.97452 81.71469 303.11514 84.16Q305.25577 86.605316 305.16202 91.65219L294.16202 91.65219Q294.2089 93.605316 295.22452 94.69125Q296.24014 95.77719 297.75577 95.77719Q298.78702 95.77719 299.49014 95.21469Q300.19327 94.65219 300.55264 93.40219ZM300.80264 88.96469Q300.75577 87.05844 299.81827 86.06625Q298.88077 85.074066 297.53702 85.074066Q296.09952 85.074066 295.16202 86.12094Q294.22452 87.167816 294.24014 88.96469L300.80264 88.96469Z" fill-rule="nonzero" fill="#0000ff"></path><path d="M9.8781185 35.84949L9.8781185 35.84949C9.8781185 28.957401 15.46526 23.37026 22.357347 23.37026L338.46976 23.37026C341.77948 23.37026 344.9536 24.685034 347.2939 27.025343C349.63422 29.365652 350.949 32.53979 350.949 35.84949L350.949 219.9934C350.949 226.88548 345.36185 232.47263 338.46976 232.47263L22.357347 232.47263C15.46526 232.47263 9.8781185 226.88548 9.8781185 219.9934Z" fill-rule="nonzero" stroke="#073763" stroke-width="2.0" stroke-linejoin="round" stroke-linecap="butt"></path><path d="M95.47978 179.43689L91.08916 178.78064Q91.62041 175.59314 93.56572 173.89783Q95.51103 172.20251 98.43291 172.20251Q101.63603 172.20251 103.46416 173.93689Q105.29228 175.67126 105.29228 178.34314Q105.29228 179.70251 104.72978 181.0697Q104.16728 182.43689 102.88603 183.93689Q101.96416 184.99939 99.87041 186.9447Q97.77666 188.89001 97.09697 189.60095Q96.41728 190.31189 95.79228 191.10876L103.72978 191.10876L102.88603 195.20251L88.96416 195.20251Q89.18291 193.51501 89.956345 191.99158Q90.72978 190.46814 91.88603 189.15564Q93.04228 187.84314 96.12041 184.92126Q98.43291 182.70251 99.04228 182.03064Q100.13603 180.81189 100.54228 179.92126Q100.94853 179.03064 100.94853 178.31189Q100.94853 177.15564 100.268845 176.43689Q99.58916 175.71814 98.54228 175.71814Q97.47978 175.71814 96.68291 176.52283Q95.88603 177.32751 95.47978 179.43689Z" fill-rule="nonzero" fill="#000000"></path><path d="M82.80185 53.69394L82.80185 30.78769L87.42685 30.78769L87.42685 53.69394L82.80185 53.69394ZM90.8956 42.38144Q90.8956 38.88144 91.942474 36.50644Q92.723724 34.75644 94.07529 33.365814Q95.42685 31.97519 97.036224 31.303314Q99.17685 30.397064 101.973724 30.397064Q107.036224 30.397064 110.07529 33.53769Q113.11435 36.678314 113.11435 42.272064Q113.11435 47.81894 110.098724 50.95175Q107.0831 54.084564 102.036224 54.084564Q96.92685 54.084564 93.911224 50.967377Q90.8956 47.85019 90.8956 42.38144ZM95.661224 42.22519Q95.661224 46.115814 97.4581 48.123627Q99.254974 50.13144 102.0206 50.13144Q104.786224 50.13144 106.55966 48.13925Q108.3331 46.147064 108.3331 42.16269Q108.3331 38.22519 106.60654 36.28769Q104.879974 34.35019 102.0206 34.35019Q99.161224 34.35019 97.411224 36.311127Q95.661224 38.272064 95.661224 42.22519ZM131.78622 53.69394L127.3956 53.69394L127.3956 45.22519Q127.3956 42.53769 127.11435 41.748627Q126.8331 40.959564 126.20029 40.522064Q125.567474 40.084564 124.67685 40.084564Q123.536224 40.084564 122.629974 40.709564Q121.723724 41.334564 121.38779 42.365814Q121.05185 43.397064 121.05185 46.178314L121.05185 53.69394L116.661224 53.69394L116.661224 37.10019L120.73935 37.10019L120.73935 39.53769Q122.911224 36.72519 126.2081 36.72519Q127.661224 36.72519 128.86435 37.248627Q130.06747 37.772064 130.68466 38.584564Q131.30185 39.397064 131.54404 40.428314Q131.78622 41.459564 131.78622 43.38144L131.78622 53.69394ZM145.84872 48.41269L150.22372 49.147064Q149.37997 51.553314 147.55966 52.811127Q145.73935 54.06894 143.00497 54.06894Q138.67685 54.06894 136.59872 51.240814Q134.9581 48.97519 134.9581 45.522064Q134.9581 41.397064 137.11435 39.061127Q139.2706 36.72519 142.56747 36.72519Q146.2706 36.72519 148.41122 39.1705Q150.55185 41.615814 150.4581 46.66269L139.4581 46.66269Q139.50497 48.615814 140.5206 49.70175Q141.53622 50.78769 143.05185 50.78769Q144.0831 50.78769 144.78622 50.22519Q145.48935 49.66269 145.84872 48.41269ZM146.09872 43.97519Q146.05185 42.06894 145.11435 41.07675Q144.17685 40.084564 142.8331 40.084564Q141.3956 40.084564 140.4581 41.13144Q139.5206 42.178314 139.53622 43.97519L146.09872 43.97519ZM174.72372 53.69394L169.69247 53.69394L167.69247 48.490814L158.53622 48.490814L156.6456 53.69394L151.73935 53.69394L160.66122 30.78769L165.55185 30.78769L174.72372 53.69394ZM166.2081 44.63144L163.05185 36.13144L159.9581 44.63144L166.2081 44.63144ZM192.23935 53.69394L187.84872 53.69394L187.84872 45.22519Q187.84872 42.53769 187.56747 41.748627Q187.28622 40.959564 186.65341 40.522064Q186.0206 40.084564 185.12997 40.084564Q183.98935 40.084564 183.0831 40.709564Q182.17685 41.334564 181.84091 42.365814Q181.50497 43.397064 181.50497 46.178314L181.50497 53.69394L177.11435 53.69394L177.11435 37.10019L181.19247 37.10019L181.19247 39.53769Q183.36435 36.72519 186.66122 36.72519Q188.11435 36.72519 189.31747 37.248627Q190.5206 37.772064 191.13779 38.584564Q191.75497 39.397064 191.99716 40.428314Q192.23935 41.459564 192.23935 43.38144L192.23935 53.69394ZM211.91122 53.69394L207.8331 53.69394L207.8331 51.25644Q206.81747 52.678314 205.43466 53.373627Q204.05185 54.06894 202.6456 54.06894Q199.78622 54.06894 197.74716 51.76425Q195.7081 49.459564 195.7081 45.334564Q195.7081 41.115814 197.69247 38.9205Q199.67685 36.72519 202.7081 36.72519Q205.48935 36.72519 207.5206 39.03769L207.5206 30.78769L211.91122 30.78769L211.91122 53.69394ZM200.19247 45.03769Q200.19247 47.69394 200.92685 48.88144Q201.98935 50.60019 203.8956 50.60019Q205.41122 50.60019 206.47372 49.311127Q207.53622 48.022064 207.53622 45.459564Q207.53622 42.60019 206.50497 41.342377Q205.47372 40.084564 203.86435 40.084564Q202.30185 40.084564 201.24716 41.32675Q200.19247 42.56894 200.19247 45.03769ZM216.2081 53.69394L216.2081 30.78769L223.12997 30.78769L227.28622 46.41269L231.3956 30.78769L238.3331 30.78769L238.3331 53.69394L234.03622 53.69394L234.03622 35.66269L229.48935 53.69394L225.03622 53.69394L220.50497 35.66269L220.50497 53.69394L216.2081 53.69394ZM241.87997 45.16269Q241.87997 42.97519 242.9581 40.928314Q244.03622 38.88144 246.01279 37.803314Q247.98935 36.72519 250.42685 36.72519Q254.19247 36.72519 256.59872 39.1705Q259.00497 41.615814 259.00497 45.35019Q259.00497 49.115814 256.5753 51.592377Q254.1456 54.06894 250.4581 54.06894Q248.17685 54.06894 246.10654 53.03769Q244.03622 52.00644 242.9581 50.01425Q241.87997 48.022064 241.87997 45.16269ZM246.37997 45.397064Q246.37997 47.865814 247.55185 49.178314Q248.72372 50.490814 250.44247 50.490814Q252.16122 50.490814 253.32529 49.178314Q254.48935 47.865814 254.48935 45.365814Q254.48935 42.928314 253.32529 41.615814Q252.16122 40.303314 250.44247 40.303314Q248.72372 40.303314 247.55185 41.615814Q246.37997 42.928314 246.37997 45.397064ZM266.6456 53.69394L262.25497 53.69394L262.25497 37.10019L266.3331 37.10019L266.3331 39.459564Q267.37997 37.78769 268.2159 37.25644Q269.05185 36.72519 270.11435 36.72519Q271.61435 36.72519 273.00497 37.553314L271.6456 41.38144Q270.53622 40.66269 269.5831 40.66269Q268.66122 40.66269 268.0206 41.1705Q267.37997 41.678314 267.0128 43.00644Q266.6456 44.334564 266.6456 48.56894L266.6456 53.69394ZM284.50497 48.41269L288.87997 49.147064Q288.03622 51.553314 286.2159 52.811127Q284.3956 54.06894 281.66122 54.06894Q277.3331 54.06894 275.25497 51.240814Q273.61435 48.97519 273.61435 45.522064Q273.61435 41.397064 275.7706 39.061127Q277.92685 36.72519 281.22372 36.72519Q284.92685 36.72519 287.06747 39.1705Q289.2081 41.615814 289.11435 46.66269L278.11435 46.66269Q278.16122 48.615814 279.17685 49.70175Q280.19247 50.78769 281.7081 50.78769Q282.73935 50.78769 283.44247 50.22519Q284.1456 49.66269 284.50497 48.41269ZM284.75497 43.97519Q284.7081 42.06894 283.7706 41.07675Q282.8331 40.084564 281.48935 40.084564Q280.05185 40.084564 279.11435 41.13144Q278.17685 42.178314 278.19247 43.97519L284.75497 43.97519Z" fill-rule="nonzero" fill="#0000ff"></path><path d="M32.651657 189.21814L36.948532 188.70251Q37.214157 190.53064 37.90947 191.23376Q38.604782 191.93689 39.761032 191.93689Q41.292282 191.93689 42.300095 190.90564Q43.307907 189.87439 43.307907 188.26501Q43.307907 186.85876 42.495407 186.03845Q41.682907 185.21814 40.307907 185.21814Q39.964157 185.21814 39.589157 185.28064L40.370407 181.54626Q40.604782 181.57751 40.823532 181.57751Q42.620407 181.57751 43.557907 180.66345Q44.495407 179.74939 44.495407 178.18689Q44.495407 177.07751 43.862595 176.43689Q43.229782 175.79626 42.198532 175.79626Q41.229782 175.79626 40.464157 176.5072Q39.698532 177.21814 39.245407 178.93689L35.151657 178.12439Q35.932907 175.59314 37.323532 174.23376Q39.432907 172.20251 42.511032 172.20251Q45.667282 172.20251 47.307907 173.96033Q48.948532 175.71814 48.948532 178.17126Q48.948532 179.95251 47.901657 181.39001Q46.854782 182.82751 45.026657 183.49939Q46.479782 184.26501 47.167282 185.48376Q47.854782 186.70251 47.854782 188.03064Q47.854782 190.56189 46.057907 192.68689Q43.604782 195.59314 39.729782 195.59314Q36.823532 195.59314 34.94072 193.92908Q33.057907 192.26501 32.651657 189.21814Z" fill-rule="nonzero" fill="#000000"></path></svg>

