<?xml version="1.0" standalone="yes"?>

<svg version="1.1" viewBox="0.0 0.0 664.0 189.0" fill="none" stroke="none" stroke-linecap="square" stroke-miterlimit="10" xmlns="http://www.w3.org/2000/svg" xmlns:xlink="http://www.w3.org/1999/xlink"><path d="M52.79031 48.605556L52.79031 48.605556C52.79031 45.122658 55.613754 42.299213 59.096653 42.299213L229.69658 42.299213C231.36913 42.299213 232.97316 42.96363 234.15582 44.146297C235.3385 45.328968 236.00291 46.93301 236.00291 48.605556L236.00291 141.66216C236.00291 145.14507 233.17947 147.9685 229.69658 147.9685L59.096653 147.9685C55.613754 147.9685 52.79031 145.14507 52.79031 141.66216Z" fill-rule="nonzero" stroke="#073763" stroke-width="2.0" stroke-linejoin="round" stroke-linecap="butt"></path><path d="M70.91245 74.68344L70.91245 51.77719L80.64683 51.77719Q84.3187 51.77719 85.982765 52.39438Q87.64683 53.011566 88.64683 54.58969Q89.64683 56.167816 89.64683 58.199066Q89.64683 60.77719 88.1312 62.45688Q86.61558 64.136566 83.59995 64.574066Q85.09995 65.449066 86.076515 66.49594Q87.05308 67.542816 88.70933 70.21469L91.5062 74.68344L85.97495 74.68344L82.6312 69.699066Q80.84995 67.02719 80.1937 66.33188Q79.53745 65.636566 78.80308 65.37875Q78.0687 65.12094 76.47495 65.12094L75.53745 65.12094L75.53745 74.68344L70.91245 74.68344ZM75.53745 61.46469L78.95933 61.46469Q82.28745 61.46469 83.11558 61.18344Q83.9437 60.90219 84.41245 60.21469Q84.8812 59.52719 84.8812 58.49594Q84.8812 57.33969 84.264015 56.628754Q83.64683 55.917816 82.52183 55.730316Q81.95933 55.65219 79.14683 55.65219L75.53745 55.65219L75.53745 61.46469ZM103.58433 69.40219L107.95933 70.136566Q107.11558 72.542816 105.295265 73.80063Q103.47495 75.05844 100.74058 75.05844Q96.41245 75.05844 94.33433 72.230316Q92.6937 69.96469 92.6937 66.511566Q92.6937 62.386566 94.84995 60.05063Q97.0062 57.71469 100.30308 57.71469Q104.0062 57.71469 106.14683 60.160004Q108.28745 62.605316 108.1937 67.65219L97.1937 67.65219Q97.24058 69.605316 98.2562 70.69125Q99.27183 71.77719 100.78745 71.77719Q101.8187 71.77719 102.52183 71.21469Q103.22495 70.65219 103.58433 69.40219ZM103.83433 64.96469Q103.78745 63.05844 102.84995 62.066254Q101.91245 61.074066 100.5687 61.074066Q99.1312 61.074066 98.1937 62.12094Q97.2562 63.167816 97.27183 64.96469L103.83433 64.96469ZM126.24058 62.99594L121.91245 63.77719Q121.6937 62.480316 120.920265 61.824066Q120.14683 61.167816 118.91245 61.167816Q117.27183 61.167816 116.295265 62.30063Q115.3187 63.43344 115.3187 66.08969Q115.3187 69.042816 116.31089 70.261566Q117.30308 71.480316 118.97495 71.480316Q120.22495 71.480316 121.02183 70.76938Q121.8187 70.05844 122.14683 68.324066L126.45933 69.05844Q125.78745 72.02719 123.8812 73.542816Q121.97495 75.05844 118.77183 75.05844Q115.1312 75.05844 112.96714 72.761566Q110.80308 70.46469 110.80308 66.40219Q110.80308 62.292816 112.97495 60.003754Q115.14683 57.71469 118.84995 57.71469Q121.8812 57.71469 123.670265 59.01938Q125.45933 60.324066 126.24058 62.99594ZM137.17809 58.08969L137.17809 61.58969L134.17809 61.58969L134.17809 68.27719Q134.17809 70.30844 134.26402 70.64438Q134.34996 70.980316 134.65465 71.199066Q134.95934 71.417816 135.39684 71.417816Q136.00621 71.417816 137.16246 70.99594L137.53746 74.40219Q136.00621 75.05844 134.06871 75.05844Q132.88121 75.05844 131.92809 74.66Q130.97496 74.261566 130.52965 73.62875Q130.08434 72.99594 129.91246 71.917816Q129.77184 71.15219 129.77184 68.824066L129.77184 61.58969L127.7562 61.58969L127.7562 58.08969L129.77184 58.08969L129.77184 54.792816L134.17809 52.230316L134.17809 58.08969L137.17809 58.08969ZM143.50621 63.15219L139.52184 62.43344Q140.19371 60.02719 141.83434 58.87094Q143.47496 57.71469 146.70934 57.71469Q149.64684 57.71469 151.08434 58.410004Q152.52184 59.105316 153.10777 60.17563Q153.69371 61.24594 153.69371 64.105316L153.64684 69.230316Q153.64684 71.417816 153.85777 72.45688Q154.06871 73.49594 154.64684 74.68344L150.30309 74.68344Q150.13121 74.24594 149.88121 73.386566Q149.77184 72.99594 149.72496 72.87094Q148.59996 73.96469 147.31871 74.511566Q146.03746 75.05844 144.58434 75.05844Q142.02184 75.05844 140.54527 73.667816Q139.06871 72.27719 139.06871 70.15219Q139.06871 68.74594 139.74059 67.64438Q140.41246 66.542816 141.6234 65.95688Q142.83434 65.37094 145.11559 64.93344Q148.19371 64.355316 149.38121 63.855316L149.38121 63.417816Q149.38121 62.15219 148.75621 61.61313Q148.13121 61.074066 146.39684 61.074066Q145.22496 61.074066 144.56871 61.535004Q143.91246 61.99594 143.50621 63.15219ZM149.38121 66.71469Q148.53746 66.99594 146.70934 67.386566Q144.88121 67.77719 144.31871 68.15219Q143.45934 68.761566 143.45934 69.699066Q143.45934 70.62094 144.14684 71.292816Q144.83434 71.96469 145.89684 71.96469Q147.08434 71.96469 148.16246 71.18344Q148.95934 70.58969 149.20934 69.730316Q149.38121 69.167816 149.38121 67.58969L149.38121 66.71469ZM173.11559 74.68344L168.72496 74.68344L168.72496 66.21469Q168.72496 63.52719 168.44371 62.73813Q168.16246 61.949066 167.52965 61.511566Q166.89684 61.074066 166.00621 61.074066Q164.86559 61.074066 163.95934 61.699066Q163.05309 62.324066 162.71715 63.355316Q162.38121 64.386566 162.38121 67.167816L162.38121 74.68344L157.99059 74.68344L157.99059 58.08969L162.06871 58.08969L162.06871 60.52719Q164.24059 57.71469 167.53746 57.71469Q168.99059 57.71469 170.19371 58.23813Q171.39684 58.761566 172.01402 59.574066Q172.63121 60.386566 172.8734 61.417816Q173.11559 62.449066 173.11559 64.37094L173.11559 74.68344ZM177.16246 75.77719L182.17809 76.386566Q182.30309 77.261566 182.75621 77.58969Q183.38121 78.05844 184.72496 78.05844Q186.44371 78.05844 187.30309 77.542816Q187.88121 77.199066 188.17809 76.43344Q188.38121 75.886566 188.38121 74.417816L188.38121 71.99594Q186.41246 74.68344 183.41246 74.68344Q180.06871 74.68344 178.11559 71.855316Q176.58434 69.62094 176.58434 66.292816Q176.58434 62.12094 178.59215 59.917816Q180.59996 57.71469 183.58434 57.71469Q186.66246 57.71469 188.66246 60.417816L188.66246 58.08969L192.77184 58.08969L192.77184 72.980316Q192.77184 75.917816 192.28746 77.37094Q191.80309 78.824066 190.92809 79.65219Q190.05309 80.480316 188.59215 80.949066Q187.13121 81.417816 184.89684 81.417816Q180.67809 81.417816 178.91246 79.9725Q177.14684 78.52719 177.14684 76.30844Q177.14684 76.08969 177.16246 75.77719ZM181.08434 66.042816Q181.08434 68.68344 182.10777 69.91Q183.13121 71.136566 184.63121 71.136566Q186.24059 71.136566 187.34996 69.87875Q188.45934 68.62094 188.45934 66.15219Q188.45934 63.574066 187.39684 62.324066Q186.33434 61.074066 184.70934 61.074066Q183.13121 61.074066 182.10777 62.30063Q181.08434 63.52719 181.08434 66.042816ZM197.11559 74.68344L197.11559 51.77719L201.50621 51.77719L201.50621 74.68344L197.11559 74.68344ZM215.61559 69.40219L219.99059 70.136566Q219.14684 72.542816 217.32652 73.80063Q215.50621 75.05844 212.77184 75.05844Q208.44371 75.05844 206.36559 72.230316Q204.72496 69.96469 204.72496 66.511566Q204.72496 62.386566 206.88121 60.05063Q209.03746 57.71469 212.33434 57.71469Q216.03746 57.71469 218.17809 60.160004Q220.31871 62.605316 220.22496 67.65219L209.22496 67.65219Q209.27184 69.605316 210.28746 70.69125Q211.30309 71.77719 212.81871 71.77719Q213.84996 71.77719 214.55309 71.21469Q215.25621 70.65219 215.61559 69.40219ZM215.86559 64.96469Q215.81871 63.05844 214.88121 62.066254Q213.94371 61.074066 212.59996 61.074066Q211.16246 61.074066 210.22496 62.12094Q209.28746 63.167816 209.30309 64.96469L215.86559 64.96469Z" fill-rule="nonzero" fill="#0000ff"></path><path d="M101.254265 126.51226L92.23864 126.51226L93.01989 122.76226L105.410515 108.277885L109.285515 108.277885L106.26989 122.69976L109.05114 122.69976L108.254265 126.51226L105.473015 126.51226L104.48864 131.18414L100.26989 131.18414L101.254265 126.51226ZM102.05114 122.69976L103.535515 115.559135L97.48864 122.69976L102.05114 122.69976ZM111.473015 126.85601L115.910515 126.85601L115.004265 131.18414L110.566765 131.18414L111.473015 126.85601ZM120.08239 124.621635L124.441765 124.23101Q124.42614 124.54351 124.42614 124.69976Q124.42614 126.29351 125.13708 127.090385Q125.848015 127.88726 126.98864 127.88726Q128.5824 127.88726 129.88708 126.36382Q131.19177 124.840385 131.19177 122.152885Q131.19177 120.559135 130.4574 119.746635Q129.72302 118.934135 128.50427 118.934135Q127.629265 118.934135 126.80895 119.340385Q125.98864 119.746635 125.223015 120.57476L121.535515 120.29351L125.01989 108.590385L136.53552 108.590385L135.69177 112.684135L128.0824 112.684135L127.035515 116.215385Q127.691765 115.91851 128.34802 115.77007Q129.00427 115.621635 129.6449 115.621635Q132.2699 115.621635 133.9574 117.38726Q135.6449 119.152885 135.6449 122.121635Q135.6449 124.496635 134.46521 126.80132Q133.28552 129.10602 131.19177 130.3404Q129.09802 131.57477 126.80114 131.57477Q123.879265 131.57477 121.99645 129.68414Q120.11364 127.79351 120.08239 124.621635Z" fill-rule="nonzero" fill="#000000"></path><path d="M159.16052 118.027885L160.00427 114.027885Q165.80115 111.496635 168.97302 108.13726L171.7074 108.13726L166.87927 131.18414L162.36365 131.18414L165.69177 115.309135Q164.28552 116.215385 162.44958 116.965385Q160.61365 117.715385 159.16052 118.027885ZM175.47302 126.85601L179.91052 126.85601L179.00427 131.18414L174.56677 131.18414L175.47302 126.85601ZM190.50427 115.41851L186.11365 114.76226Q186.6449 111.57476 188.59021 109.87945Q190.53552 108.184135 193.4574 108.184135Q196.66052 108.184135 198.48865 109.91851Q200.31677 111.652885 200.31677 114.32476Q200.31677 115.684135 199.75427 117.05132Q199.19177 118.41851 197.91052 119.91851Q196.98865 120.98101 194.8949 122.92632Q192.80115 124.871635 192.12146 125.58257Q191.44177 126.29351 190.81677 127.090385L198.75427 127.090385L197.91052 131.18414L183.98865 131.18414Q184.2074 129.49664 184.98083 127.9732Q185.75427 126.44976 186.91052 125.13726Q188.06677 123.82476 191.1449 120.902885Q193.4574 118.684135 194.06677 118.01226Q195.16052 116.79351 195.56677 115.902885Q195.97302 115.01226 195.97302 114.29351Q195.97302 113.13726 195.29333 112.41851Q194.61365 111.69976 193.56677 111.69976Q192.50427 111.69976 191.7074 112.50445Q190.91052 113.309135 190.50427 115.41851Z" fill-rule="nonzero" fill="#000000"></path><path d="M324.7903 48.605556L324.7903 48.605556C324.7903 45.122658 327.61377 42.299213 331.09665 42.299213L603.42883 42.299213C605.1014 42.299213 606.70544 42.96363 607.8881 44.146297C609.0708 45.328968 609.73517 46.93301 609.73517 48.605556L609.73517 141.66216C609.73517 145.14507 606.91174 147.9685 603.42883 147.9685L331.09665 147.9685C327.61377 147.9685 324.7903 145.14507 324.7903 141.66216Z" fill-rule="nonzero" stroke="#073763" stroke-width="2.0" stroke-linejoin="round" stroke-linecap="butt"></path><path d="M404.2562 74.68344L404.2562 51.77719L411.67807 51.77719Q415.89682 51.77719 417.17807 52.12094Q419.14682 52.636566 420.47495 54.36313Q421.80307 56.08969 421.80307 58.824066Q421.80307 60.93344 421.03745 62.37094Q420.27182 63.80844 419.09213 64.62875Q417.91245 65.449066 416.6937 65.71469Q415.03745 66.042816 411.89682 66.042816L408.8812 66.042816L408.8812 74.68344L404.2562 74.68344ZM408.8812 55.65219L408.8812 62.15219L411.41245 62.15219Q414.14682 62.15219 415.0687 61.792816Q415.99057 61.43344 416.514 60.667816Q417.03745 59.90219 417.03745 58.886566Q417.03745 57.636566 416.30307 56.824066Q415.5687 56.011566 414.4437 55.80844Q413.61557 55.65219 411.11557 55.65219L408.8812 55.65219ZM424.55307 66.15219Q424.55307 63.96469 425.6312 61.917816Q426.70932 59.87094 428.68588 58.792816Q430.66245 57.71469 433.09995 57.71469Q436.86557 57.71469 439.27182 60.160004Q441.67807 62.605316 441.67807 66.33969Q441.67807 70.105316 439.24838 72.58188Q436.8187 75.05844 433.1312 75.05844Q430.84995 75.05844 428.77963 74.02719Q426.70932 72.99594 425.6312 71.00375Q424.55307 69.011566 424.55307 66.15219ZM429.05307 66.386566Q429.05307 68.855316 430.22495 70.167816Q431.39682 71.480316 433.11557 71.480316Q434.83432 71.480316 435.99838 70.167816Q437.16245 68.855316 437.16245 66.355316Q437.16245 63.917816 435.99838 62.605316Q434.83432 61.292816 433.11557 61.292816Q431.39682 61.292816 430.22495 62.605316Q429.05307 63.917816 429.05307 66.386566ZM445.11557 74.68344L445.11557 51.77719L449.5062 51.77719L449.5062 74.68344L445.11557 74.68344ZM451.92807 58.08969L456.59995 58.08969L460.5687 69.87094L464.4437 58.08969L468.99057 58.08969L463.1312 74.05844L462.08432 76.949066Q461.5062 78.40219 460.98276 79.167816Q460.45932 79.93344 459.77963 80.41Q459.09995 80.886566 458.10776 81.15219Q457.11557 81.417816 455.86557 81.417816Q454.59995 81.417816 453.3812 81.15219L452.99057 77.71469Q454.02182 77.917816 454.84995 77.917816Q456.3812 77.917816 457.11557 77.01938Q457.84995 76.12094 458.24057 74.730316L451.92807 58.08969ZM471.39682 75.77719L476.41245 76.386566Q476.53745 77.261566 476.99057 77.58969Q477.61557 78.05844 478.95932 78.05844Q480.67807 78.05844 481.53745 77.542816Q482.11557 77.199066 482.41245 76.43344Q482.61557 75.886566 482.61557 74.417816L482.61557 71.99594Q480.64682 74.68344 477.64682 74.68344Q474.30307 74.68344 472.34995 71.855316Q470.8187 69.62094 470.8187 66.292816Q470.8187 62.12094 472.8265 59.917816Q474.83432 57.71469 477.8187 57.71469Q480.89682 57.71469 482.89682 60.417816L482.89682 58.08969L487.0062 58.08969L487.0062 72.980316Q487.0062 75.917816 486.52182 77.37094Q486.03745 78.824066 485.16245 79.65219Q484.28745 80.480316 482.8265 80.949066Q481.36557 81.417816 479.1312 81.417816Q474.91245 81.417816 473.14682 79.9725Q471.3812 78.52719 471.3812 76.30844Q471.3812 76.08969 471.39682 75.77719ZM475.3187 66.042816Q475.3187 68.68344 476.34213 69.91Q477.36557 71.136566 478.86557 71.136566Q480.47495 71.136566 481.58432 69.87875Q482.6937 68.62094 482.6937 66.15219Q482.6937 63.574066 481.6312 62.324066Q480.5687 61.074066 478.9437 61.074066Q477.36557 61.074066 476.34213 62.30063Q475.3187 63.52719 475.3187 66.042816ZM490.33432 66.15219Q490.33432 63.96469 491.41245 61.917816Q492.49057 59.87094 494.46713 58.792816Q496.4437 57.71469 498.8812 57.71469Q502.64682 57.71469 505.05307 60.160004Q507.45932 62.605316 507.45932 66.33969Q507.45932 70.105316 505.02963 72.58188Q502.59995 75.05844 498.91245 75.05844Q496.6312 75.05844 494.56088 74.02719Q492.49057 72.99594 491.41245 71.00375Q490.33432 69.011566 490.33432 66.15219ZM494.83432 66.386566Q494.83432 68.855316 496.0062 70.167816Q497.17807 71.480316 498.89682 71.480316Q500.61557 71.480316 501.77963 70.167816Q502.9437 68.855316 502.9437 66.355316Q502.9437 63.917816 501.77963 62.605316Q500.61557 61.292816 498.89682 61.292816Q497.17807 61.292816 496.0062 62.605316Q494.83432 63.917816 494.83432 66.386566ZM525.99054 74.68344L521.5999 74.68344L521.5999 66.21469Q521.5999 63.52719 521.31866 62.73813Q521.0374 61.949066 520.4046 61.511566Q519.7718 61.074066 518.88116 61.074066Q517.74054 61.074066 516.8343 61.699066Q515.92804 62.324066 515.5921 63.355316Q515.25616 64.386566 515.25616 67.167816L515.25616 74.68344L510.86557 74.68344L510.86557 58.08969L514.94366 58.08969L514.94366 60.52719Q517.11554 57.71469 520.4124 57.71469Q521.86554 57.71469 523.06866 58.23813Q524.2718 58.761566 524.889 59.574066Q525.50616 60.386566 525.74835 61.417816Q525.99054 62.449066 525.99054 64.37094L525.99054 74.68344Z" fill-rule="nonzero" fill="#0000ff"></path><path d="M348.92615 134.1529L348.22302 137.49664L340.5824 137.49664L346.69177 108.277885L354.31677 108.277885L353.59802 111.76226L350.17615 111.76226L345.50427 134.1529L348.92615 134.1529ZM358.59802 137.91852L355.55115 137.91852Q354.2699 134.93414 353.6527 131.87946Q353.03552 128.82477 353.03552 126.277885Q353.03552 123.090385 354.05896 119.87945Q355.0824 116.66851 357.19177 113.340385Q358.5199 111.215385 361.4574 107.88726L364.86365 107.88726Q361.87927 111.38726 360.2621 114.465385Q358.6449 117.54351 357.84802 121.16851Q357.05115 124.79351 357.05115 128.26227Q357.05115 130.60602 357.4027 132.82477Q357.75427 135.04352 358.59802 137.91852ZM365.37927 118.027885L366.22302 114.027885Q372.0199 111.496635 375.19177 108.13726L377.92615 108.13726L373.09802 131.18414L368.5824 131.18414L371.91052 115.309135Q370.50427 116.215385 368.66833 116.965385Q366.8324 117.715385 365.37927 118.027885ZM381.66052 126.85601L386.17615 126.85601L385.42615 130.43414Q384.78552 133.5279 383.37146 134.81696Q381.9574 136.10602 379.7074 136.1529L380.1449 134.07477Q381.2699 133.82477 381.8871 133.17633Q382.50427 132.5279 382.80115 131.18414L380.73865 131.18414L381.66052 126.85601ZM392.06677 118.027885L392.91052 114.027885Q398.7074 111.496635 401.87927 108.13726L404.61365 108.13726L399.78552 131.18414L395.2699 131.18414L398.59802 115.309135Q397.19177 116.215385 395.35583 116.965385Q393.5199 117.715385 392.06677 118.027885ZM409.8324 107.88726L412.87927 107.88726Q414.16052 110.85601 414.7777 113.91851Q415.3949 116.98101 415.3949 119.51226Q415.3949 122.69976 414.37146 125.9107Q413.34802 129.12164 411.23865 132.4654Q409.8949 134.5904 406.97302 137.91852L403.56677 137.91852Q406.53552 134.41852 408.1527 131.35602Q409.7699 128.29352 410.56677 124.6607Q411.36365 121.027885 411.36365 117.54351Q411.36365 115.184135 411.0199 112.9732Q410.67615 110.76226 409.8324 107.88726ZM419.00427 126.85601L423.5199 126.85601L422.7699 130.43414Q422.12927 133.5279 420.7152 134.81696Q419.30115 136.10602 417.05115 136.1529L417.48865 134.07477Q418.61365 133.82477 419.23083 133.17633Q419.84802 132.5279 420.1449 131.18414L418.0824 131.18414L419.00427 126.85601ZM442.17615 137.91852L439.12927 137.91852Q437.84802 134.93414 437.23083 131.87946Q436.61365 128.82477 436.61365 126.277885Q436.61365 123.090385 437.6371 119.87945Q438.66052 116.66851 440.7699 113.340385Q442.09802 111.215385 445.03552 107.88726L448.44177 107.88726Q445.4574 111.38726 443.8402 114.465385Q442.22302 117.54351 441.42615 121.16851Q440.62927 124.79351 440.62927 128.26227Q440.62927 130.60602 440.98083 132.82477Q441.3324 135.04352 442.17615 137.91852ZM453.61365 115.41851L449.22302 114.76226Q449.75427 111.57476 451.6996 109.87945Q453.6449 108.184135 456.56677 108.184135Q459.7699 108.184135 461.59802 109.91851Q463.42615 111.652885 463.42615 114.32476Q463.42615 115.684135 462.86365 117.05132Q462.30115 118.41851 461.0199 119.91851Q460.09802 120.98101 458.00427 122.92632Q455.91052 124.871635 455.23083 125.58257Q454.55115 126.29351 453.92615 127.090385L461.86365 127.090385L461.0199 131.18414L447.09802 131.18414Q447.31677 129.49664 448.0902 127.9732Q448.86365 126.44976 450.0199 125.13726Q451.17615 123.82476 454.25427 120.902885Q456.56677 118.684135 457.17615 118.01226Q458.2699 116.79351 458.67615 115.902885Q459.0824 115.01226 459.0824 114.29351Q459.0824 113.13726 458.4027 112.41851Q457.72302 111.69976 456.67615 111.69976Q455.61365 111.69976 454.81677 112.50445Q454.0199 113.309135 453.61365 115.41851ZM465.23865 126.85601L469.75427 126.85601L469.00427 130.43414Q468.36365 133.5279 466.9496 134.81696Q465.53552 136.10602 463.28552 136.1529L463.72302 134.07477Q464.84802 133.82477 465.4652 133.17633Q466.0824 132.5279 466.37927 131.18414L464.31677 131.18414L465.23865 126.85601ZM480.30115 115.41851L475.91052 114.76226Q476.44177 111.57476 478.3871 109.87945Q480.3324 108.184135 483.25427 108.184135Q486.4574 108.184135 488.28552 109.91851Q490.11365 111.652885 490.11365 114.32476Q490.11365 115.684135 489.55115 117.05132Q488.98865 118.41851 487.7074 119.91851Q486.78552 120.98101 484.69177 122.92632Q482.59802 124.871635 481.91833 125.58257Q481.23865 126.29351 480.61365 127.090385L488.55115 127.090385L487.7074 131.18414L473.78552 131.18414Q474.00427 129.49664 474.7777 127.9732Q475.55115 126.44976 476.7074 125.13726Q477.86365 123.82476 480.94177 120.902885Q483.25427 118.684135 483.86365 118.01226Q484.9574 116.79351 485.36365 115.902885Q485.7699 115.01226 485.7699 114.29351Q485.7699 113.13726 485.0902 112.41851Q484.41052 111.69976 483.36365 111.69976Q482.30115 111.69976 481.50427 112.50445Q480.7074 113.309135 480.30115 115.41851ZM493.41052 107.88726L496.4574 107.88726Q497.73865 110.85601 498.35583 113.91851Q498.97302 116.98101 498.97302 119.51226Q498.97302 122.69976 497.9496 125.9107Q496.92615 129.12164 494.81677 132.4654Q493.47302 134.5904 490.55115 137.91852L487.1449 137.91852Q490.11365 134.41852 491.73083 131.35602Q493.34802 128.29352 494.1449 124.6607Q494.94177 121.027885 494.94177 117.54351Q494.94177 115.184135 494.59802 112.9732Q494.25427 110.76226 493.41052 107.88726ZM502.5824 126.85601L507.09802 126.85601L506.34802 130.43414Q505.7074 133.5279 504.29333 134.81696Q502.87927 136.10602 500.62927 136.1529L501.06677 134.07477Q502.19177 133.82477 502.80896 133.17633Q503.42615 132.5279 503.72302 131.18414L501.66052 131.18414L502.5824 126.85601ZM525.7543 137.91852L522.7074 137.91852Q521.42615 134.93414 520.80896 131.87946Q520.1918 128.82477 520.1918 126.277885Q520.1918 123.090385 521.2152 119.87945Q522.23865 116.66851 524.348 113.340385Q525.67615 111.215385 528.61365 107.88726L532.0199 107.88726Q529.0355 111.38726 527.41833 114.465385Q525.80115 117.54351 525.0043 121.16851Q524.2074 124.79351 524.2074 128.26227Q524.2074 130.60602 524.55896 132.82477Q524.9105 135.04352 525.7543 137.91852ZM530.36365 125.19976L534.6605 124.684135Q534.92615 126.51226 535.62146 127.215385Q536.3168 127.91851 537.473 127.91851Q539.0043 127.91851 540.0121 126.88726Q541.0199 125.85601 541.0199 124.246635Q541.0199 122.840385 540.2074 122.02007Q539.3949 121.19976 538.0199 121.19976Q537.67615 121.19976 537.30115 121.26226L538.0824 117.527885Q538.3168 117.559135 538.5355 117.559135Q540.3324 117.559135 541.2699 116.64507Q542.2074 115.73101 542.2074 114.16851Q542.2074 113.059135 541.5746 112.41851Q540.9418 111.777885 539.9105 111.777885Q538.9418 111.777885 538.17615 112.48882Q537.4105 113.19976 536.9574 114.91851L532.86365 114.10601Q533.6449 111.57476 535.0355 110.215385Q537.1449 108.184135 540.223 108.184135Q543.3793 108.184135 545.0199 109.94195Q546.6605 111.69976 546.6605 114.152885Q546.6605 115.934135 545.61365 117.371635Q544.5668 118.809135 542.73865 119.48101Q544.1918 120.246635 544.8793 121.465385Q545.5668 122.684135 545.5668 124.01226Q545.5668 126.54351 543.7699 128.66852Q541.3168 131.57477 537.4418 131.57477Q534.5355 131.57477 532.6527 129.9107Q530.7699 128.24664 530.36365 125.19976ZM548.8168 126.85601L553.3324 126.85601L552.5824 130.43414Q551.9418 133.5279 550.5277 134.81696Q549.11365 136.10602 546.86365 136.1529L547.30115 134.07477Q548.42615 133.82477 549.04333 133.17633Q549.6605 132.5279 549.9574 131.18414L547.8949 131.18414L548.8168 126.85601ZM557.05115 125.19976L561.348 124.684135Q561.61365 126.51226 562.30896 127.215385Q563.0043 127.91851 564.1605 127.91851Q565.6918 127.91851 566.6996 126.88726Q567.7074 125.85601 567.7074 124.246635Q567.7074 122.840385 566.8949 122.02007Q566.0824 121.19976 564.7074 121.19976Q564.36365 121.19976 563.98865 121.26226L564.7699 117.527885Q565.0043 117.559135 565.223 117.559135Q567.0199 117.559135 567.9574 116.64507Q568.8949 115.73101 568.8949 114.16851Q568.8949 113.059135 568.2621 112.41851Q567.6293 111.777885 566.598 111.777885Q565.6293 111.777885 564.86365 112.48882Q564.098 113.19976 563.6449 114.91851L559.55115 114.10601Q560.3324 111.57476 561.723 110.215385Q563.8324 108.184135 566.9105 108.184135Q570.0668 108.184135 571.7074 109.94195Q573.348 111.69976 573.348 114.152885Q573.348 115.934135 572.30115 117.371635Q571.2543 118.809135 569.42615 119.48101Q570.8793 120.246635 571.5668 121.465385Q572.2543 122.684135 572.2543 124.01226Q572.2543 126.54351 570.4574 128.66852Q568.0043 131.57477 564.1293 131.57477Q561.223 131.57477 559.3402 129.9107Q557.4574 128.24664 557.05115 125.19976ZM576.98865 107.88726L580.0355 107.88726Q581.3168 110.85601 581.93396 113.91851Q582.55115 116.98101 582.55115 119.51226Q582.55115 122.69976 581.5277 125.9107Q580.5043 129.12164 578.3949 132.4654Q577.05115 134.5904 574.1293 137.91852L570.723 137.91852Q573.6918 134.41852 575.30896 131.35602Q576.92615 128.29352 577.723 124.6607Q578.5199 121.027885 578.5199 117.54351Q578.5199 115.184135 578.17615 112.9732Q577.8324 110.76226 576.98865 107.88726ZM587.5043 111.621635L588.2074 108.277885L595.8793 108.277885L589.7699 137.49664L582.098 137.49664L582.8324 133.99664L586.2855 133.99664L590.9574 111.621635L587.5043 111.621635Z" fill-rule="nonzero" fill="#000000"></path></svg>

