<?xml version="1.0" standalone="yes"?>

<svg version="1.1" viewBox="0.0 0.0 869.0 222.0" fill="none" stroke="none" stroke-linecap="square" stroke-miterlimit="10" xmlns="http://www.w3.org/2000/svg" xmlns:xlink="http://www.w3.org/1999/xlink"><path d="M25.274492 174.2476Q25.274492 170.79448 26.446367 167.2476Q27.883867 162.91948 30.133867 160.8101Q32.383865 158.70073 35.133865 158.70073Q37.915115 158.70073 39.704178 160.71635Q41.49324 162.73198 41.49324 166.57573Q41.49324 170.09135 40.188553 174.00542Q38.883865 177.91948 36.665115 180.00542Q34.446365 182.09135 31.665117 182.09135Q28.883867 182.09135 27.07918 180.07573Q25.274492 178.0601 25.274492 174.2476ZM29.680742 175.15385Q29.680742 176.9976 30.274492 177.7476Q30.868242 178.4976 31.805742 178.4976Q33.05574 178.4976 34.02449 177.34135Q35.321365 175.79448 36.321365 171.2476Q37.11824 167.63823 37.11824 165.52885Q37.11824 163.8101 36.516678 163.05229Q35.915115 162.29448 34.977615 162.29448Q33.790115 162.29448 32.86824 163.4351Q31.508867 165.09135 30.524492 169.26323Q29.680742 172.8726 29.680742 175.15385Z" fill-rule="nonzero" fill="#000000"></path><path d="M477.99295 151.96088L477.99295 151.96088C477.99295 150.48363 479.1905 149.28609 480.66776 149.28609L574.4645 149.28609C575.1739 149.28609 575.8542 149.5679 576.35583 150.06952C576.8574 150.57114 577.1393 151.25148 577.1393 151.96088L577.1393 191.43019C577.1393 192.90744 575.9417 194.10498 574.4645 194.10498L480.66776 194.10498C479.1905 194.10498 477.99295 192.90744 477.99295 191.43019Z" fill-rule="nonzero" stroke="#073763" stroke-width="2.0" stroke-linejoin="round" stroke-linecap="butt"></path><path d="M487.56122 181.1034L487.56122 158.38464L492.18622 158.38464L492.18622 177.24402L503.68622 177.24402L503.68622 181.1034L487.56122 181.1034ZM516.5612 175.82214L520.9362 176.55652Q520.09247 178.96277 518.27216 180.22058Q516.45184 181.4784 513.71747 181.4784Q509.38934 181.4784 507.31122 178.65027Q505.6706 176.38464 505.6706 172.93152Q505.6706 168.80652 507.82684 166.47058Q509.9831 164.13464 513.27997 164.13464Q516.9831 164.13464 519.1237 166.57996Q521.26434 169.02527 521.1706 174.07214L510.1706 174.07214Q510.21747 176.02527 511.2331 177.1112Q512.2487 178.19714 513.76434 178.19714Q514.7956 178.19714 515.4987 177.63464Q516.20184 177.07214 516.5612 175.82214ZM516.8112 171.38464Q516.76434 169.4784 515.82684 168.4862Q514.88934 167.49402 513.5456 167.49402Q512.1081 167.49402 511.1706 168.5409Q510.2331 169.58777 510.24872 171.38464L516.8112 171.38464ZM528.02997 169.57214L524.0456 168.8534Q524.71747 166.44714 526.3581 165.2909Q527.9987 164.13464 531.2331 164.13464Q534.1706 164.13464 535.6081 164.82996Q537.0456 165.52527 537.63153 166.59558Q538.21747 167.6659 538.21747 170.52527L538.1706 175.65027Q538.1706 177.83777 538.38153 178.87683Q538.59247 179.9159 539.1706 181.1034L534.82684 181.1034Q534.65497 180.6659 534.40497 179.80652Q534.2956 179.4159 534.2487 179.2909Q533.1237 180.38464 531.84247 180.93152Q530.5612 181.4784 529.1081 181.4784Q526.5456 181.4784 525.06903 180.08777Q523.59247 178.69714 523.59247 176.57214Q523.59247 175.1659 524.26434 174.06433Q524.9362 172.96277 526.14716 172.37683Q527.3581 171.7909 529.63934 171.3534Q532.71747 170.77527 533.90497 170.27527L533.90497 169.83777Q533.90497 168.57214 533.27997 168.03308Q532.65497 167.49402 530.9206 167.49402Q529.7487 167.49402 529.09247 167.95496Q528.4362 168.4159 528.02997 169.57214ZM533.90497 173.13464Q533.0612 173.4159 531.2331 173.80652Q529.40497 174.19714 528.84247 174.57214Q527.9831 175.18152 527.9831 176.11902Q527.9831 177.0409 528.6706 177.71277Q529.3581 178.38464 530.4206 178.38464Q531.6081 178.38464 532.6862 177.6034Q533.4831 177.00964 533.7331 176.15027Q533.90497 175.58777 533.90497 174.00964L533.90497 173.13464ZM540.6237 164.50964L543.0612 164.50964L543.0612 163.25964Q543.0612 161.1659 543.50653 160.13464Q543.95184 159.1034 545.14716 158.45496Q546.34247 157.80652 548.1706 157.80652Q550.0456 157.80652 551.84247 158.36902L551.2487 161.43152Q550.20184 161.18152 549.2331 161.18152Q548.27997 161.18152 547.8659 161.62683Q547.45184 162.07214 547.45184 163.33777L547.45184 164.50964L550.7331 164.50964L550.7331 167.96277L547.45184 167.96277L547.45184 181.1034L543.0612 181.1034L543.0612 167.96277L540.6237 167.96277L540.6237 164.50964ZM559.6862 158.1034Q563.01434 158.1034 564.88934 160.4784Q567.1237 163.2909 567.1237 169.80652Q567.1237 176.30652 564.8737 179.15027Q563.01434 181.49402 559.6862 181.49402Q556.34247 181.49402 554.2956 178.9237Q552.2487 176.3534 552.2487 169.75964Q552.2487 163.2909 554.4987 160.44714Q556.3581 158.1034 559.6862 158.1034ZM559.6862 161.74402Q558.88934 161.74402 558.26434 162.25183Q557.63934 162.75964 557.2956 164.07214Q556.84247 165.77527 556.84247 169.80652Q556.84247 173.83777 557.2487 175.34558Q557.65497 176.8534 558.27216 177.3534Q558.88934 177.8534 559.6862 177.8534Q560.4831 177.8534 561.1081 177.34558Q561.7331 176.83777 562.07684 175.52527Q562.52997 173.83777 562.52997 169.80652Q562.52997 165.77527 562.1237 164.26746Q561.71747 162.75964 561.1003 162.25183Q560.4831 161.74402 559.6862 161.74402Z" fill-rule="nonzero" fill="#0000ff"></path><path d="M329.75153 104.24712L329.75153 104.24712C329.75153 100.83897 332.51437 98.07612 335.92252 98.07612L579.9425 98.07612C581.57916 98.07612 583.1488 98.72627 584.3061 99.88356C585.4634 101.04085 586.1135 102.610466 586.1135 104.24712L586.1135 195.30669C586.1135 198.71484 583.3507 201.47769 579.9425 201.47769L335.92252 201.47769C332.51437 201.47769 329.75153 198.71484 329.75153 195.30669Z" fill-rule="nonzero" stroke="#073763" stroke-width="2.0" stroke-linejoin="round" stroke-linecap="butt"></path><path d="M407.89737 131.05089L407.89737 108.144646L412.52237 108.144646L412.52237 131.05089L407.89737 131.05089ZM416.9755 131.05089L416.9755 108.144646L421.4755 108.144646L430.8505 123.44152L430.8505 108.144646L435.14737 108.144646L435.14737 131.05089L430.50674 131.05089L421.27237 116.113396L421.27237 131.05089L416.9755 131.05089ZM438.99112 122.519646Q438.99112 120.332146 440.06924 118.28527Q441.14737 116.238396 443.12393 115.16027Q445.1005 114.082146 447.538 114.082146Q451.30362 114.082146 453.70987 116.52746Q456.11612 118.97277 456.11612 122.707146Q456.11612 126.47277 453.68643 128.94933Q451.25674 131.42589 447.56924 131.42589Q445.288 131.42589 443.21768 130.39464Q441.14737 129.36339 440.06924 127.37121Q438.99112 125.37902 438.99112 122.519646ZM443.49112 122.75402Q443.49112 125.22277 444.663 126.53527Q445.83487 127.84777 447.55362 127.84777Q449.27237 127.84777 450.43643 126.53527Q451.6005 125.22277 451.6005 122.72277Q451.6005 120.28527 450.43643 118.97277Q449.27237 117.66027 447.55362 117.66027Q445.83487 117.66027 444.663 118.97277Q443.49112 120.28527 443.49112 122.75402ZM474.77237 131.05089L470.69424 131.05089L470.69424 128.61339Q469.67862 130.03526 468.2958 130.73058Q466.913 131.42589 465.50674 131.42589Q462.64737 131.42589 460.6083 129.1212Q458.56924 126.81652 458.56924 122.69152Q458.56924 118.47277 460.55362 116.27746Q462.538 114.082146 465.56924 114.082146Q468.3505 114.082146 470.38174 116.394646L470.38174 108.144646L474.77237 108.144646L474.77237 131.05089ZM463.05362 122.394646Q463.05362 125.050896 463.788 126.238396Q464.8505 127.957146 466.75674 127.957146Q468.27237 127.957146 469.33487 126.66808Q470.39737 125.37902 470.39737 122.81652Q470.39737 119.957146 469.36612 118.69933Q468.33487 117.44152 466.7255 117.44152Q465.163 117.44152 464.1083 118.68371Q463.05362 119.925896 463.05362 122.394646ZM488.70987 125.769646L493.08487 126.50402Q492.24112 128.91026 490.4208 130.16808Q488.6005 131.42589 485.86612 131.42589Q481.538 131.42589 479.45987 128.59776Q477.81924 126.332146 477.81924 122.87902Q477.81924 118.75402 479.9755 116.41808Q482.13174 114.082146 485.42862 114.082146Q489.13174 114.082146 491.27237 116.52746Q493.413 118.97277 493.31924 124.019646L482.31924 124.019646Q482.36612 125.97277 483.38174 127.05871Q484.39737 128.14464 485.913 128.14464Q486.94424 128.14464 487.64737 127.582146Q488.3505 127.019646 488.70987 125.769646ZM488.95987 121.332146Q488.913 119.425896 487.9755 118.43371Q487.038 117.44152 485.69424 117.44152Q484.25674 117.44152 483.31924 118.488396Q482.38174 119.53527 482.39737 121.332146L488.95987 121.332146ZM510.788 126.97277L510.788 131.05089L495.39737 131.05089Q495.64737 128.73839 496.89737 126.66808Q498.14737 124.59777 501.83487 121.175896Q504.80362 118.41027 505.4755 117.425896Q506.38174 116.06652 506.38174 114.738396Q506.38174 113.269646 505.59268 112.48058Q504.80362 111.69152 503.413 111.69152Q502.038 111.69152 501.2255 112.519646Q500.413 113.34777 500.288 115.269646L495.913 114.832146Q496.30362 111.207146 498.36612 109.62902Q500.42862 108.050896 503.52237 108.050896Q506.913 108.050896 508.8505 109.87902Q510.788 111.707146 510.788 114.425896Q510.788 115.97277 510.2333 117.37121Q509.67862 118.769646 508.4755 120.300896Q507.67862 121.31652 505.6005 123.22277Q503.52237 125.12902 502.96768 125.75402Q502.413 126.37902 502.06924 126.97277L510.788 126.97277Z" fill-rule="nonzero" fill="#0000ff"></path><path d="M339.37653 167.95439L340.22028 163.95439Q346.01715 161.42314 349.18903 158.06377L351.9234 158.06377L347.09528 181.11064L342.57965 181.11064L345.90778 165.23564Q344.50153 166.14189 342.6656 166.89189Q340.82965 167.64189 339.37653 167.95439Z" fill-rule="nonzero" fill="#000000"></path><path d="M364.96896 151.96088L364.96896 151.96088C364.96896 150.48363 366.1665 149.28609 367.64374 149.28609L461.44046 149.28609C462.14987 149.28609 462.8302 149.5679 463.33182 150.06952C463.83344 150.57114 464.11526 151.25148 464.11526 151.96088L464.11526 191.43019C464.11526 192.90744 462.9177 194.10498 461.44046 194.10498L367.64374 194.10498C366.1665 194.10498 364.96896 192.90744 364.96896 191.43019Z" fill-rule="nonzero" stroke="#073763" stroke-width="2.0" stroke-linejoin="round" stroke-linecap="butt"></path><path d="M374.5372 181.1034L374.5372 158.38464L379.1622 158.38464L379.1622 177.24402L390.6622 177.24402L390.6622 181.1034L374.5372 181.1034ZM403.5372 175.82214L407.9122 176.55652Q407.06845 178.96277 405.24814 180.22058Q403.42783 181.4784 400.69345 181.4784Q396.36533 181.4784 394.2872 178.65027Q392.64658 176.38464 392.64658 172.93152Q392.64658 168.80652 394.80283 166.47058Q396.95908 164.13464 400.25595 164.13464Q403.95908 164.13464 406.0997 166.57996Q408.24033 169.02527 408.14658 174.07214L397.14658 174.07214Q397.19345 176.02527 398.20908 177.1112Q399.2247 178.19714 400.74033 178.19714Q401.77158 178.19714 402.4747 177.63464Q403.17783 177.07214 403.5372 175.82214ZM403.7872 171.38464Q403.74033 169.4784 402.80283 168.4862Q401.86533 167.49402 400.52158 167.49402Q399.08408 167.49402 398.14658 168.5409Q397.20908 169.58777 397.2247 171.38464L403.7872 171.38464ZM415.00595 169.57214L411.02158 168.8534Q411.69345 166.44714 413.33408 165.2909Q414.9747 164.13464 418.20908 164.13464Q421.14658 164.13464 422.58408 164.82996Q424.02158 165.52527 424.6075 166.59558Q425.19345 167.6659 425.19345 170.52527L425.14658 175.65027Q425.14658 177.83777 425.3575 178.87683Q425.56845 179.9159 426.14658 181.1034L421.80283 181.1034Q421.63095 180.6659 421.38095 179.80652Q421.27158 179.4159 421.2247 179.2909Q420.0997 180.38464 418.81845 180.93152Q417.5372 181.4784 416.08408 181.4784Q413.52158 181.4784 412.045 180.08777Q410.56845 178.69714 410.56845 176.57214Q410.56845 175.1659 411.24033 174.06433Q411.9122 172.96277 413.12314 172.37683Q414.33408 171.7909 416.61533 171.3534Q419.69345 170.77527 420.88095 170.27527L420.88095 169.83777Q420.88095 168.57214 420.25595 168.03308Q419.63095 167.49402 417.89658 167.49402Q416.7247 167.49402 416.06845 167.95496Q415.4122 168.4159 415.00595 169.57214ZM420.88095 173.13464Q420.0372 173.4159 418.20908 173.80652Q416.38095 174.19714 415.81845 174.57214Q414.95908 175.18152 414.95908 176.11902Q414.95908 177.0409 415.64658 177.71277Q416.33408 178.38464 417.39658 178.38464Q418.58408 178.38464 419.6622 177.6034Q420.45908 177.00964 420.70908 176.15027Q420.88095 175.58777 420.88095 174.00964L420.88095 173.13464ZM427.5997 164.50964L430.0372 164.50964L430.0372 163.25964Q430.0372 161.1659 430.4825 160.13464Q430.92783 159.1034 432.12314 158.45496Q433.31845 157.80652 435.14658 157.80652Q437.02158 157.80652 438.81845 158.36902L438.2247 161.43152Q437.17783 161.18152 436.20908 161.18152Q435.25595 161.18152 434.8419 161.62683Q434.42783 162.07214 434.42783 163.33777L434.42783 164.50964L437.70908 164.50964L437.70908 167.96277L434.42783 167.96277L434.42783 181.1034L430.0372 181.1034L430.0372 167.96277L427.5997 167.96277L427.5997 164.50964ZM446.6622 158.1034Q449.99033 158.1034 451.86533 160.4784Q454.0997 163.2909 454.0997 169.80652Q454.0997 176.30652 451.8497 179.15027Q449.99033 181.49402 446.6622 181.49402Q443.31845 181.49402 441.27158 178.9237Q439.2247 176.3534 439.2247 169.75964Q439.2247 163.2909 441.4747 160.44714Q443.33408 158.1034 446.6622 158.1034ZM446.6622 161.74402Q445.86533 161.74402 445.24033 162.25183Q444.61533 162.75964 444.27158 164.07214Q443.81845 165.77527 443.81845 169.80652Q443.81845 173.83777 444.2247 175.34558Q444.63095 176.8534 445.24814 177.3534Q445.86533 177.8534 446.6622 177.8534Q447.45908 177.8534 448.08408 177.34558Q448.70908 176.83777 449.05283 175.52527Q449.50595 173.83777 449.50595 169.80652Q449.50595 165.77527 449.0997 164.26746Q448.69345 162.75964 448.07626 162.25183Q447.45908 161.74402 446.6622 161.74402Z" fill-rule="nonzero" fill="#0000ff"></path><path d="M741.993 151.96088L741.993 151.96088C741.993 150.48363 743.1905 149.28609 744.6677 149.28609L838.4645 149.28609C839.1739 149.28609 839.8542 149.5679 840.35583 150.06952C840.8574 150.57114 841.1393 151.25148 841.1393 151.96088L841.1393 191.43019C841.1393 192.90744 839.9417 194.10498 838.4645 194.10498L744.6677 194.10498C743.1905 194.10498 741.993 192.90744 741.993 191.43019Z" fill-rule="nonzero" stroke="#073763" stroke-width="2.0" stroke-linejoin="round" stroke-linecap="butt"></path><path d="M751.5612 181.1034L751.5612 158.38464L756.1862 158.38464L756.1862 177.24402L767.6862 177.24402L767.6862 181.1034L751.5612 181.1034ZM780.5612 175.82214L784.9362 176.55652Q784.09247 178.96277 782.27216 180.22058Q780.45184 181.4784 777.71747 181.4784Q773.38934 181.4784 771.3112 178.65027Q769.6706 176.38464 769.6706 172.93152Q769.6706 168.80652 771.82684 166.47058Q773.9831 164.13464 777.27997 164.13464Q780.9831 164.13464 783.1237 166.57996Q785.26434 169.02527 785.1706 174.07214L774.1706 174.07214Q774.21747 176.02527 775.2331 177.1112Q776.2487 178.19714 777.76434 178.19714Q778.7956 178.19714 779.4987 177.63464Q780.20184 177.07214 780.5612 175.82214ZM780.8112 171.38464Q780.76434 169.4784 779.82684 168.4862Q778.88934 167.49402 777.5456 167.49402Q776.1081 167.49402 775.1706 168.5409Q774.2331 169.58777 774.2487 171.38464L780.8112 171.38464ZM792.02997 169.57214L788.0456 168.8534Q788.71747 166.44714 790.3581 165.2909Q791.9987 164.13464 795.2331 164.13464Q798.1706 164.13464 799.6081 164.82996Q801.0456 165.52527 801.63153 166.59558Q802.21747 167.6659 802.21747 170.52527L802.1706 175.65027Q802.1706 177.83777 802.38153 178.87683Q802.59247 179.9159 803.1706 181.1034L798.82684 181.1034Q798.65497 180.6659 798.40497 179.80652Q798.2956 179.4159 798.2487 179.2909Q797.1237 180.38464 795.84247 180.93152Q794.5612 181.4784 793.1081 181.4784Q790.5456 181.4784 789.06903 180.08777Q787.59247 178.69714 787.59247 176.57214Q787.59247 175.1659 788.26434 174.06433Q788.9362 172.96277 790.14716 172.37683Q791.3581 171.7909 793.63934 171.3534Q796.71747 170.77527 797.90497 170.27527L797.90497 169.83777Q797.90497 168.57214 797.27997 168.03308Q796.65497 167.49402 794.9206 167.49402Q793.7487 167.49402 793.09247 167.95496Q792.4362 168.4159 792.02997 169.57214ZM797.90497 173.13464Q797.0612 173.4159 795.2331 173.80652Q793.40497 174.19714 792.84247 174.57214Q791.9831 175.18152 791.9831 176.11902Q791.9831 177.0409 792.6706 177.71277Q793.3581 178.38464 794.4206 178.38464Q795.6081 178.38464 796.6862 177.6034Q797.4831 177.00964 797.7331 176.15027Q797.90497 175.58777 797.90497 174.00964L797.90497 173.13464ZM804.6237 164.50964L807.0612 164.50964L807.0612 163.25964Q807.0612 161.1659 807.50653 160.13464Q807.95184 159.1034 809.14716 158.45496Q810.34247 157.80652 812.1706 157.80652Q814.0456 157.80652 815.84247 158.36902L815.2487 161.43152Q814.20184 161.18152 813.2331 161.18152Q812.27997 161.18152 811.8659 161.62683Q811.45184 162.07214 811.45184 163.33777L811.45184 164.50964L814.7331 164.50964L814.7331 167.96277L811.45184 167.96277L811.45184 181.1034L807.0612 181.1034L807.0612 167.96277L804.6237 167.96277L804.6237 164.50964ZM823.6862 158.1034Q827.01434 158.1034 828.88934 160.4784Q831.1237 163.2909 831.1237 169.80652Q831.1237 176.30652 828.8737 179.15027Q827.01434 181.49402 823.6862 181.49402Q820.34247 181.49402 818.2956 178.9237Q816.2487 176.3534 816.2487 169.75964Q816.2487 163.2909 818.4987 160.44714Q820.3581 158.1034 823.6862 158.1034ZM823.6862 161.74402Q822.88934 161.74402 822.26434 162.25183Q821.63934 162.75964 821.2956 164.07214Q820.84247 165.77527 820.84247 169.80652Q820.84247 173.83777 821.2487 175.34558Q821.65497 176.8534 822.27216 177.3534Q822.88934 177.8534 823.6862 177.8534Q824.4831 177.8534 825.1081 177.34558Q825.7331 176.83777 826.07684 175.52527Q826.52997 173.83777 826.52997 169.80652Q826.52997 165.77527 826.1237 164.26746Q825.71747 162.75964 825.1003 162.25183Q824.4831 161.74402 823.6862 161.74402Z" fill-rule="nonzero" fill="#0000ff"></path><path d="M593.7515 104.24712L593.7515 104.24712C593.7515 100.83897 596.51434 98.07612 599.92255 98.07612L843.9425 98.07612C845.57916 98.07612 847.1488 98.72627 848.3061 99.88356C849.4634 101.04085 850.1135 102.610466 850.1135 104.24712L850.1135 195.30669C850.1135 198.71484 847.3507 201.47769 843.9425 201.47769L599.92255 201.47769C596.51434 201.47769 593.7515 198.71484 593.7515 195.30669Z" fill-rule="nonzero" stroke="#073763" stroke-width="2.0" stroke-linejoin="round" stroke-linecap="butt"></path><path d="M671.8974 131.05089L671.8974 108.144646L676.5224 108.144646L676.5224 131.05089L671.8974 131.05089ZM680.9755 131.05089L680.9755 108.144646L685.4755 108.144646L694.8505 123.44152L694.8505 108.144646L699.1474 108.144646L699.1474 131.05089L694.5068 131.05089L685.2724 116.113396L685.2724 131.05089L680.9755 131.05089ZM702.99115 122.519646Q702.99115 120.332146 704.0693 118.28527Q705.1474 116.238396 707.12396 115.16027Q709.1005 114.082146 711.538 114.082146Q715.30365 114.082146 717.7099 116.52746Q720.11615 118.97277 720.11615 122.707146Q720.11615 126.47277 717.68646 128.94933Q715.2568 131.42589 711.5693 131.42589Q709.288 131.42589 707.2177 130.39464Q705.1474 129.36339 704.0693 127.37121Q702.99115 125.37902 702.99115 122.519646ZM707.49115 122.75402Q707.49115 125.22277 708.663 126.53527Q709.8349 127.84777 711.55365 127.84777Q713.2724 127.84777 714.43646 126.53527Q715.6005 125.22277 715.6005 122.72277Q715.6005 120.28527 714.43646 118.97277Q713.2724 117.66027 711.55365 117.66027Q709.8349 117.66027 708.663 118.97277Q707.49115 120.28527 707.49115 122.75402ZM738.7724 131.05089L734.6943 131.05089L734.6943 128.61339Q733.67865 130.03526 732.29584 130.73058Q730.913 131.42589 729.5068 131.42589Q726.6474 131.42589 724.60834 129.1212Q722.5693 126.81652 722.5693 122.69152Q722.5693 118.47277 724.55365 116.27746Q726.538 114.082146 729.5693 114.082146Q732.3505 114.082146 734.3818 116.394646L734.3818 108.144646L738.7724 108.144646L738.7724 131.05089ZM727.05365 122.394646Q727.05365 125.050896 727.788 126.238396Q728.8505 127.957146 730.7568 127.957146Q732.2724 127.957146 733.3349 126.66808Q734.3974 125.37902 734.3974 122.81652Q734.3974 119.957146 733.36615 118.69933Q732.3349 117.44152 730.7255 117.44152Q729.163 117.44152 728.10834 118.68371Q727.05365 119.925896 727.05365 122.394646ZM752.7099 125.769646L757.0849 126.50402Q756.24115 128.91026 754.42084 130.16808Q752.6005 131.42589 749.86615 131.42589Q745.538 131.42589 743.4599 128.59776Q741.8193 126.332146 741.8193 122.87902Q741.8193 118.75402 743.9755 116.41808Q746.1318 114.082146 749.42865 114.082146Q753.1318 114.082146 755.2724 116.52746Q757.413 118.97277 757.3193 124.019646L746.3193 124.019646Q746.36615 125.97277 747.3818 127.05871Q748.3974 128.14464 749.913 128.14464Q750.9443 128.14464 751.6474 127.582146Q752.3505 127.019646 752.7099 125.769646ZM752.9599 121.332146Q752.913 119.425896 751.9755 118.43371Q751.038 117.44152 749.6943 117.44152Q748.2568 117.44152 747.3193 118.488396Q746.3818 119.53527 746.3974 121.332146L752.9599 121.332146ZM774.788 126.97277L774.788 131.05089L759.3974 131.05089Q759.6474 128.73839 760.8974 126.66808Q762.1474 124.59777 765.8349 121.175896Q768.80365 118.41027 769.4755 117.425896Q770.3818 116.06652 770.3818 114.738396Q770.3818 113.269646 769.5927 112.48058Q768.80365 111.69152 767.413 111.69152Q766.038 111.69152 765.2255 112.519646Q764.413 113.34777 764.288 115.269646L759.913 114.832146Q760.30365 111.207146 762.36615 109.62902Q764.42865 108.050896 767.5224 108.050896Q770.913 108.050896 772.8505 109.87902Q774.788 111.707146 774.788 114.425896Q774.788 115.97277 774.23334 117.37121Q773.67865 118.769646 772.4755 120.300896Q771.67865 121.31652 769.6005 123.22277Q767.5224 125.12902 766.9677 125.75402Q766.413 126.37902 766.0693 126.97277L774.788 126.97277Z" fill-rule="nonzero" fill="#0000ff"></path><path d="M603.3765 167.95439L604.2203 163.95439Q610.01715 161.42314 613.189 158.06377L615.9234 158.06377L611.0953 181.11064L606.57965 181.11064L609.9078 165.23564Q608.5015 166.14189 606.6656 166.89189Q604.82965 167.64189 603.3765 167.95439Z" fill-rule="nonzero" fill="#000000"></path><path d="M628.96893 151.96088L628.96893 151.96088C628.96893 150.48363 630.1665 149.28609 631.64374 149.28609L725.4405 149.28609C726.14984 149.28609 726.8302 149.5679 727.33185 150.06952C727.83344 150.57114 728.11523 151.25148 728.11523 151.96088L728.11523 191.43019C728.11523 192.90744 726.9177 194.10498 725.4405 194.10498L631.64374 194.10498C630.1665 194.10498 628.96893 192.90744 628.96893 191.43019Z" fill-rule="nonzero" stroke="#073763" stroke-width="2.0" stroke-linejoin="round" stroke-linecap="butt"></path><path d="M638.53723 181.1034L638.53723 158.38464L643.16223 158.38464L643.16223 177.24402L654.66223 177.24402L654.66223 181.1034L638.53723 181.1034ZM667.53723 175.82214L671.91223 176.55652Q671.0685 178.96277 669.24817 180.22058Q667.42786 181.4784 664.6935 181.4784Q660.36536 181.4784 658.28723 178.65027Q656.6466 176.38464 656.6466 172.93152Q656.6466 168.80652 658.80286 166.47058Q660.9591 164.13464 664.256 164.13464Q667.9591 164.13464 670.09973 166.57996Q672.24036 169.02527 672.1466 174.07214L661.1466 174.07214Q661.1935 176.02527 662.2091 177.1112Q663.22473 178.19714 664.74036 178.19714Q665.7716 178.19714 666.47473 177.63464Q667.17786 177.07214 667.53723 175.82214ZM667.78723 171.38464Q667.74036 169.4784 666.80286 168.4862Q665.86536 167.49402 664.5216 167.49402Q663.0841 167.49402 662.1466 168.5409Q661.2091 169.58777 661.22473 171.38464L667.78723 171.38464ZM679.006 169.57214L675.0216 168.8534Q675.6935 166.44714 677.3341 165.2909Q678.97473 164.13464 682.2091 164.13464Q685.1466 164.13464 686.5841 164.82996Q688.0216 165.52527 688.60754 166.59558Q689.1935 167.6659 689.1935 170.52527L689.1466 175.65027Q689.1466 177.83777 689.35754 178.87683Q689.5685 179.9159 690.1466 181.1034L685.80286 181.1034Q685.631 180.6659 685.381 179.80652Q685.2716 179.4159 685.22473 179.2909Q684.09973 180.38464 682.8185 180.93152Q681.53723 181.4784 680.0841 181.4784Q677.5216 181.4784 676.04504 180.08777Q674.5685 178.69714 674.5685 176.57214Q674.5685 175.1659 675.24036 174.06433Q675.91223 172.96277 677.12317 172.37683Q678.3341 171.7909 680.61536 171.3534Q683.6935 170.77527 684.881 170.27527L684.881 169.83777Q684.881 168.57214 684.256 168.03308Q683.631 167.49402 681.8966 167.49402Q680.72473 167.49402 680.0685 167.95496Q679.41223 168.4159 679.006 169.57214ZM684.881 173.13464Q684.03723 173.4159 682.2091 173.80652Q680.381 174.19714 679.8185 174.57214Q678.9591 175.18152 678.9591 176.11902Q678.9591 177.0409 679.6466 177.71277Q680.3341 178.38464 681.3966 178.38464Q682.5841 178.38464 683.66223 177.6034Q684.4591 177.00964 684.7091 176.15027Q684.881 175.58777 684.881 174.00964L684.881 173.13464ZM691.59973 164.50964L694.03723 164.50964L694.03723 163.25964Q694.03723 161.1659 694.48254 160.13464Q694.92786 159.1034 696.12317 158.45496Q697.3185 157.80652 699.1466 157.80652Q701.0216 157.80652 702.8185 158.36902L702.22473 161.43152Q701.17786 161.18152 700.2091 161.18152Q699.256 161.18152 698.8419 161.62683Q698.42786 162.07214 698.42786 163.33777L698.42786 164.50964L701.7091 164.50964L701.7091 167.96277L698.42786 167.96277L698.42786 181.1034L694.03723 181.1034L694.03723 167.96277L691.59973 167.96277L691.59973 164.50964ZM710.66223 158.1034Q713.99036 158.1034 715.86536 160.4784Q718.09973 163.2909 718.09973 169.80652Q718.09973 176.30652 715.84973 179.15027Q713.99036 181.49402 710.66223 181.49402Q707.3185 181.49402 705.2716 178.9237Q703.22473 176.3534 703.22473 169.75964Q703.22473 163.2909 705.47473 160.44714Q707.3341 158.1034 710.66223 158.1034ZM710.66223 161.74402Q709.86536 161.74402 709.24036 162.25183Q708.61536 162.75964 708.2716 164.07214Q707.8185 165.77527 707.8185 169.80652Q707.8185 173.83777 708.22473 175.34558Q708.631 176.8534 709.24817 177.3534Q709.86536 177.8534 710.66223 177.8534Q711.4591 177.8534 712.0841 177.34558Q712.7091 176.83777 713.05286 175.52527Q713.506 173.83777 713.506 169.80652Q713.506 165.77527 713.09973 164.26746Q712.6935 162.75964 712.0763 162.25183Q711.4591 161.74402 710.66223 161.74402Z" fill-rule="nonzero" fill="#0000ff"></path><path d="M213.99295 151.96088L213.99295 151.96088C213.99295 150.48363 215.1905 149.28609 216.66774 149.28609L310.46445 149.28609C311.17386 149.28609 311.85422 149.5679 312.35583 150.06952C312.85745 150.57114 313.13925 151.25148 313.13925 151.96088L313.13925 191.43019C313.13925 192.90744 311.9417 194.10498 310.46445 194.10498L216.66774 194.10498C215.1905 194.10498 213.99295 192.90744 213.99295 191.43019Z" fill-rule="nonzero" stroke="#073763" stroke-width="2.0" stroke-linejoin="round" stroke-linecap="butt"></path><path d="M223.56122 181.1034L223.56122 158.38464L228.18622 158.38464L228.18622 177.24402L239.68622 177.24402L239.68622 181.1034L223.56122 181.1034ZM252.56122 175.82214L256.93622 176.55652Q256.09247 178.96277 254.27216 180.22058Q252.45184 181.4784 249.71747 181.4784Q245.38934 181.4784 243.31122 178.65027Q241.6706 176.38464 241.6706 172.93152Q241.6706 168.80652 243.82684 166.47058Q245.9831 164.13464 249.27997 164.13464Q252.9831 164.13464 255.12372 166.57996Q257.26434 169.02527 257.1706 174.07214L246.1706 174.07214Q246.21747 176.02527 247.2331 177.1112Q248.24872 178.19714 249.76434 178.19714Q250.7956 178.19714 251.49872 177.63464Q252.20184 177.07214 252.56122 175.82214ZM252.81122 171.38464Q252.76434 169.4784 251.82684 168.4862Q250.88934 167.49402 249.5456 167.49402Q248.1081 167.49402 247.1706 168.5409Q246.2331 169.58777 246.24872 171.38464L252.81122 171.38464ZM264.02997 169.57214L260.0456 168.8534Q260.71747 166.44714 262.3581 165.2909Q263.99872 164.13464 267.2331 164.13464Q270.1706 164.13464 271.6081 164.82996Q273.0456 165.52527 273.63153 166.59558Q274.21747 167.6659 274.21747 170.52527L274.1706 175.65027Q274.1706 177.83777 274.38153 178.87683Q274.59247 179.9159 275.1706 181.1034L270.82684 181.1034Q270.65497 180.6659 270.40497 179.80652Q270.2956 179.4159 270.24872 179.2909Q269.12372 180.38464 267.84247 180.93152Q266.56122 181.4784 265.1081 181.4784Q262.5456 181.4784 261.06903 180.08777Q259.59247 178.69714 259.59247 176.57214Q259.59247 175.1659 260.26434 174.06433Q260.93622 172.96277 262.14716 172.37683Q263.3581 171.7909 265.63934 171.3534Q268.71747 170.77527 269.90497 170.27527L269.90497 169.83777Q269.90497 168.57214 269.27997 168.03308Q268.65497 167.49402 266.9206 167.49402Q265.74872 167.49402 265.09247 167.95496Q264.43622 168.4159 264.02997 169.57214ZM269.90497 173.13464Q269.06122 173.4159 267.2331 173.80652Q265.40497 174.19714 264.84247 174.57214Q263.9831 175.18152 263.9831 176.11902Q263.9831 177.0409 264.6706 177.71277Q265.3581 178.38464 266.4206 178.38464Q267.6081 178.38464 268.68622 177.6034Q269.4831 177.00964 269.7331 176.15027Q269.90497 175.58777 269.90497 174.00964L269.90497 173.13464ZM276.62372 164.50964L279.06122 164.50964L279.06122 163.25964Q279.06122 161.1659 279.50653 160.13464Q279.95184 159.1034 281.14716 158.45496Q282.34247 157.80652 284.1706 157.80652Q286.0456 157.80652 287.84247 158.36902L287.24872 161.43152Q286.20184 161.18152 285.2331 161.18152Q284.27997 161.18152 283.8659 161.62683Q283.45184 162.07214 283.45184 163.33777L283.45184 164.50964L286.7331 164.50964L286.7331 167.96277L283.45184 167.96277L283.45184 181.1034L279.06122 181.1034L279.06122 167.96277L276.62372 167.96277L276.62372 164.50964ZM295.68622 158.1034Q299.01434 158.1034 300.88934 160.4784Q303.12372 163.2909 303.12372 169.80652Q303.12372 176.30652 300.87372 179.15027Q299.01434 181.49402 295.68622 181.49402Q292.34247 181.49402 290.2956 178.9237Q288.24872 176.3534 288.24872 169.75964Q288.24872 163.2909 290.49872 160.44714Q292.3581 158.1034 295.68622 158.1034ZM295.68622 161.74402Q294.88934 161.74402 294.26434 162.25183Q293.63934 162.75964 293.2956 164.07214Q292.84247 165.77527 292.84247 169.80652Q292.84247 173.83777 293.24872 175.34558Q293.65497 176.8534 294.27216 177.3534Q294.88934 177.8534 295.68622 177.8534Q296.4831 177.8534 297.1081 177.34558Q297.7331 176.83777 298.07684 175.52527Q298.52997 173.83777 298.52997 169.80652Q298.52997 165.77527 298.12372 164.26746Q297.71747 162.75964 297.10028 162.25183Q296.4831 161.74402 295.68622 161.74402Z" fill-rule="nonzero" fill="#0000ff"></path><path d="M65.75152 104.24712L65.75152 104.24712C65.75152 100.83897 68.51437 98.07612 71.92252 98.07612L315.94254 98.07612C317.5792 98.07612 319.1488 98.72627 320.3061 99.88356C321.46338 101.04085 322.11353 102.610466 322.11353 104.24712L322.11353 195.30669C322.11353 198.71484 319.35068 201.47769 315.94254 201.47769L71.92252 201.47769C68.51437 201.47769 65.75152 198.71484 65.75152 195.30669Z" fill-rule="nonzero" stroke="#073763" stroke-width="2.0" stroke-linejoin="round" stroke-linecap="butt"></path><path d="M143.89737 131.05089L143.89737 108.144646L148.52237 108.144646L148.52237 131.05089L143.89737 131.05089ZM152.9755 131.05089L152.9755 108.144646L157.4755 108.144646L166.8505 123.44152L166.8505 108.144646L171.14737 108.144646L171.14737 131.05089L166.50674 131.05089L157.27237 116.113396L157.27237 131.05089L152.9755 131.05089ZM174.99112 122.519646Q174.99112 120.332146 176.06924 118.28527Q177.14737 116.238396 179.12393 115.16027Q181.1005 114.082146 183.538 114.082146Q187.30362 114.082146 189.70987 116.52746Q192.11612 118.97277 192.11612 122.707146Q192.11612 126.47277 189.68643 128.94933Q187.25674 131.42589 183.56924 131.42589Q181.288 131.42589 179.21768 130.39464Q177.14737 129.36339 176.06924 127.37121Q174.99112 125.37902 174.99112 122.519646ZM179.49112 122.75402Q179.49112 125.22277 180.663 126.53527Q181.83487 127.84777 183.55362 127.84777Q185.27237 127.84777 186.43643 126.53527Q187.6005 125.22277 187.6005 122.72277Q187.6005 120.28527 186.43643 118.97277Q185.27237 117.66027 183.55362 117.66027Q181.83487 117.66027 180.663 118.97277Q179.49112 120.28527 179.49112 122.75402ZM210.77237 131.05089L206.69424 131.05089L206.69424 128.61339Q205.67862 130.03526 204.2958 130.73058Q202.913 131.42589 201.50674 131.42589Q198.64737 131.42589 196.6083 129.1212Q194.56924 126.81652 194.56924 122.69152Q194.56924 118.47277 196.55362 116.27746Q198.538 114.082146 201.56924 114.082146Q204.3505 114.082146 206.38174 116.394646L206.38174 108.144646L210.77237 108.144646L210.77237 131.05089ZM199.05362 122.394646Q199.05362 125.050896 199.788 126.238396Q200.8505 127.957146 202.75674 127.957146Q204.27237 127.957146 205.33487 126.66808Q206.39737 125.37902 206.39737 122.81652Q206.39737 119.957146 205.36612 118.69933Q204.33487 117.44152 202.7255 117.44152Q201.163 117.44152 200.1083 118.68371Q199.05362 119.925896 199.05362 122.394646ZM224.70987 125.769646L229.08487 126.50402Q228.24112 128.91026 226.4208 130.16808Q224.6005 131.42589 221.86612 131.42589Q217.538 131.42589 215.45987 128.59776Q213.81924 126.332146 213.81924 122.87902Q213.81924 118.75402 215.9755 116.41808Q218.13174 114.082146 221.42862 114.082146Q225.13174 114.082146 227.27237 116.52746Q229.413 118.97277 229.31924 124.019646L218.31924 124.019646Q218.36612 125.97277 219.38174 127.05871Q220.39737 128.14464 221.913 128.14464Q222.94424 128.14464 223.64737 127.582146Q224.3505 127.019646 224.70987 125.769646ZM224.95987 121.332146Q224.913 119.425896 223.9755 118.43371Q223.038 117.44152 221.69424 117.44152Q220.25674 117.44152 219.31924 118.488396Q218.38174 119.53527 218.39737 121.332146L224.95987 121.332146ZM246.788 126.97277L246.788 131.05089L231.39737 131.05089Q231.64737 128.73839 232.89737 126.66808Q234.14737 124.59777 237.83487 121.175896Q240.80362 118.41027 241.4755 117.425896Q242.38174 116.06652 242.38174 114.738396Q242.38174 113.269646 241.59268 112.48058Q240.80362 111.69152 239.413 111.69152Q238.038 111.69152 237.2255 112.519646Q236.413 113.34777 236.288 115.269646L231.913 114.832146Q232.30362 111.207146 234.36612 109.62902Q236.42862 108.050896 239.52237 108.050896Q242.913 108.050896 244.8505 109.87902Q246.788 111.707146 246.788 114.425896Q246.788 115.97277 246.2333 117.37121Q245.67862 118.769646 244.4755 120.300896Q243.67862 121.31652 241.6005 123.22277Q239.52237 125.12902 238.96768 125.75402Q238.413 126.37902 238.06924 126.97277L246.788 126.97277Z" fill-rule="nonzero" fill="#0000ff"></path><path d="M75.37652 167.95439L76.22027 163.95439Q82.01714 161.42314 85.18902 158.06377L87.92339 158.06377L83.09527 181.11064L78.57964 181.11064L81.90777 165.23564Q80.50152 166.14189 78.66558 166.89189Q76.82964 167.64189 75.37652 167.95439Z" fill-rule="nonzero" fill="#000000"></path><path d="M100.968956 151.96088L100.968956 151.96088C100.968956 150.48363 102.1665 149.28609 103.643745 149.28609L197.44046 149.28609C198.14986 149.28609 198.8302 149.5679 199.33182 150.06952C199.83345 150.57114 200.11525 151.25148 200.11525 151.96088L200.11525 191.43019C200.11525 192.90744 198.91771 194.10498 197.44046 194.10498L103.643745 194.10498C102.1665 194.10498 100.968956 192.90744 100.968956 191.43019Z" fill-rule="nonzero" stroke="#073763" stroke-width="2.0" stroke-linejoin="round" stroke-linecap="butt"></path><path d="M110.53722 181.1034L110.53722 158.38464L115.16222 158.38464L115.16222 177.24402L126.66222 177.24402L126.66222 181.1034L110.53722 181.1034ZM139.53722 175.82214L143.91222 176.55652Q143.06847 178.96277 141.24815 180.22058Q139.42784 181.4784 136.69347 181.4784Q132.36534 181.4784 130.28722 178.65027Q128.64659 176.38464 128.64659 172.93152Q128.64659 168.80652 130.80284 166.47058Q132.95909 164.13464 136.25597 164.13464Q139.95909 164.13464 142.09972 166.57996Q144.24034 169.02527 144.14659 174.07214L133.14659 174.07214Q133.19347 176.02527 134.20909 177.1112Q135.22472 178.19714 136.74034 178.19714Q137.77159 178.19714 138.47472 177.63464Q139.17784 177.07214 139.53722 175.82214ZM139.78722 171.38464Q139.74034 169.4784 138.80284 168.4862Q137.86534 167.49402 136.52159 167.49402Q135.08409 167.49402 134.14659 168.5409Q133.20909 169.58777 133.22472 171.38464L139.78722 171.38464ZM151.00597 169.57214L147.02159 168.8534Q147.69347 166.44714 149.33409 165.2909Q150.97472 164.13464 154.20909 164.13464Q157.14659 164.13464 158.58409 164.82996Q160.02159 165.52527 160.60753 166.59558Q161.19347 167.6659 161.19347 170.52527L161.14659 175.65027Q161.14659 177.83777 161.35753 178.87683Q161.56847 179.9159 162.14659 181.1034L157.80284 181.1034Q157.63097 180.6659 157.38097 179.80652Q157.27159 179.4159 157.22472 179.2909Q156.09972 180.38464 154.81847 180.93152Q153.53722 181.4784 152.08409 181.4784Q149.52159 181.4784 148.04503 180.08777Q146.56847 178.69714 146.56847 176.57214Q146.56847 175.1659 147.24034 174.06433Q147.91222 172.96277 149.12315 172.37683Q150.33409 171.7909 152.61534 171.3534Q155.69347 170.77527 156.88097 170.27527L156.88097 169.83777Q156.88097 168.57214 156.25597 168.03308Q155.63097 167.49402 153.89659 167.49402Q152.72472 167.49402 152.06847 167.95496Q151.41222 168.4159 151.00597 169.57214ZM156.88097 173.13464Q156.03722 173.4159 154.20909 173.80652Q152.38097 174.19714 151.81847 174.57214Q150.95909 175.18152 150.95909 176.11902Q150.95909 177.0409 151.64659 177.71277Q152.33409 178.38464 153.39659 178.38464Q154.58409 178.38464 155.66222 177.6034Q156.45909 177.00964 156.70909 176.15027Q156.88097 175.58777 156.88097 174.00964L156.88097 173.13464ZM163.59972 164.50964L166.03722 164.50964L166.03722 163.25964Q166.03722 161.1659 166.48253 160.13464Q166.92784 159.1034 168.12315 158.45496Q169.31847 157.80652 171.14659 157.80652Q173.02159 157.80652 174.81847 158.36902L174.22472 161.43152Q173.17784 161.18152 172.20909 161.18152Q171.25597 161.18152 170.8419 161.62683Q170.42784 162.07214 170.42784 163.33777L170.42784 164.50964L173.70909 164.50964L173.70909 167.96277L170.42784 167.96277L170.42784 181.1034L166.03722 181.1034L166.03722 167.96277L163.59972 167.96277L163.59972 164.50964ZM182.66222 158.1034Q185.99034 158.1034 187.86534 160.4784Q190.09972 163.2909 190.09972 169.80652Q190.09972 176.30652 187.84972 179.15027Q185.99034 181.49402 182.66222 181.49402Q179.31847 181.49402 177.27159 178.9237Q175.22472 176.3534 175.22472 169.75964Q175.22472 163.2909 177.47472 160.44714Q179.33409 158.1034 182.66222 158.1034ZM182.66222 161.74402Q181.86534 161.74402 181.24034 162.25183Q180.61534 162.75964 180.27159 164.07214Q179.81847 165.77527 179.81847 169.80652Q179.81847 173.83777 180.22472 175.34558Q180.63097 176.8534 181.24815 177.3534Q181.86534 177.8534 182.66222 177.8534Q183.45909 177.8534 184.08409 177.34558Q184.70909 176.83777 185.05284 175.52527Q185.50597 173.83777 185.50597 169.80652Q185.50597 165.77527 185.09972 164.26746Q184.69347 162.75964 184.07628 162.25183Q183.45909 161.74402 182.66222 161.74402Z" fill-rule="nonzero" fill="#0000ff"></path><path d="M383.88174 50.203125L383.88174 27.296875L388.50674 27.296875L388.50674 50.203125L383.88174 50.203125ZM392.95987 50.203125L392.95987 27.296875L397.45987 27.296875L406.83487 42.59375L406.83487 27.296875L411.13174 27.296875L411.13174 50.203125L406.49112 50.203125L397.25674 35.265625L397.25674 50.203125L392.95987 50.203125ZM414.9755 41.671875Q414.9755 39.484375 416.05362 37.4375Q417.13174 35.390625 419.1083 34.3125Q421.08487 33.234375 423.52237 33.234375Q427.288 33.234375 429.69424 35.679688Q432.1005 38.125 432.1005 41.859375Q432.1005 45.625 429.6708 48.101562Q427.24112 50.578125 423.55362 50.578125Q421.27237 50.578125 419.20206 49.546875Q417.13174 48.515625 416.05362 46.523438Q414.9755 44.53125 414.9755 41.671875ZM419.4755 41.90625Q419.4755 44.375 420.64737 45.6875Q421.81924 47.0 423.538 47.0Q425.25674 47.0 426.4208 45.6875Q427.58487 44.375 427.58487 41.875Q427.58487 39.4375 426.4208 38.125Q425.25674 36.8125 423.538 36.8125Q421.81924 36.8125 420.64737 38.125Q419.4755 39.4375 419.4755 41.90625ZM450.75674 50.203125L446.67862 50.203125L446.67862 47.765625Q445.663 49.1875 444.28018 49.882812Q442.89737 50.578125 441.49112 50.578125Q438.63174 50.578125 436.59268 48.273438Q434.55362 45.96875 434.55362 41.84375Q434.55362 37.625 436.538 35.429688Q438.52237 33.234375 441.55362 33.234375Q444.33487 33.234375 446.36612 35.546875L446.36612 27.296875L450.75674 27.296875L450.75674 50.203125ZM439.038 41.546875Q439.038 44.203125 439.77237 45.390625Q440.83487 47.109375 442.74112 47.109375Q444.25674 47.109375 445.31924 45.820312Q446.38174 44.53125 446.38174 41.96875Q446.38174 39.109375 445.3505 37.851562Q444.31924 36.59375 442.70987 36.59375Q441.14737 36.59375 440.09268 37.835938Q439.038 39.078125 439.038 41.546875ZM464.69424 44.921875L469.06924 45.65625Q468.2255 48.0625 466.40518 49.320312Q464.58487 50.578125 461.8505 50.578125Q457.52237 50.578125 455.44424 47.75Q453.80362 45.484375 453.80362 42.03125Q453.80362 37.90625 455.95987 35.570312Q458.11612 33.234375 461.413 33.234375Q465.11612 33.234375 467.25674 35.679688Q469.39737 38.125 469.30362 43.171875L458.30362 43.171875Q458.3505 45.125 459.36612 46.210938Q460.38174 47.296875 461.89737 47.296875Q462.92862 47.296875 463.63174 46.734375Q464.33487 46.171875 464.69424 44.921875ZM464.94424 40.484375Q464.89737 38.578125 463.95987 37.585938Q463.02237 36.59375 461.67862 36.59375Q460.24112 36.59375 459.30362 37.640625Q458.36612 38.6875 458.38174 40.484375L464.94424 40.484375ZM471.788 44.125L476.038 43.609375Q476.24112 45.234375 477.13174 46.09375Q478.02237 46.953125 479.288 46.953125Q480.64737 46.953125 481.57706 45.921875Q482.50674 44.890625 482.50674 43.140625Q482.50674 41.484375 481.61612 40.515625Q480.7255 39.546875 479.44424 39.546875Q478.6005 39.546875 477.42862 39.875L477.913 36.296875Q479.69424 36.34375 480.63174 35.523438Q481.56924 34.703125 481.56924 33.34375Q481.56924 32.1875 480.88174 31.5Q480.19424 30.8125 479.05362 30.8125Q477.92862 30.8125 477.13174 31.59375Q476.33487 32.375 476.163 33.875L472.11612 33.1875Q472.538 31.109375 473.38956 29.867188Q474.24112 28.625 475.76456 27.914062Q477.288 27.203125 479.17862 27.203125Q482.413 27.203125 484.36612 29.265625Q485.9755 30.953125 485.9755 33.078125Q485.9755 36.09375 482.67862 37.890625Q484.64737 38.3125 485.82706 39.78125Q487.00674 41.25 487.00674 43.328125Q487.00674 46.34375 484.80362 48.46875Q482.6005 50.59375 479.31924 50.59375Q476.20987 50.59375 474.163 48.804688Q472.11612 47.015625 471.788 44.125Z" fill-rule="nonzero" fill="#0000ff"></path><path d="M10.517924 21.461878L10.517924 21.461878C10.517924 14.743156 15.964524 9.296556 22.683245 9.296556L847.86444 9.296556C851.0909 9.296556 854.1852 10.578257 856.4666 12.859697C858.74805 15.141137 860.0297 18.235434 860.0297 21.461878L860.0297 200.97375C860.0297 207.69247 854.5831 213.13908 847.86444 213.13908L22.683245 213.13908C15.964524 213.13908 10.517924 207.69247 10.517924 200.97375Z" fill-rule="nonzero" stroke="#073763" stroke-width="2.0" stroke-linejoin="round" stroke-linecap="butt"></path></svg>

