<?xml version="1.0" standalone="yes"?>

<svg version="1.1" viewBox="0.0 0.0 641.0 221.0" fill="none" stroke="none" stroke-linecap="square" stroke-miterlimit="10" xmlns="http://www.w3.org/2000/svg" xmlns:xlink="http://www.w3.org/1999/xlink"><path d="M25.751522 104.714745L25.751522 104.714745C25.751522 101.36576 28.466408 98.65088 31.815386 98.65088L276.03412 98.65088C277.64236 98.65088 279.18472 99.28975 280.3219 100.42694C281.4591 101.56414 282.098 103.10651 282.098 104.714745L282.098 194.19331C282.098 197.5423 279.3831 200.25717 276.03412 200.25717L31.815386 200.25717C28.466408 200.25717 25.751522 197.5423 25.751522 194.19331Z" fill-rule="nonzero" stroke="#073763" stroke-width="2.0" stroke-linejoin="round" stroke-linecap="butt"></path><path d="M38.803627 108.144646L47.959877 108.144646Q50.678627 108.144646 52.014565 108.37121Q53.350502 108.59777 54.40519 109.31652Q55.459877 110.03527 56.163002 111.23058Q56.866127 112.425896 56.866127 113.91027Q56.866127 115.519646 55.99894 116.863396Q55.131752 118.207146 53.647377 118.87902Q55.741127 119.488396 56.866127 120.957146Q57.991127 122.425896 57.991127 124.41027Q57.991127 125.97277 57.264565 127.44933Q56.538002 128.92589 55.28019 129.8087Q54.022377 130.69151 52.178627 130.89464Q51.022377 131.01964 46.600502 131.05089L38.803627 131.05089L38.803627 108.144646ZM43.428627 111.957146L43.428627 117.25402L46.459877 117.25402Q49.163002 117.25402 49.819252 117.175896Q51.006752 117.03527 51.68644 116.35558Q52.366127 115.675896 52.366127 114.56652Q52.366127 113.50402 51.78019 112.83996Q51.194252 112.175896 50.038002 112.03527Q49.350502 111.957146 46.084877 111.957146L43.428627 111.957146ZM43.428627 121.06652L43.428627 127.19152L47.709877 127.19152Q50.209877 127.19152 50.881752 127.050896Q51.913002 126.863396 52.56144 126.13683Q53.209877 125.41027 53.209877 124.19152Q53.209877 123.16027 52.709877 122.44152Q52.209877 121.72277 51.264565 121.394646Q50.319252 121.06652 47.163002 121.06652L43.428627 121.06652ZM61.866127 112.207146L61.866127 108.144646L66.25675 108.144646L66.25675 112.207146L61.866127 112.207146ZM61.866127 131.05089L61.866127 114.457146L66.25675 114.457146L66.25675 131.05089L61.866127 131.05089ZM85.8505 131.05089L81.45988 131.05089L81.45988 122.582146Q81.45988 119.894646 81.17863 119.10558Q80.89738 118.31652 80.264565 117.87902Q79.63175 117.44152 78.74113 117.44152Q77.6005 117.44152 76.69425 118.06652Q75.788 118.69152 75.452065 119.72277Q75.11613 120.75402 75.11613 123.53527L75.11613 131.05089L70.7255 131.05089L70.7255 114.457146L74.80363 114.457146L74.80363 116.894646Q76.9755 114.082146 80.27238 114.082146Q81.7255 114.082146 82.92863 114.60558Q84.13175 115.12902 84.74894 115.94152Q85.36613 116.75402 85.608315 117.78527Q85.8505 118.81652 85.8505 120.738396L85.8505 131.05089ZM105.52238 131.05089L101.44425 131.05089L101.44425 128.61339Q100.42863 130.03526 99.045815 130.73058Q97.663 131.42589 96.25675 131.42589Q93.39738 131.42589 91.358315 129.1212Q89.31925 126.81652 89.31925 122.69152Q89.31925 118.47277 91.30363 116.27746Q93.288 114.082146 96.31925 114.082146Q99.1005 114.082146 101.13175 116.394646L101.13175 108.144646L105.52238 108.144646L105.52238 131.05089ZM93.80363 122.394646Q93.80363 125.050896 94.538 126.238396Q95.6005 127.957146 97.50675 127.957146Q99.02238 127.957146 100.08488 126.66808Q101.14738 125.37902 101.14738 122.81652Q101.14738 119.957146 100.11613 118.69933Q99.08488 117.44152 97.4755 117.44152Q95.913 117.44152 94.858315 118.68371Q93.80363 119.925896 93.80363 122.394646Z" fill-rule="nonzero" fill="#0000ff"></path><path d="M41.138027 151.96088L41.138027 151.96088C41.138027 150.48363 42.33557 149.28609 43.81282 149.28609L147.50261 149.28609C148.212 149.28609 148.89235 149.5679 149.39397 150.06952C149.89558 150.57114 150.1774 151.25148 150.1774 151.96088L150.1774 191.43019C150.1774 192.90744 148.97986 194.10498 147.50261 194.10498L43.81282 194.10498C42.33557 194.10498 41.138027 192.90744 41.138027 191.43019Z" fill-rule="nonzero" stroke="#073763" stroke-width="2.0" stroke-linejoin="round" stroke-linecap="butt"></path><path d="M48.099354 181.1034L48.099354 158.19714L65.08373 158.19714L65.08373 162.07214L52.724354 162.07214L52.724354 167.15027L64.22436 167.15027L64.22436 171.00964L52.724354 171.00964L52.724354 177.24402L65.52123 177.24402L65.52123 181.1034L48.099354 181.1034ZM69.08373 164.50964L73.13061 164.50964L73.13061 166.77527Q75.30248 164.13464 78.30248 164.13464Q79.89623 164.13464 81.06811 164.7909Q82.23998 165.44714 82.98998 166.77527Q84.08373 165.44714 85.34936 164.7909Q86.61498 164.13464 88.05248 164.13464Q89.88061 164.13464 91.14623 164.87683Q92.41186 165.61902 93.03686 167.05652Q93.48998 168.11902 93.48998 170.49402L93.48998 181.1034L89.09936 181.1034L89.09936 171.61902Q89.09936 169.15027 88.64623 168.43152Q88.03686 167.49402 86.77123 167.49402Q85.84936 167.49402 85.03686 168.05652Q84.22436 168.61902 83.86498 169.70496Q83.50561 170.7909 83.50561 173.13464L83.50561 181.1034L79.11498 181.1034L79.11498 172.00964Q79.11498 169.58777 78.88061 168.88464Q78.64623 168.18152 78.154045 167.83777Q77.66186 167.49402 76.81811 167.49402Q75.80248 167.49402 74.98998 168.0409Q74.17748 168.58777 73.82592 169.61902Q73.47436 170.65027 73.47436 173.0409L73.47436 181.1034L69.08373 181.1034L69.08373 164.50964ZM97.73998 164.50964L101.83373 164.50964L101.83373 166.94714Q102.63061 165.69714 103.98998 164.9159Q105.34936 164.13464 107.00561 164.13464Q109.89623 164.13464 111.91186 166.40027Q113.92748 168.6659 113.92748 172.71277Q113.92748 176.86902 111.89623 179.1737Q109.86498 181.4784 106.97436 181.4784Q105.59936 181.4784 104.48217 180.93152Q103.36498 180.38464 102.13061 179.05652L102.13061 187.4159L97.73998 187.4159L97.73998 164.50964ZM102.08373 172.52527Q102.08373 175.32214 103.19311 176.65808Q104.30248 177.99402 105.89623 177.99402Q107.42748 177.99402 108.44311 176.76746Q109.45873 175.5409 109.45873 172.74402Q109.45873 170.13464 108.41186 168.86902Q107.36498 167.6034 105.81811 167.6034Q104.20873 167.6034 103.14623 168.84558Q102.08373 170.08777 102.08373 172.52527ZM125.02123 164.50964L125.02123 168.00964L122.02123 168.00964L122.02123 174.69714Q122.02123 176.7284 122.10717 177.06433Q122.19311 177.40027 122.497795 177.61902Q122.80248 177.83777 123.23998 177.83777Q123.84936 177.83777 125.00561 177.4159L125.38061 180.82214Q123.84936 181.4784 121.91186 181.4784Q120.72436 181.4784 119.77123 181.07996Q118.81811 180.68152 118.372795 180.0487Q117.92748 179.4159 117.75561 178.33777Q117.61498 177.57214 117.61498 175.24402L117.61498 168.00964L115.59936 168.00964L115.59936 164.50964L117.61498 164.50964L117.61498 161.21277L122.02123 158.65027L122.02123 164.50964L125.02123 164.50964ZM125.98998 164.50964L130.66185 164.50964L134.6306 176.2909L138.5056 164.50964L143.05247 164.50964L137.1931 180.4784L136.14622 183.36902Q135.5681 184.82214 135.04466 185.58777Q134.52122 186.3534 133.84154 186.82996Q133.16185 187.30652 132.16966 187.57214Q131.17747 187.83777 129.92747 187.83777Q128.66185 187.83777 127.44311 187.57214L127.05248 184.13464Q128.08372 184.33777 128.91185 184.33777Q130.4431 184.33777 131.17747 183.43933Q131.91185 182.5409 132.30247 181.15027L125.98998 164.50964Z" fill-rule="nonzero" fill="#0000ff"></path><path d="M169.83485 37.59839L178.9911 37.59839Q181.70985 37.59839 183.04579 37.82495Q184.38173 38.051514 185.43642 38.770264Q186.4911 39.489014 187.19423 40.684326Q187.89735 41.87964 187.89735 43.364014Q187.89735 44.97339 187.03017 46.31714Q186.16298 47.66089 184.6786 48.332764Q186.77235 48.94214 187.89735 50.41089Q189.02235 51.87964 189.02235 53.864014Q189.02235 55.426514 188.29579 56.903076Q187.56923 58.37964 186.31142 59.26245Q185.0536 60.145264 183.20985 60.34839Q182.0536 60.47339 177.63173 60.50464L169.83485 60.50464L169.83485 37.59839ZM174.45985 41.41089L174.45985 46.707764L177.4911 46.707764Q180.19423 46.707764 180.85048 46.62964Q182.03798 46.489014 182.71767 45.809326Q183.39735 45.12964 183.39735 44.020264Q183.39735 42.957764 182.81142 42.2937Q182.22548 41.62964 181.06923 41.489014Q180.38173 41.41089 177.1161 41.41089L174.45985 41.41089ZM174.45985 50.520264L174.45985 56.645264L178.7411 56.645264Q181.2411 56.645264 181.91298 56.50464Q182.94423 56.31714 183.59267 55.590576Q184.2411 54.864014 184.2411 53.645264Q184.2411 52.614014 183.7411 51.895264Q183.2411 51.176514 182.29579 50.84839Q181.35048 50.520264 178.19423 50.520264L174.45985 50.520264ZM192.89735 41.66089L192.89735 37.59839L197.28798 37.59839L197.28798 41.66089L192.89735 41.66089ZM192.89735 60.50464L192.89735 43.91089L197.28798 43.91089L197.28798 60.50464L192.89735 60.50464ZM216.88173 60.50464L212.4911 60.50464L212.4911 52.03589Q212.4911 49.34839 212.20985 48.559326Q211.9286 47.770264 211.29579 47.332764Q210.66298 46.895264 209.77235 46.895264Q208.63173 46.895264 207.72548 47.520264Q206.81923 48.145264 206.48329 49.176514Q206.14735 50.207764 206.14735 52.989014L206.14735 60.50464L201.75673 60.50464L201.75673 43.91089L205.83485 43.91089L205.83485 46.34839Q208.00673 43.53589 211.3036 43.53589Q212.75673 43.53589 213.95985 44.059326Q215.16298 44.582764 215.78017 45.395264Q216.39735 46.207764 216.63954 47.239014Q216.88173 48.270264 216.88173 50.19214L216.88173 60.50464ZM236.5536 60.50464L232.47548 60.50464L232.47548 58.06714Q231.45985 59.489014 230.07704 60.184326Q228.69423 60.87964 227.28798 60.87964Q224.4286 60.87964 222.38954 58.57495Q220.35048 56.270264 220.35048 52.145264Q220.35048 47.926514 222.33485 45.7312Q224.31923 43.53589 227.35048 43.53589Q230.13173 43.53589 232.16298 45.84839L232.16298 37.59839L236.5536 37.59839L236.5536 60.50464ZM224.83485 51.84839Q224.83485 54.50464 225.56923 55.69214Q226.63173 57.41089 228.53798 57.41089Q230.0536 57.41089 231.1161 56.121826Q232.1786 54.832764 232.1786 52.270264Q232.1786 49.41089 231.14735 48.153076Q230.1161 46.895264 228.50673 46.895264Q226.94423 46.895264 225.88954 48.13745Q224.83485 49.37964 224.83485 51.84839Z" fill-rule="nonzero" fill="#0000ff"></path><path d="M15.5944 36.3667L15.5944 36.3667C15.5944 30.212715 20.583189 25.223927 26.737173 25.223927L618.71936 25.223927C621.67456 25.223927 624.5088 26.397894 626.59845 28.48757C628.6882 30.577244 629.8621 33.411453 629.8621 36.3667L629.8621 200.78981C629.8621 206.9438 624.87335 211.93259 618.71936 211.93259L26.737173 211.93259C20.583189 211.93259 15.5944 206.9438 15.5944 200.78981Z" fill-rule="nonzero" stroke="#073763" stroke-width="2.0" stroke-linejoin="round" stroke-linecap="butt"></path><path d="M249.37027 49.138638L249.41714 45.935513L250.04214 43.029263L253.6359 43.029263L253.0109 45.935513L251.79214 49.138638L249.37027 49.138638ZM253.37027 49.138638L253.41714 45.935513L254.04214 43.029263L257.6359 43.029263L257.0109 45.935513L255.79214 49.138638L253.37027 49.138638ZM266.60464 55.529263L269.87027 56.060513Q269.05777 58.232388 267.47964 59.373013Q265.90152 60.513638 263.80777 60.513638Q261.43277 60.513638 260.03433 59.091763Q258.6359 57.669888 258.6359 55.185513Q258.6359 53.154263 259.47964 51.349575Q260.3234 49.544888 262.02652 48.513638Q263.72964 47.482388 265.7609 47.482388Q267.96402 47.482388 269.27652 48.630825Q270.58902 49.779263 270.74527 51.654263L267.54214 51.982388Q267.43277 50.951138 266.90933 50.45895Q266.3859 49.966763 265.54214 49.966763Q264.5734 49.966763 263.72964 50.693325Q262.8859 51.419888 262.43277 52.8652Q261.97964 54.310513 261.97964 55.576138Q261.97964 56.669888 262.5187 57.27145Q263.05777 57.873013 263.87027 57.873013Q264.68277 57.873013 265.43277 57.287075Q266.18277 56.701138 266.60464 55.529263ZM274.91714 60.216763L271.55777 60.216763L275.15152 43.029263L278.5109 43.029263L277.22964 49.154263Q278.35464 48.263638 279.33902 47.873013Q280.3234 47.482388 281.4484 47.482388Q282.96402 47.482388 283.84683 48.349575Q284.72964 49.216763 284.72964 50.623013Q284.72964 51.373013 284.40152 52.935513L282.87027 60.216763L279.5109 60.216763L281.0734 52.794888Q281.30777 51.591763 281.30777 51.248013Q281.30777 50.623013 280.92496 50.248013Q280.54214 49.873013 279.87027 49.873013Q279.02652 49.873013 278.2609 50.466763Q277.24527 51.232388 276.71402 52.357388Q276.43277 52.982388 275.9484 55.279263L274.91714 60.216763ZM289.74527 43.029263L293.10464 43.029263L292.47964 46.076138L289.12027 46.076138L289.74527 43.029263ZM288.7609 47.763638L292.12027 47.763638L289.52652 60.216763L286.16714 60.216763L288.7609 47.763638ZM295.3234 47.763638L298.49527 47.763638L298.18277 49.279263Q300.02652 47.482388 302.0734 47.482388Q303.47964 47.482388 304.23746 48.068325Q304.99527 48.654263 305.21402 49.685513Q305.85464 48.748013 307.05777 48.1152Q308.2609 47.482388 309.5734 47.482388Q311.05777 47.482388 311.8859 48.279263Q312.71402 49.076138 312.71402 50.388638Q312.71402 51.029263 312.3859 52.607388L310.79214 60.216763L307.43277 60.216763L309.02652 52.607388Q309.3234 51.185513 309.3234 50.998013Q309.3234 50.482388 309.0109 50.1777Q308.6984 49.873013 308.0734 49.873013Q306.8234 49.873013 305.83902 51.201138Q305.12027 52.154263 304.62027 54.560513L303.43277 60.216763L300.0734 60.216763L301.65152 52.685513Q301.91714 51.388638 301.91714 50.998013Q301.91714 50.513638 301.5812 50.193325Q301.24527 49.873013 300.66714 49.873013Q300.10464 49.873013 299.5187 50.201138Q298.93277 50.529263 298.49527 51.107388Q298.05777 51.685513 297.74527 52.591763Q297.60464 53.013638 297.29214 54.498013L296.08902 60.216763L292.72964 60.216763L295.3234 47.763638ZM317.7609 43.029263L321.12027 43.029263L320.49527 46.076138L317.1359 46.076138L317.7609 43.029263ZM316.77652 47.763638L320.1359 47.763638L317.54214 60.216763L314.18277 60.216763L316.77652 47.763638ZM329.27652 55.529263L332.54214 56.060513Q331.72964 58.232388 330.15152 59.373013Q328.5734 60.513638 326.47964 60.513638Q324.10464 60.513638 322.7062 59.091763Q321.30777 57.669888 321.30777 55.185513Q321.30777 53.154263 322.15152 51.349575Q322.99527 49.544888 324.6984 48.513638Q326.40152 47.482388 328.43277 47.482388Q330.6359 47.482388 331.9484 48.630825Q333.2609 49.779263 333.41714 51.654263L330.21402 51.982388Q330.10464 50.951138 329.5812 50.45895Q329.05777 49.966763 328.21402 49.966763Q327.24527 49.966763 326.40152 50.693325Q325.55777 51.419888 325.10464 52.8652Q324.65152 54.310513 324.65152 55.576138Q324.65152 56.669888 325.19058 57.27145Q325.72964 57.873013 326.54214 57.873013Q327.35464 57.873013 328.10464 57.287075Q328.85464 56.701138 329.27652 55.529263ZM337.60464 60.216763L334.24527 60.216763L337.83902 43.029263L341.1984 43.029263L339.91714 49.154263Q341.04214 48.263638 342.02652 47.873013Q343.0109 47.482388 344.1359 47.482388Q345.65152 47.482388 346.53433 48.349575Q347.41714 49.216763 347.41714 50.623013Q347.41714 51.373013 347.08902 52.935513L345.55777 60.216763L342.1984 60.216763L343.7609 52.794888Q343.99527 51.591763 343.99527 51.248013Q343.99527 50.623013 343.61246 50.248013Q343.22964 49.873013 342.55777 49.873013Q341.71402 49.873013 340.9484 50.466763Q339.93277 51.232388 339.40152 52.357388Q339.12027 52.982388 338.6359 55.279263L337.60464 60.216763ZM353.58902 51.294888L350.30777 51.013638Q350.87027 49.357388 352.27652 48.419888Q353.68277 47.482388 355.97964 47.482388Q358.3859 47.482388 359.53433 48.443325Q360.68277 49.404263 360.68277 50.810513Q360.68277 51.373013 360.5812 52.005825Q360.47964 52.638638 359.8859 55.326138Q359.40152 57.560513 359.40152 58.451138Q359.40152 59.248013 359.68277 60.216763L356.40152 60.216763Q356.21402 59.529263 356.16714 58.810513Q355.41714 59.623013 354.4562 60.068325Q353.49527 60.513638 352.52652 60.513638Q350.97964 60.513638 349.97183 59.498013Q348.96402 58.482388 348.96402 56.888638Q348.96402 55.107388 350.0734 54.037075Q351.18277 52.966763 354.02652 52.748013Q356.43277 52.544888 357.24527 52.263638Q357.4484 51.560513 357.4484 51.138638Q357.4484 50.607388 357.0187 50.2402Q356.58902 49.873013 355.72964 49.873013Q354.8234 49.873013 354.29996 50.248013Q353.77652 50.623013 353.58902 51.294888ZM356.79214 54.419888Q356.49527 54.498013 355.97964 54.560513Q353.4484 54.873013 352.68277 55.451138Q352.1359 55.873013 352.1359 56.591763Q352.1359 57.185513 352.55777 57.58395Q352.97964 57.982388 353.66714 57.982388Q354.43277 57.982388 355.10464 57.6152Q355.77652 57.248013 356.11246 56.669888Q356.4484 56.091763 356.6984 54.857388L356.79214 54.419888ZM364.83902 47.763638L368.02652 47.763638L367.6984 49.388638Q368.90152 48.357388 369.93277 47.919888Q370.96402 47.482388 372.12027 47.482388Q373.65152 47.482388 374.53433 48.357388Q375.41714 49.232388 375.41714 50.685513Q375.41714 51.341763 375.04214 53.169888L373.5734 60.216763L370.21402 60.216763L371.68277 53.154263Q372.0109 51.560513 372.0109 51.263638Q372.0109 50.623013 371.62808 50.248013Q371.24527 49.873013 370.5734 49.873013Q369.83902 49.873013 368.93277 50.498013Q368.02652 51.123013 367.5109 52.138638Q367.1359 52.873013 366.66714 55.107388L365.60464 60.216763L362.24527 60.216763L364.83902 47.763638ZM376.66714 60.873013L380.22964 61.388638Q380.22964 61.935513 380.40152 62.20895Q380.5734 62.482388 380.96402 62.6777Q381.35464 62.873013 382.04214 62.873013Q383.10464 62.873013 383.74527 62.451138Q384.22964 62.123013 384.54214 61.388638Q384.72964 60.935513 385.0109 59.388638L385.1359 58.810513Q383.3859 60.263638 381.52652 60.263638Q379.6984 60.263638 378.52652 58.974575Q377.35464 57.685513 377.35464 55.201138Q377.35464 53.013638 378.15152 51.185513Q378.9484 49.357388 380.3859 48.419888Q381.8234 47.482388 383.3234 47.482388Q384.5734 47.482388 385.60464 48.138638Q386.6359 48.794888 387.21402 49.966763L387.68277 47.763638L390.8234 47.763638L388.66714 58.138638Q388.15152 60.638638 387.78433 61.70895Q387.41714 62.779263 386.9484 63.412075Q386.47964 64.04488 385.7687 64.46676Q385.05777 64.88863 384.0812 65.07613Q383.10464 65.26363 381.96402 65.26363Q379.33902 65.26363 377.98746 64.3652Q376.6359 63.466763 376.6359 61.373013Q376.6359 61.138638 376.66714 60.873013ZM380.6359 54.857388Q380.6359 56.279263 381.27652 57.02145Q381.91714 57.763638 382.87027 57.763638Q383.74527 57.763638 384.5734 57.099575Q385.40152 56.435513 385.83902 55.201138Q386.27652 53.966763 386.27652 52.826138Q386.27652 51.498013 385.56558 50.685513Q384.85464 49.873013 383.91714 49.873013Q383.0109 49.873013 382.25308 50.591763Q381.49527 51.310513 381.0109 52.794888Q380.6359 53.951138 380.6359 54.857388ZM396.2609 51.294888L392.97964 51.013638Q393.54214 49.357388 394.9484 48.419888Q396.35464 47.482388 398.65152 47.482388Q401.05777 47.482388 402.2062 48.443325Q403.35464 49.404263 403.35464 50.810513Q403.35464 51.373013 403.25308 52.005825Q403.15152 52.638638 402.55777 55.326138Q402.0734 57.560513 402.0734 58.451138Q402.0734 59.248013 402.35464 60.216763L399.0734 60.216763Q398.8859 59.529263 398.83902 58.810513Q398.08902 59.623013 397.12808 60.068325Q396.16714 60.513638 395.1984 60.513638Q393.65152 60.513638 392.6437 59.498013Q391.6359 58.482388 391.6359 56.888638Q391.6359 55.107388 392.74527 54.037075Q393.85464 52.966763 396.6984 52.748013Q399.10464 52.544888 399.91714 52.263638Q400.12027 51.560513 400.12027 51.138638Q400.12027 50.607388 399.69058 50.2402Q399.2609 49.873013 398.40152 49.873013Q397.49527 49.873013 396.97183 50.248013Q396.4484 50.623013 396.2609 51.294888ZM399.46402 54.419888Q399.16714 54.498013 398.65152 54.560513Q396.12027 54.873013 395.35464 55.451138Q394.80777 55.873013 394.80777 56.591763Q394.80777 57.185513 395.22964 57.58395Q395.65152 57.982388 396.33902 57.982388Q397.10464 57.982388 397.77652 57.6152Q398.4484 57.248013 398.78433 56.669888Q399.12027 56.091763 399.37027 54.857388L399.46402 54.419888ZM407.46402 49.138638L407.5109 45.935513L408.1359 43.029263L411.72964 43.029263L411.10464 45.935513L409.8859 49.138638L407.46402 49.138638ZM411.46402 49.138638L411.5109 45.935513L412.1359 43.029263L415.72964 43.029263L415.10464 45.935513L413.8859 49.138638L411.46402 49.138638ZM430.15152 55.294888L433.41714 54.998013Q433.40152 55.232388 433.40152 55.357388Q433.40152 56.544888 433.93277 57.14645Q434.46402 57.748013 435.3234 57.748013Q436.52652 57.748013 437.50308 56.599575Q438.47964 55.451138 438.47964 53.435513Q438.47964 52.248013 437.92496 51.638638Q437.37027 51.029263 436.46402 51.029263Q435.80777 51.029263 435.19058 51.33395Q434.5734 51.638638 433.99527 52.263638L431.22964 52.044888L433.85464 43.263638L442.47964 43.263638L441.85464 46.341763L436.15152 46.341763L435.35464 48.982388Q435.85464 48.763638 436.34683 48.654263Q436.83902 48.544888 437.3234 48.544888Q439.29214 48.544888 440.55777 49.8652Q441.8234 51.185513 441.8234 53.419888Q441.8234 55.201138 440.93277 56.9277Q440.04214 58.654263 438.47183 59.58395Q436.90152 60.513638 435.18277 60.513638Q432.99527 60.513638 431.5812 59.091763Q430.16714 57.669888 430.15152 55.294888ZM443.6984 56.966763L447.02652 56.966763L446.35464 60.216763L443.02652 60.216763L443.6984 56.966763ZM454.97964 48.388638L451.68277 47.904263Q452.08902 45.513638 453.54214 44.2402Q454.99527 42.966763 457.1984 42.966763Q459.58902 42.966763 460.96402 44.263638Q462.33902 45.560513 462.33902 47.576138Q462.33902 48.591763 461.91714 49.6152Q461.49527 50.638638 460.52652 51.763638Q459.83902 52.560513 458.2687 54.02145Q456.6984 55.482388 456.19058 56.013638Q455.68277 56.544888 455.21402 57.138638L461.16714 57.138638L460.52652 60.216763L450.08902 60.216763Q450.2609 58.951138 450.83902 57.810513Q451.41714 56.669888 452.28433 55.685513Q453.15152 54.701138 455.46402 52.498013Q457.1984 50.841763 457.65152 50.341763Q458.46402 49.419888 458.7687 48.755825Q459.0734 48.091763 459.0734 47.544888Q459.0734 46.685513 458.56558 46.14645Q458.05777 45.607388 457.27652 45.607388Q456.47964 45.607388 455.87808 46.20895Q455.27652 46.810513 454.97964 48.388638ZM463.5109 55.294888L466.77652 54.998013Q466.7609 55.232388 466.7609 55.357388Q466.7609 56.544888 467.29214 57.14645Q467.8234 57.748013 468.68277 57.748013Q469.8859 57.748013 470.86246 56.599575Q471.83902 55.451138 471.83902 53.435513Q471.83902 52.248013 471.28433 51.638638Q470.72964 51.029263 469.8234 51.029263Q469.16714 51.029263 468.54996 51.33395Q467.93277 51.638638 467.35464 52.263638L464.58902 52.044888L467.21402 43.263638L475.83902 43.263638L475.21402 46.341763L469.5109 46.341763L468.71402 48.982388Q469.21402 48.763638 469.7062 48.654263Q470.1984 48.544888 470.68277 48.544888Q472.65152 48.544888 473.91714 49.8652Q475.18277 51.185513 475.18277 53.419888Q475.18277 55.201138 474.29214 56.9277Q473.40152 58.654263 471.8312 59.58395Q470.2609 60.513638 468.54214 60.513638Q466.35464 60.513638 464.94058 59.091763Q463.52652 57.669888 463.5109 55.294888Z" fill-rule="nonzero" fill="#000000"></path><path d="M116.38727 117.47523L116.43414 114.2721L117.05914 111.36585L120.65289 111.36585L120.02789 114.2721L118.80914 117.47523L116.38727 117.47523ZM120.38727 117.47523L120.43414 114.2721L121.05914 111.36585L124.65289 111.36585L124.02789 114.2721L122.80914 117.47523L120.38727 117.47523ZM125.07477 128.55336L128.6529 111.36585L132.0279 111.36585L130.82477 117.11585Q131.74664 116.41273 132.55133 116.11585Q133.35602 115.81898 134.30914 115.81898Q136.2779 115.81898 137.45758 117.13148Q138.63727 118.44398 138.63727 120.97523Q138.63727 122.66273 138.08258 124.26429Q137.5279 125.86585 136.5982 126.86585Q135.66852 127.86585 134.63727 128.35805Q133.60602 128.85023 132.48102 128.85023Q129.80914 128.85023 128.55914 126.50648L128.12164 128.55336L125.07477 128.55336ZM129.60602 123.47523Q129.60602 124.72523 130.31696 125.51429Q131.0279 126.30335 131.98102 126.30335Q132.82477 126.30335 133.5904 125.69398Q134.35602 125.0846 134.87164 123.748665Q135.38727 122.41273 135.38727 121.05335Q135.38727 119.72523 134.69977 118.967415Q134.01227 118.2096 133.04352 118.2096Q131.7779 118.2096 130.85602 119.38148Q129.60602 120.99085 129.60602 123.47523ZM142.41852 116.10023L145.7779 116.10023L144.24664 123.47523Q143.9654 124.80335 143.9654 125.13148Q143.9654 125.66273 144.36383 126.05335Q144.76227 126.44398 145.37164 126.44398Q145.82477 126.44398 146.25446 126.2721Q146.68414 126.10023 147.14508 125.75648Q147.60602 125.41273 147.9654 124.967415Q148.32477 124.5221 148.6529 123.78773Q148.87164 123.25648 149.12164 122.03773L150.37164 116.10023L153.73102 116.10023L151.13727 128.55336L147.99664 128.55336L148.3404 126.86585Q146.2779 128.85023 143.85602 128.85023Q142.32477 128.85023 141.44196 127.967415Q140.55914 127.0846 140.55914 125.61585Q140.55914 124.9596 140.9654 123.03773L142.41852 116.10023ZM156.9029 116.10023L160.04352 116.10023L159.54352 118.5221Q161.29352 115.81898 163.35602 115.81898Q164.07477 115.81898 164.9029 116.17835L163.62164 118.92835Q163.16852 118.7721 162.6529 118.7721Q161.7779 118.7721 160.87946 119.42835Q159.98102 120.0846 159.48102 121.17835Q158.98102 122.2721 158.48102 124.6471L157.66852 128.55336L154.30914 128.55336L156.9029 116.10023ZM166.24664 116.10023L169.38727 116.10023L168.88727 118.5221Q170.63727 115.81898 172.69977 115.81898Q173.41852 115.81898 174.24664 116.17835L172.9654 118.92835Q172.51227 118.7721 171.99664 118.7721Q171.12164 118.7721 170.2232 119.42835Q169.32477 120.0846 168.82477 121.17835Q168.32477 122.2721 167.82477 124.6471L167.01227 128.55336L163.6529 128.55336L166.24664 116.10023ZM176.74664 111.36585L180.10602 111.36585L179.48102 114.41273L176.12164 114.41273L176.74664 111.36585ZM175.76227 116.10023L179.12164 116.10023L176.5279 128.55336L173.16852 128.55336L175.76227 116.10023ZM180.68414 118.60023L181.19977 116.10023L182.8404 116.10023L183.24664 114.11585L187.10602 111.78773L186.19977 116.10023L188.24664 116.10023L187.73102 118.60023L185.66852 118.60023L184.57477 123.81898Q184.29352 125.24085 184.29352 125.42835Q184.29352 125.81898 184.5357 126.03773Q184.7779 126.25648 185.41852 126.25648Q185.6529 126.25648 186.54352 126.17835L186.01227 128.67836Q185.13727 128.85023 184.23102 128.85023Q182.44977 128.85023 181.63727 128.16273Q180.82477 127.47523 180.82477 126.25648Q180.82477 125.67835 181.26227 123.60023L182.30914 118.60023L180.68414 118.60023ZM188.32477 123.38148Q188.32477 119.92835 190.2779 117.873665Q192.23102 115.81898 195.4029 115.81898Q198.1529 115.81898 199.69977 117.3346Q201.24664 118.85023 201.24664 121.41273Q201.24664 124.44398 199.31696 126.6471Q197.38727 128.85023 194.13727 128.85023Q192.38727 128.85023 191.0279 128.14711Q189.66852 127.44398 188.99664 126.154915Q188.32477 124.86585 188.32477 123.38148ZM197.91852 120.97523Q197.91852 119.78773 197.2154 119.06898Q196.51227 118.35023 195.41852 118.35023Q194.32477 118.35023 193.48102 119.0221Q192.63727 119.69398 192.16852 120.97523Q191.69977 122.25648 191.69977 123.3346Q191.69977 124.67835 192.42633 125.4596Q193.1529 126.24085 194.26227 126.24085Q195.63727 126.24085 196.57477 125.05335Q197.91852 123.38148 197.91852 120.97523ZM205.0904 117.47523L205.13727 114.2721L205.76227 111.36585L209.35602 111.36585L208.73102 114.2721L207.51227 117.47523L205.0904 117.47523ZM209.0904 117.47523L209.13727 114.2721L209.76227 111.36585L213.35602 111.36585L212.73102 114.2721L211.51227 117.47523L209.0904 117.47523ZM233.66852 125.05335L226.9029 125.05335L227.49664 122.24085L236.7779 111.36585L239.68414 111.36585L237.43414 122.19398L239.51227 122.19398L238.91852 125.05335L236.82477 125.05335L236.0904 128.55336L232.93414 128.55336L233.66852 125.05335ZM234.26227 122.19398L235.37164 116.8346L230.8404 122.19398L234.26227 122.19398ZM241.32477 125.30335L244.6529 125.30335L243.98102 128.55336L240.6529 128.55336L241.32477 125.30335ZM247.79352 123.63148L251.05914 123.3346Q251.04352 123.56898 251.04352 123.69398Q251.04352 124.88148 251.57477 125.48304Q252.10602 126.0846 252.9654 126.0846Q254.16852 126.0846 255.14508 124.936165Q256.12164 123.78773 256.12164 121.7721Q256.12164 120.5846 255.56696 119.97523Q255.01227 119.36585 254.10602 119.36585Q253.44977 119.36585 252.83258 119.67054Q252.2154 119.97523 251.63727 120.60023L248.87164 120.38148L251.49664 111.60023L260.12164 111.60023L259.49664 114.67835L253.79352 114.67835L252.99664 117.31898Q253.49664 117.10023 253.98883 116.99085Q254.48102 116.88148 254.9654 116.88148Q256.93414 116.88148 258.19977 118.20179Q259.4654 119.5221 259.4654 121.75648Q259.4654 123.53773 258.57477 125.26429Q257.68414 126.99085 256.11383 127.92054Q254.54352 128.85023 252.82477 128.85023Q250.63727 128.85023 249.2232 127.42835Q247.80914 126.00648 247.79352 123.63148ZM261.1529 122.9596Q261.1529 120.36585 262.0279 117.7096Q263.10602 114.4596 264.79352 112.88148Q266.48102 111.30335 268.54352 111.30335Q270.63727 111.30335 271.98102 112.811165Q273.32477 114.31898 273.32477 117.2096Q273.32477 119.85023 272.3404 122.779915Q271.35602 125.7096 269.69196 127.279915Q268.0279 128.85023 265.94977 128.85023Q263.85602 128.85023 262.50446 127.3346Q261.1529 125.81898 261.1529 122.9596ZM264.4654 123.6471Q264.4654 125.0221 264.9107 125.5846Q265.35602 126.1471 266.05914 126.1471Q266.99664 126.1471 267.7154 125.28773Q268.68414 124.11585 269.43414 120.7096Q270.04352 118.00648 270.04352 116.42835Q270.04352 115.13148 269.5904 114.561165Q269.13727 113.99085 268.43414 113.99085Q267.54352 113.99085 266.85602 114.85023Q265.82477 116.10023 265.0904 119.22523Q264.4654 121.92835 264.4654 123.6471Z" fill-rule="nonzero" fill="#000000"></path><path d="M451.69977 119.10184L451.74664 115.89871L452.37164 112.99246L455.9654 112.99246L455.3404 115.89871L454.12164 119.10184L451.69977 119.10184ZM455.69977 119.10184L455.74664 115.89871L456.37164 112.99246L459.9654 112.99246L459.3404 115.89871L458.12164 119.10184L455.69977 119.10184ZM469.1529 117.72684L468.63727 120.19559L466.24664 120.19559L464.16852 130.17996L460.80914 130.17996L462.88727 120.19559L461.01227 120.19559L461.5279 117.72684L463.4029 117.72684L463.66852 116.46121Q463.99664 114.88309 464.29352 114.33621Q464.69977 113.58621 465.48883 113.14871Q466.2779 112.71121 467.55914 112.71121Q469.10602 112.71121 470.80914 113.27371L470.1529 115.66434Q468.94977 115.25809 468.19977 115.25809Q467.62164 115.25809 467.3404 115.61746Q467.1529 115.85184 466.94977 116.85184L466.76227 117.72684L469.1529 117.72684ZM470.88727 117.72684L474.0279 117.72684L473.5279 120.14871Q475.2779 117.44559 477.3404 117.44559Q478.05914 117.44559 478.88727 117.80496L477.60602 120.55496Q477.1529 120.39871 476.63727 120.39871Q475.76227 120.39871 474.86383 121.05496Q473.9654 121.71121 473.4654 122.80496Q472.9654 123.89871 472.4654 126.27371L471.6529 130.17996L468.29352 130.17996L470.88727 117.72684ZM481.4029 112.99246L484.76227 112.99246L484.13727 116.03934L480.7779 116.03934L481.4029 112.99246ZM480.41852 117.72684L483.7779 117.72684L481.18414 130.17996L477.82477 130.17996L480.41852 117.72684ZM488.0904 112.99246L491.4654 112.99246L490.82477 116.03934L487.44977 116.03934L488.0904 112.99246ZM487.10602 117.72684L490.48102 117.72684L488.26227 128.27371Q487.32477 132.78934 486.6529 133.74246Q485.6529 135.22684 483.41852 135.22684Q482.0279 135.22684 480.88727 134.85184L481.41852 132.08621Q482.2154 132.27371 482.7779 132.27371Q483.44977 132.27371 483.86383 131.75027Q484.2779 131.22684 484.94977 128.03934L487.10602 117.72684ZM491.63727 125.00809Q491.63727 121.55496 493.5904 119.500275Q495.54352 117.44559 498.7154 117.44559Q501.4654 117.44559 503.01227 118.96121Q504.55914 120.47684 504.55914 123.03934Q504.55914 126.07059 502.62946 128.27371Q500.69977 130.47684 497.44977 130.47684Q495.69977 130.47684 494.3404 129.77371Q492.98102 129.07059 492.30914 127.781525Q491.63727 126.49246 491.63727 125.00809ZM501.23102 122.60184Q501.23102 121.41434 500.5279 120.69559Q499.82477 119.97684 498.73102 119.97684Q497.63727 119.97684 496.79352 120.64871Q495.94977 121.32059 495.48102 122.60184Q495.01227 123.88309 495.01227 124.96121Q495.01227 126.30496 495.73883 127.08621Q496.4654 127.86746 497.57477 127.86746Q498.94977 127.86746 499.88727 126.67996Q501.23102 125.00809 501.23102 122.60184ZM505.7779 130.17996L509.37164 112.99246L512.731 112.99246L509.13727 130.17996L505.7779 130.17996ZM524.5904 124.99246L516.1529 124.99246Q516.13727 125.19559 516.13727 125.30496Q516.13727 126.53934 516.8482 127.30496Q517.55914 128.07059 518.57477 128.07059Q520.26227 128.07059 521.19977 126.33621L524.19977 126.83621Q523.32477 128.64871 521.856 129.56277Q520.38727 130.47684 518.55914 130.47684Q516.0435 130.47684 514.4732 128.88309Q512.9029 127.28934 512.9029 124.67996Q512.9029 122.13309 514.32477 120.13309Q516.26227 117.44559 519.8404 117.44559Q522.13727 117.44559 523.481 118.85184Q524.82477 120.25809 524.82477 122.80496Q524.82477 124.02371 524.5904 124.99246ZM521.76227 122.94559Q521.76227 122.72684 521.76227 122.60184Q521.76227 121.22684 521.1451 120.531525Q520.5279 119.83621 519.481 119.83621Q518.43414 119.83621 517.61383 120.625275Q516.7935 121.41434 516.49664 122.94559L521.76227 122.94559ZM525.38727 126.69559L528.63727 126.17996Q529.07477 127.21121 529.7232 127.6409Q530.37164 128.07059 531.481 128.07059Q532.62164 128.07059 533.32477 127.55496Q533.7935 127.19559 533.7935 126.69559Q533.7935 126.35184 533.55914 126.08621Q533.2935 125.83621 532.1529 125.46121Q529.106 124.44559 528.38727 123.86746Q527.24664 122.94559 527.24664 121.47684Q527.24664 119.99246 528.356 118.92996Q529.88727 117.44559 532.9029 117.44559Q535.30914 117.44559 536.5435 118.32059Q537.7779 119.19559 538.106 120.69559L534.99664 121.24246Q534.74664 120.55496 534.19977 120.21121Q533.44977 119.75809 532.38727 119.75809Q531.3404 119.75809 530.87946 120.10965Q530.4185 120.46121 530.4185 120.91434Q530.4185 121.38309 530.88727 121.69559Q531.1685 121.88309 532.76227 122.35184Q535.231 123.07059 536.05914 123.75809Q537.231 124.72684 537.231 126.10184Q537.231 127.86746 535.74664 129.17215Q534.26227 130.47684 531.5435 130.47684Q528.856 130.47684 527.38727 129.48465Q525.9185 128.49246 525.38727 126.69559ZM541.7779 119.10184L541.82477 115.89871L542.44977 112.99246L546.0435 112.99246L545.4185 115.89871L544.19977 119.10184L541.7779 119.10184ZM545.7779 119.10184L545.82477 115.89871L546.44977 112.99246L550.0435 112.99246L549.4185 115.89871L548.19977 119.10184L545.7779 119.10184ZM569.26227 118.35184L565.9654 117.86746Q566.37164 115.47684 567.82477 114.2034Q569.2779 112.92996 571.481 112.92996Q573.87164 112.92996 575.24664 114.22684Q576.62164 115.52371 576.62164 117.53934Q576.62164 118.55496 576.19977 119.5784Q575.7779 120.60184 574.80914 121.72684Q574.12164 122.52371 572.55133 123.98465Q570.981 125.44559 570.4732 125.97684Q569.9654 126.50809 569.49664 127.10184L575.44977 127.10184L574.80914 130.17996L564.37164 130.17996Q564.5435 128.91434 565.12164 127.77371Q565.69977 126.63309 566.56696 125.64871Q567.43414 124.66434 569.74664 122.46121Q571.481 120.80496 571.93414 120.30496Q572.74664 119.38309 573.05133 118.719025Q573.356 118.05496 573.356 117.50809Q573.356 116.64871 572.8482 116.10965Q572.3404 115.57059 571.55914 115.57059Q570.76227 115.57059 570.1607 116.17215Q569.55914 116.77371 569.26227 118.35184ZM578.01227 126.92996L581.3404 126.92996L580.6685 130.17996L577.3404 130.17996L578.01227 126.92996ZM585.4185 116.33621L586.05914 113.22684L597.4029 113.22684L596.88727 115.61746Q595.80914 116.49246 594.51227 118.23465Q593.2154 119.97684 592.106 122.125275Q590.99664 124.27371 590.2935 126.21121Q589.32477 128.88309 589.0904 130.17996L585.88727 130.17996Q586.106 128.88309 586.88727 126.63309Q587.8404 123.86746 589.2857 121.28934Q590.731 118.71121 592.76227 116.33621L585.4185 116.33621ZM597.82477 125.25809L601.0904 124.96121Q601.07477 125.19559 601.07477 125.32059Q601.07477 126.50809 601.606 127.10965Q602.13727 127.71121 602.99664 127.71121Q604.19977 127.71121 605.17633 126.562775Q606.1529 125.41434 606.1529 123.39871Q606.1529 122.21121 605.5982 121.60184Q605.0435 120.99246 604.13727 120.99246Q603.481 120.99246 602.86383 121.29715Q602.24664 121.60184 601.6685 122.22684L598.9029 122.00809L601.5279 113.22684L610.1529 113.22684L609.5279 116.30496L603.82477 116.30496L603.0279 118.94559Q603.5279 118.72684 604.0201 118.61746Q604.51227 118.50809 604.99664 118.50809Q606.9654 118.50809 608.231 119.8284Q609.49664 121.14871 609.49664 123.38309Q609.49664 125.16434 608.606 126.8909Q607.7154 128.61746 606.1451 129.54715Q604.57477 130.47684 602.856 130.47684Q600.6685 130.47684 599.25446 129.05496Q597.8404 127.63309 597.82477 125.25809Z" fill-rule="nonzero" fill="#000000"></path><path d="M161.13803 151.96088L161.13803 151.96088C161.13803 150.48363 162.33557 149.28609 163.81282 149.28609L267.5026 149.28609C268.212 149.28609 268.89233 149.5679 269.39398 150.06952C269.8956 150.57114 270.1774 151.25148 270.1774 151.96088L270.1774 191.43019C270.1774 192.90744 268.97986 194.10498 267.5026 194.10498L163.81282 194.10498C162.33557 194.10498 161.13803 192.90744 161.13803 191.43019Z" fill-rule="nonzero" stroke="#073763" stroke-width="2.0" stroke-linejoin="round" stroke-linecap="butt"></path><path d="M168.09935 181.1034L168.09935 158.19714L185.08372 158.19714L185.08372 162.07214L172.72435 162.07214L172.72435 167.15027L184.22435 167.15027L184.22435 171.00964L172.72435 171.00964L172.72435 177.24402L185.52122 177.24402L185.52122 181.1034L168.09935 181.1034ZM189.08372 164.50964L193.1306 164.50964L193.1306 166.77527Q195.30247 164.13464 198.30247 164.13464Q199.89622 164.13464 201.0681 164.7909Q202.23997 165.44714 202.98997 166.77527Q204.08372 165.44714 205.34935 164.7909Q206.61497 164.13464 208.05247 164.13464Q209.8806 164.13464 211.14622 164.87683Q212.41185 165.61902 213.03685 167.05652Q213.48997 168.11902 213.48997 170.49402L213.48997 181.1034L209.09935 181.1034L209.09935 171.61902Q209.09935 169.15027 208.64622 168.43152Q208.03685 167.49402 206.77122 167.49402Q205.84935 167.49402 205.03685 168.05652Q204.22435 168.61902 203.86497 169.70496Q203.5056 170.7909 203.5056 173.13464L203.5056 181.1034L199.11497 181.1034L199.11497 172.00964Q199.11497 169.58777 198.8806 168.88464Q198.64622 168.18152 198.15404 167.83777Q197.66185 167.49402 196.8181 167.49402Q195.80247 167.49402 194.98997 168.0409Q194.17747 168.58777 193.82591 169.61902Q193.47435 170.65027 193.47435 173.0409L193.47435 181.1034L189.08372 181.1034L189.08372 164.50964ZM217.73997 164.50964L221.83372 164.50964L221.83372 166.94714Q222.6306 165.69714 223.98997 164.9159Q225.34935 164.13464 227.0056 164.13464Q229.89622 164.13464 231.91185 166.40027Q233.92747 168.6659 233.92747 172.71277Q233.92747 176.86902 231.89622 179.1737Q229.86497 181.4784 226.97435 181.4784Q225.59935 181.4784 224.48216 180.93152Q223.36497 180.38464 222.1306 179.05652L222.1306 187.4159L217.73997 187.4159L217.73997 164.50964ZM222.08372 172.52527Q222.08372 175.32214 223.1931 176.65808Q224.30247 177.99402 225.89622 177.99402Q227.42747 177.99402 228.4431 176.76746Q229.45872 175.5409 229.45872 172.74402Q229.45872 170.13464 228.41185 168.86902Q227.36497 167.6034 225.8181 167.6034Q224.20872 167.6034 223.14622 168.84558Q222.08372 170.08777 222.08372 172.52527ZM245.02122 164.50964L245.02122 168.00964L242.02122 168.00964L242.02122 174.69714Q242.02122 176.7284 242.10716 177.06433Q242.1931 177.40027 242.49779 177.61902Q242.80247 177.83777 243.23997 177.83777Q243.84935 177.83777 245.0056 177.4159L245.3806 180.82214Q243.84935 181.4784 241.91185 181.4784Q240.72435 181.4784 239.77122 181.07996Q238.8181 180.68152 238.37279 180.0487Q237.92747 179.4159 237.7556 178.33777Q237.61497 177.57214 237.61497 175.24402L237.61497 168.00964L235.59935 168.00964L235.59935 164.50964L237.61497 164.50964L237.61497 161.21277L242.02122 158.65027L242.02122 164.50964L245.02122 164.50964ZM245.98997 164.50964L250.66185 164.50964L254.6306 176.2909L258.5056 164.50964L263.0525 164.50964L257.1931 180.4784L256.14624 183.36902Q255.5681 184.82214 255.04466 185.58777Q254.52122 186.3534 253.84154 186.82996Q253.16185 187.30652 252.16966 187.57214Q251.17747 187.83777 249.92747 187.83777Q248.66185 187.83777 247.4431 187.57214L247.05247 184.13464Q248.08372 184.33777 248.91185 184.33777Q250.4431 184.33777 251.17747 183.43933Q251.91185 182.5409 252.30247 181.15027L245.98997 164.50964Z" fill-rule="nonzero" fill="#0000ff"></path><path d="M361.75153 104.714745L361.75153 104.714745C361.75153 101.36576 364.4664 98.65088 367.8154 98.65088L612.0341 98.65088C613.64233 98.65088 615.1847 99.28975 616.3219 100.42694C617.4591 101.56414 618.09796 103.10651 618.09796 104.714745L618.09796 194.19331C618.09796 197.5423 615.3831 200.25717 612.0341 200.25717L367.8154 200.25717C364.4664 200.25717 361.75153 197.5423 361.75153 194.19331Z" fill-rule="nonzero" stroke="#073763" stroke-width="2.0" stroke-linejoin="round" stroke-linecap="butt"></path><path d="M374.80362 108.144646L383.95987 108.144646Q386.67862 108.144646 388.01456 108.37121Q389.3505 108.59777 390.40518 109.31652Q391.45987 110.03527 392.163 111.23058Q392.86612 112.425896 392.86612 113.91027Q392.86612 115.519646 391.99893 116.863396Q391.13174 118.207146 389.64737 118.87902Q391.74112 119.488396 392.86612 120.957146Q393.99112 122.425896 393.99112 124.41027Q393.99112 125.97277 393.26456 127.44933Q392.538 128.92589 391.28018 129.8087Q390.02237 130.69151 388.17862 130.89464Q387.02237 131.01964 382.6005 131.05089L374.80362 131.05089L374.80362 108.144646ZM379.42862 111.957146L379.42862 117.25402L382.45987 117.25402Q385.163 117.25402 385.81924 117.175896Q387.00674 117.03527 387.68643 116.35558Q388.36612 115.675896 388.36612 114.56652Q388.36612 113.50402 387.78018 112.83996Q387.19424 112.175896 386.038 112.03527Q385.3505 111.957146 382.08487 111.957146L379.42862 111.957146ZM379.42862 121.06652L379.42862 127.19152L383.70987 127.19152Q386.20987 127.19152 386.88174 127.050896Q387.913 126.863396 388.56143 126.13683Q389.20987 125.41027 389.20987 124.19152Q389.20987 123.16027 388.70987 122.44152Q388.20987 121.72277 387.26456 121.394646Q386.31924 121.06652 383.163 121.06652L379.42862 121.06652ZM397.86612 112.207146L397.86612 108.144646L402.25674 108.144646L402.25674 112.207146L397.86612 112.207146ZM397.86612 131.05089L397.86612 114.457146L402.25674 114.457146L402.25674 131.05089L397.86612 131.05089ZM421.8505 131.05089L417.45987 131.05089L417.45987 122.582146Q417.45987 119.894646 417.17862 119.10558Q416.89737 118.31652 416.26456 117.87902Q415.63174 117.44152 414.74112 117.44152Q413.6005 117.44152 412.69424 118.06652Q411.788 118.69152 411.45206 119.72277Q411.11612 120.75402 411.11612 123.53527L411.11612 131.05089L406.7255 131.05089L406.7255 114.457146L410.80362 114.457146L410.80362 116.894646Q412.9755 114.082146 416.27237 114.082146Q417.7255 114.082146 418.92862 114.60558Q420.13174 115.12902 420.74893 115.94152Q421.36612 116.75402 421.6083 117.78527Q421.8505 118.81652 421.8505 120.738396L421.8505 131.05089ZM441.52237 131.05089L437.44424 131.05089L437.44424 128.61339Q436.42862 130.03526 435.0458 130.73058Q433.663 131.42589 432.25674 131.42589Q429.39737 131.42589 427.3583 129.1212Q425.31924 126.81652 425.31924 122.69152Q425.31924 118.47277 427.30362 116.27746Q429.288 114.082146 432.31924 114.082146Q435.1005 114.082146 437.13174 116.394646L437.13174 108.144646L441.52237 108.144646L441.52237 131.05089ZM429.80362 122.394646Q429.80362 125.050896 430.538 126.238396Q431.6005 127.957146 433.50674 127.957146Q435.02237 127.957146 436.08487 126.66808Q437.14737 125.37902 437.14737 122.81652Q437.14737 119.957146 436.11612 118.69933Q435.08487 117.44152 433.4755 117.44152Q431.913 117.44152 430.8583 118.68371Q429.80362 119.925896 429.80362 122.394646Z" fill-rule="nonzero" fill="#0000ff"></path><path d="M377.13803 151.96088L377.13803 151.96088C377.13803 150.48363 378.33557 149.28609 379.8128 149.28609L483.5026 149.28609C484.212 149.28609 484.89233 149.5679 485.39398 150.06952C485.8956 150.57114 486.1774 151.25148 486.1774 151.96088L486.1774 191.43019C486.1774 192.90744 484.97986 194.10498 483.5026 194.10498L379.8128 194.10498C378.33557 194.10498 377.13803 192.90744 377.13803 191.43019Z" fill-rule="nonzero" stroke="#073763" stroke-width="2.0" stroke-linejoin="round" stroke-linecap="butt"></path><path d="M384.09937 181.1034L384.09937 158.19714L401.08374 158.19714L401.08374 162.07214L388.72437 162.07214L388.72437 167.15027L400.22437 167.15027L400.22437 171.00964L388.72437 171.00964L388.72437 177.24402L401.52124 177.24402L401.52124 181.1034L384.09937 181.1034ZM405.08374 164.50964L409.1306 164.50964L409.1306 166.77527Q411.3025 164.13464 414.3025 164.13464Q415.89624 164.13464 417.0681 164.7909Q418.24 165.44714 418.99 166.77527Q420.08374 165.44714 421.34937 164.7909Q422.615 164.13464 424.0525 164.13464Q425.8806 164.13464 427.14624 164.87683Q428.41187 165.61902 429.03687 167.05652Q429.49 168.11902 429.49 170.49402L429.49 181.1034L425.09937 181.1034L425.09937 171.61902Q425.09937 169.15027 424.64624 168.43152Q424.03687 167.49402 422.77124 167.49402Q421.84937 167.49402 421.03687 168.05652Q420.22437 168.61902 419.865 169.70496Q419.5056 170.7909 419.5056 173.13464L419.5056 181.1034L415.115 181.1034L415.115 172.00964Q415.115 169.58777 414.8806 168.88464Q414.64624 168.18152 414.15405 167.83777Q413.66187 167.49402 412.8181 167.49402Q411.8025 167.49402 410.99 168.0409Q410.1775 168.58777 409.82593 169.61902Q409.47437 170.65027 409.47437 173.0409L409.47437 181.1034L405.08374 181.1034L405.08374 164.50964ZM433.74 164.50964L437.83374 164.50964L437.83374 166.94714Q438.6306 165.69714 439.99 164.9159Q441.34937 164.13464 443.0056 164.13464Q445.89624 164.13464 447.91187 166.40027Q449.9275 168.6659 449.9275 172.71277Q449.9275 176.86902 447.89624 179.1737Q445.865 181.4784 442.97437 181.4784Q441.59937 181.4784 440.48218 180.93152Q439.365 180.38464 438.1306 179.05652L438.1306 187.4159L433.74 187.4159L433.74 164.50964ZM438.08374 172.52527Q438.08374 175.32214 439.1931 176.65808Q440.3025 177.99402 441.89624 177.99402Q443.4275 177.99402 444.4431 176.76746Q445.45874 175.5409 445.45874 172.74402Q445.45874 170.13464 444.41187 168.86902Q443.365 167.6034 441.8181 167.6034Q440.20874 167.6034 439.14624 168.84558Q438.08374 170.08777 438.08374 172.52527ZM461.02124 164.50964L461.02124 168.00964L458.02124 168.00964L458.02124 174.69714Q458.02124 176.7284 458.10718 177.06433Q458.1931 177.40027 458.4978 177.61902Q458.8025 177.83777 459.24 177.83777Q459.84937 177.83777 461.0056 177.4159L461.3806 180.82214Q459.84937 181.4784 457.91187 181.4784Q456.72437 181.4784 455.77124 181.07996Q454.8181 180.68152 454.3728 180.0487Q453.9275 179.4159 453.7556 178.33777Q453.615 177.57214 453.615 175.24402L453.615 168.00964L451.59937 168.00964L451.59937 164.50964L453.615 164.50964L453.615 161.21277L458.02124 158.65027L458.02124 164.50964L461.02124 164.50964ZM461.99 164.50964L466.66187 164.50964L470.6306 176.2909L474.5056 164.50964L479.0525 164.50964L473.1931 180.4784L472.14624 183.36902Q471.5681 184.82214 471.04468 185.58777Q470.52124 186.3534 469.84155 186.82996Q469.16187 187.30652 468.16968 187.57214Q467.1775 187.83777 465.9275 187.83777Q464.66187 187.83777 463.4431 187.57214L463.0525 184.13464Q464.08374 184.33777 464.91187 184.33777Q466.4431 184.33777 467.1775 183.43933Q467.91187 182.5409 468.3025 181.15027L461.99 164.50964Z" fill-rule="nonzero" fill="#0000ff"></path><path d="M497.13803 151.96088L497.13803 151.96088C497.13803 150.48363 498.33557 149.28609 499.8128 149.28609L603.5026 149.28609C604.212 149.28609 604.89233 149.5679 605.394 150.06952C605.89557 150.57114 606.17737 151.25148 606.17737 151.96088L606.17737 191.43019C606.17737 192.90744 604.97986 194.10498 603.5026 194.10498L499.8128 194.10498C498.33557 194.10498 497.13803 192.90744 497.13803 191.43019Z" fill-rule="nonzero" stroke="#073763" stroke-width="2.0" stroke-linejoin="round" stroke-linecap="butt"></path><path d="M504.09937 181.1034L504.09937 158.19714L521.08374 158.19714L521.08374 162.07214L508.72437 162.07214L508.72437 167.15027L520.22437 167.15027L520.22437 171.00964L508.72437 171.00964L508.72437 177.24402L521.52124 177.24402L521.52124 181.1034L504.09937 181.1034ZM525.08374 164.50964L529.1306 164.50964L529.1306 166.77527Q531.3025 164.13464 534.3025 164.13464Q535.89624 164.13464 537.0681 164.7909Q538.24 165.44714 538.99 166.77527Q540.08374 165.44714 541.34937 164.7909Q542.615 164.13464 544.0525 164.13464Q545.8806 164.13464 547.14624 164.87683Q548.41187 165.61902 549.03687 167.05652Q549.49 168.11902 549.49 170.49402L549.49 181.1034L545.09937 181.1034L545.09937 171.61902Q545.09937 169.15027 544.64624 168.43152Q544.03687 167.49402 542.77124 167.49402Q541.84937 167.49402 541.03687 168.05652Q540.22437 168.61902 539.865 169.70496Q539.5056 170.7909 539.5056 173.13464L539.5056 181.1034L535.115 181.1034L535.115 172.00964Q535.115 169.58777 534.8806 168.88464Q534.64624 168.18152 534.15405 167.83777Q533.66187 167.49402 532.8181 167.49402Q531.8025 167.49402 530.99 168.0409Q530.1775 168.58777 529.8259 169.61902Q529.47437 170.65027 529.47437 173.0409L529.47437 181.1034L525.08374 181.1034L525.08374 164.50964ZM553.74 164.50964L557.83374 164.50964L557.83374 166.94714Q558.6306 165.69714 559.99 164.9159Q561.34937 164.13464 563.0056 164.13464Q565.89624 164.13464 567.91187 166.40027Q569.9275 168.6659 569.9275 172.71277Q569.9275 176.86902 567.89624 179.1737Q565.865 181.4784 562.97437 181.4784Q561.59937 181.4784 560.4822 180.93152Q559.365 180.38464 558.1306 179.05652L558.1306 187.4159L553.74 187.4159L553.74 164.50964ZM558.08374 172.52527Q558.08374 175.32214 559.1931 176.65808Q560.3025 177.99402 561.89624 177.99402Q563.4275 177.99402 564.4431 176.76746Q565.45874 175.5409 565.45874 172.74402Q565.45874 170.13464 564.41187 168.86902Q563.365 167.6034 561.8181 167.6034Q560.20874 167.6034 559.14624 168.84558Q558.08374 170.08777 558.08374 172.52527ZM581.02124 164.50964L581.02124 168.00964L578.02124 168.00964L578.02124 174.69714Q578.02124 176.7284 578.1072 177.06433Q578.1931 177.40027 578.4978 177.61902Q578.8025 177.83777 579.24 177.83777Q579.84937 177.83777 581.0056 177.4159L581.3806 180.82214Q579.84937 181.4784 577.91187 181.4784Q576.72437 181.4784 575.77124 181.07996Q574.8181 180.68152 574.3728 180.0487Q573.9275 179.4159 573.7556 178.33777Q573.615 177.57214 573.615 175.24402L573.615 168.00964L571.59937 168.00964L571.59937 164.50964L573.615 164.50964L573.615 161.21277L578.02124 158.65027L578.02124 164.50964L581.02124 164.50964ZM581.99 164.50964L586.66187 164.50964L590.6306 176.2909L594.5056 164.50964L599.0525 164.50964L593.1931 180.4784L592.14624 183.36902Q591.5681 184.82214 591.0447 185.58777Q590.52124 186.3534 589.84155 186.82996Q589.16187 187.30652 588.1697 187.57214Q587.1775 187.83777 585.9275 187.83777Q584.66187 187.83777 583.4431 187.57214L583.0525 184.13464Q584.08374 184.33777 584.91187 184.33777Q586.4431 184.33777 587.1775 183.43933Q587.91187 182.5409 588.3025 181.15027L581.99 164.50964Z" fill-rule="nonzero" fill="#0000ff"></path></svg>

