<?xml version="1.0" standalone="yes"?>

<svg version="1.1" viewBox="0.0 0.0 251.0 100.0" fill="none" stroke="none" stroke-linecap="square" stroke-miterlimit="10" xmlns="http://www.w3.org/2000/svg" xmlns:xlink="http://www.w3.org/1999/xlink"><path d="M49.553806 16.306314L49.553806 16.306314C49.553806 14.453269 51.055996 12.951077 52.909042 12.951077L102.41904 12.951077C103.30891 12.951077 104.16232 13.304575 104.79155 13.933804C105.420784 14.563033 105.77428 15.4164505 105.77428 16.306314L105.77428 69.280876C105.77428 71.13393 104.27209 72.636116 102.41904 72.636116L52.909042 72.636116C51.055996 72.636116 49.553806 71.13393 49.553806 69.280876Z" fill-rule="nonzero" stroke="#073763" stroke-width="2.0" stroke-linejoin="round" stroke-linecap="butt"></path><path d="M21.445717 54.375L24.023842 53.96875Q24.367592 54.78125 24.875404 55.117188Q25.383217 55.453125 26.258217 55.453125Q27.180092 55.453125 27.726967 55.046875Q28.101967 54.765625 28.101967 54.375Q28.101967 54.09375 27.914467 53.890625Q27.711342 53.6875 26.805092 53.390625Q24.398842 52.59375 23.820717 52.125Q22.914467 51.40625 22.914467 50.234375Q22.914467 49.0625 23.789467 48.21875Q25.008217 47.046875 27.398842 47.046875Q29.305092 47.046875 30.273842 47.742188Q31.242592 48.4375 31.508217 49.625L29.055092 50.046875Q28.851967 49.515625 28.414467 49.234375Q27.820717 48.875 26.992592 48.875Q26.148842 48.875 25.781654 49.15625Q25.414467 49.4375 25.414467 49.796875Q25.414467 50.171875 25.789467 50.40625Q26.023842 50.5625 27.289467 50.921875Q29.226967 51.5 29.898842 52.046875Q30.820717 52.8125 30.820717 53.890625Q30.820717 55.296875 29.64103 56.328125Q28.461342 57.359375 26.320717 57.359375Q24.180092 57.359375 23.01603 56.570312Q21.851967 55.78125 21.445717 54.375Z" fill-rule="nonzero" fill="#000000"></path><path d="M219.3593 69.58973L221.93742 69.18348Q222.28117 69.99598 222.78899 70.33192Q223.2968 70.667854 224.1718 70.667854Q225.09367 70.667854 225.64055 70.261604Q226.01555 69.980354 226.01555 69.58973Q226.01555 69.30848 225.82805 69.105354Q225.62492 68.90223 224.71867 68.605354Q222.31242 67.80848 221.7343 67.33973Q220.82805 66.62098 220.82805 65.449104Q220.82805 64.27723 221.70305 63.43348Q222.9218 62.261604 225.31242 62.261604Q227.21867 62.261604 228.18742 62.956917Q229.15617 63.65223 229.4218 64.83973L226.96867 65.261604Q226.76555 64.730354 226.32805 64.449104Q225.7343 64.08973 224.90617 64.08973Q224.06242 64.08973 223.69524 64.37098Q223.32805 64.65223 223.32805 65.011604Q223.32805 65.386604 223.70305 65.62098Q223.93742 65.77723 225.20305 66.136604Q227.14055 66.71473 227.81242 67.261604Q228.7343 68.02723 228.7343 69.105354Q228.7343 70.511604 227.55461 71.542854Q226.37492 72.574104 224.2343 72.574104Q222.09367 72.574104 220.92961 71.78504Q219.76555 70.99598 219.3593 69.58973ZM232.18742 63.574104L232.2343 61.042854L232.7343 58.74598L235.56242 58.74598L235.07805 61.042854L234.1093 63.574104L232.18742 63.574104ZM236.62492 63.574104L236.6718 61.042854L237.1718 58.74598L239.99992 58.74598L239.51555 61.042854L238.5468 63.574104L236.62492 63.574104Z" fill-rule="nonzero" fill="#000000"></path><path d="M209.9108 31.531525L236.91914 31.531525L236.91914 9.642927L232.46294 9.642927L236.91914 3.2165632L241.37535 9.642927L236.91914 9.642927L236.91914 31.531525L209.9108 31.531525Z" fill-rule="nonzero" fill="#cfe2f3" stroke="#073763" stroke-width="2.0" stroke-linejoin="round" stroke-linecap="butt"></path><path d="M2.7821522 41.868767L44.079056 41.868767L44.079056 38.923885L48.986877 41.868767L44.079056 44.81365L44.079056 41.868767L2.7821522 41.868767Z" fill-rule="nonzero" fill="#cfe2f3" stroke="#073763" stroke-width="2.0" stroke-linejoin="round" stroke-linecap="butt"></path><path d="M153.5538 16.306314L153.5538 16.306314C153.5538 14.453269 155.056 12.951077 156.90904 12.951077L206.41904 12.951077C207.3089 12.951077 208.16232 13.304575 208.79155 13.933804C209.42078 14.563033 209.77428 15.4164505 209.77428 16.306314L209.77428 69.280876C209.77428 71.13393 208.27208 72.636116 206.41904 72.636116L156.90904 72.636116C155.056 72.636116 153.5538 71.13393 153.5538 69.280876Z" fill-rule="nonzero" stroke="#073763" stroke-width="2.0" stroke-linejoin="round" stroke-linecap="butt"></path><path d="M107.15223 31.9449L146.6539 31.9449L146.6539 28.625025L152.1916 31.947859L146.6539 35.270695L146.6539 31.950815L107.15223 31.950815Z" fill-rule="nonzero" fill="#cfe2f3" stroke="#073763" stroke-width="2.0" stroke-linejoin="round" stroke-linecap="butt"></path><path d="M107.15223 53.89993L146.6539 53.89993L146.6539 50.58005L152.1916 53.902885L146.6539 57.225723L146.6539 53.905846L107.15223 53.905846Z" fill-rule="nonzero" fill="#cfe2f3" stroke="#073763" stroke-width="2.0" stroke-linejoin="round" stroke-linecap="butt"></path><path d="M211.15224 53.89993L240.44917 53.89993L240.44917 50.58005L245.98688 53.902885L240.44917 57.225723L240.44917 53.905846L211.15224 53.905846Z" fill-rule="nonzero" fill="#cfe2f3" stroke="#073763" stroke-width="2.0" stroke-linejoin="round" stroke-linecap="butt"></path><path d="M123.89999 69.590225L126.47811 69.183975Q126.82186 69.996475 127.32967 70.33241Q127.83749 70.66835 128.7125 70.66835Q129.63437 70.66835 130.18124 70.2621Q130.55624 69.98085 130.55624 69.590225Q130.55624 69.308975 130.36874 69.10585Q130.16562 68.902725 129.25937 68.60585Q126.85311 67.808975 126.27499 67.340225Q125.36874 66.621475 125.36874 65.4496Q125.36874 64.277725 126.24374 63.43397Q127.46249 62.262096 129.85312 62.262096Q131.75937 62.262096 132.72812 62.95741Q133.69687 63.65272 133.9625 64.840225L131.50937 65.2621Q131.30624 64.73085 130.86874 64.4496Q130.275 64.090225 129.44687 64.090225Q128.60312 64.090225 128.23593 64.371475Q127.86874 64.652725 127.86874 65.0121Q127.86874 65.3871 128.24374 65.621475Q128.47812 65.777725 129.74374 66.1371Q131.68124 66.715225 132.35312 67.2621Q133.275 68.027725 133.275 69.10585Q133.275 70.5121 132.0953 71.54335Q130.91562 72.5746 128.775 72.5746Q126.63436 72.5746 125.4703 71.78554Q124.30624 70.996475 123.89999 69.590225ZM136.72812 63.574596L136.775 61.043346L137.275 58.74647L140.10312 58.74647L139.61874 61.043346L138.65 63.574596L136.72812 63.574596Z" fill-rule="nonzero" fill="#000000"></path><path d="M129.77797 24.100418L127.324844 26.866043L124.05922 26.866043L128.62172 21.819168L126.12172 17.006668L128.94984 17.006668L130.38734 19.819168L132.87172 17.006668L136.12172 17.006668L131.5436 22.131668L134.02797 26.866043L131.19984 26.866043L129.77797 24.100418Z" fill-rule="nonzero" fill="#000000"></path><path d="M222.07484 17.006668L224.71547 17.006668L225.38734 21.928543Q225.63734 23.819168 225.6686 24.569168Q226.18422 23.069168 227.09047 21.381668L229.44984 17.006668L232.27797 17.006668L226.18422 27.834793Q225.43422 29.178543 225.00453 29.717606Q224.57484 30.256668 223.96547 30.561356Q223.3561 30.866043 222.49672 30.866043Q221.65297 30.866043 220.6061 30.569168L220.84047 28.584793Q221.30922 28.725418 221.77797 28.725418Q222.99672 28.725418 223.77797 26.866043L222.07484 17.006668Z" fill-rule="nonzero" fill="#000000"></path><path d="M66.168785 46.37947L69.418785 45.863846Q69.856285 46.895096 70.50472 47.324783Q71.15316 47.75447 72.262535 47.75447Q73.40316 47.75447 74.106285 47.238846Q74.575035 46.87947 74.575035 46.37947Q74.575035 46.03572 74.34066 45.770096Q74.075035 45.520096 72.93441 45.145096Q69.887535 44.12947 69.168785 43.551346Q68.02816 42.62947 68.02816 41.16072Q68.02816 39.676346 69.137535 38.613846Q70.668785 37.12947 73.68441 37.12947Q76.09066 37.12947 77.325035 38.00447Q78.55941 38.87947 78.887535 40.37947L75.77816 40.926346Q75.52816 40.238846 74.981285 39.895096Q74.231285 39.44197 73.168785 39.44197Q72.12191 39.44197 71.66097 39.793533Q71.200035 40.145096 71.200035 40.59822Q71.200035 41.06697 71.668785 41.37947Q71.950035 41.56697 73.543785 42.03572Q76.012535 42.75447 76.84066 43.44197Q78.012535 44.41072 78.012535 45.78572Q78.012535 47.551346 76.52816 48.856033Q75.043785 50.16072 72.325035 50.16072Q69.637535 50.16072 68.168785 49.168533Q66.700035 48.176346 66.168785 46.37947ZM80.793785 39.91072L81.30941 37.41072L82.950035 37.41072L83.356285 35.426346L87.21566 33.09822L86.30941 37.41072L88.356285 37.41072L87.84066 39.91072L85.77816 39.91072L84.68441 45.12947Q84.40316 46.551346 84.40316 46.738846Q84.40316 47.12947 84.64535 47.34822Q84.887535 47.56697 85.52816 47.56697Q85.762535 47.56697 86.65316 47.488846L86.12191 49.988846Q85.24691 50.16072 84.34066 50.16072Q82.55941 50.16072 81.74691 49.47322Q80.93441 48.78572 80.93441 47.56697Q80.93441 46.988846 81.37191 44.91072L82.418785 39.91072L80.793785 39.91072Z" fill-rule="nonzero" fill="#0000ff"></path><path d="M185.95004 37.41072L185.43442 39.87947L183.0438 39.87947L180.96567 49.863846L177.6063 49.863846L179.68442 39.87947L177.80942 39.87947L178.32504 37.41072L180.20004 37.41072L180.46567 36.145096Q180.7938 34.56697 181.09067 34.020096Q181.49692 33.270096 182.28598 32.832596Q183.07504 32.395096 184.3563 32.395096Q185.90317 32.395096 187.6063 32.957596L186.95004 35.34822Q185.74692 34.94197 184.99692 34.94197Q184.4188 34.94197 184.13754 35.301346Q183.95004 35.53572 183.74692 36.53572L183.55942 37.41072L185.95004 37.41072Z" fill-rule="nonzero" fill="#0000ff"></path></svg>

