<?xml version="1.0" standalone="yes"?>

<svg version="1.1" viewBox="0.0 0.0 243.0 117.0" fill="none" stroke="none" stroke-linecap="square" stroke-miterlimit="10" xmlns="http://www.w3.org/2000/svg" xmlns:xlink="http://www.w3.org/1999/xlink"><path d="M65.1706 22.881344L65.1706 22.881344C65.1706 19.716112 67.736534 17.150185 70.901764 17.150185L171.59692 17.150185C173.11693 17.150185 174.57466 17.754002 175.64946 18.828802C176.72427 19.903603 177.32808 21.361345 177.32808 22.881344L177.32808 107.45052C177.32808 110.61575 174.76216 113.18168 171.59692 113.18168L70.901764 113.18168C67.736534 113.18168 65.1706 110.61575 65.1706 107.45052Z" fill-rule="nonzero" stroke="#073763" stroke-width="2.0" stroke-linejoin="round" stroke-linecap="butt"></path><path d="M29.72524 101.203125L32.97524 100.6875Q33.41274 101.71875 34.061176 102.14844Q34.709614 102.578125 35.81899 102.578125Q36.959614 102.578125 37.66274 102.0625Q38.13149 101.703125 38.13149 101.203125Q38.13149 100.859375 37.897114 100.59375Q37.63149 100.34375 36.490864 99.96875Q33.44399 98.953125 32.72524 98.375Q31.584616 97.453125 31.584616 95.984375Q31.584616 94.5 32.69399 93.4375Q34.22524 91.953125 37.240864 91.953125Q39.647114 91.953125 40.88149 92.828125Q42.115864 93.703125 42.44399 95.203125L39.334614 95.75Q39.084614 95.0625 38.53774 94.71875Q37.78774 94.265625 36.72524 94.265625Q35.678364 94.265625 35.217426 94.61719Q34.75649 94.96875 34.75649 95.421875Q34.75649 95.890625 35.22524 96.203125Q35.50649 96.390625 37.10024 96.859375Q39.56899 97.578125 40.397114 98.265625Q41.56899 99.234375 41.56899 100.609375Q41.56899 102.375 40.084614 103.67969Q38.60024 104.984375 35.88149 104.984375Q33.19399 104.984375 31.72524 103.99219Q30.25649 103.0 29.72524 101.203125Z" fill-rule="nonzero" fill="#000000"></path><path d="M198.23224 101.203125L201.48224 100.6875Q201.91974 101.71875 202.56818 102.14844Q203.21661 102.578125 204.32599 102.578125Q205.46661 102.578125 206.16974 102.0625Q206.63849 101.703125 206.63849 101.203125Q206.63849 100.859375 206.40411 100.59375Q206.13849 100.34375 204.99786 99.96875Q201.95099 98.953125 201.23224 98.375Q200.09161 97.453125 200.09161 95.984375Q200.09161 94.5 201.20099 93.4375Q202.73224 91.953125 205.74786 91.953125Q208.15411 91.953125 209.38849 92.828125Q210.62286 93.703125 210.95099 95.203125L207.84161 95.75Q207.59161 95.0625 207.04474 94.71875Q206.29474 94.265625 205.23224 94.265625Q204.18536 94.265625 203.72443 94.61719Q203.26349 94.96875 203.26349 95.421875Q203.26349 95.890625 203.73224 96.203125Q204.01349 96.390625 205.60724 96.859375Q208.07599 97.578125 208.90411 98.265625Q210.07599 99.234375 210.07599 100.609375Q210.07599 102.375 208.59161 103.67969Q207.10724 104.984375 204.38849 104.984375Q201.70099 104.984375 200.23224 103.99219Q198.76349 103.0 198.23224 101.203125Z" fill-rule="nonzero" fill="#000000"></path><path d="M64.262955 46.54331L225.39958 46.54331L225.39958 12.388267L220.48898 12.388267L225.39958 5.5669293L230.3102 12.388267L225.39958 12.388267L225.39958 46.54331L64.262955 46.54331Z" fill-rule="nonzero" fill="#cfe2f3" stroke="#073763" stroke-width="2.0" stroke-linejoin="round" stroke-linecap="butt"></path><path d="M3.1536784 85.89767L56.450302 85.89767L56.450302 82.091866L64.539505 85.902885L56.450302 89.71391L56.450302 85.90811L3.1536784 85.90811Z" fill-rule="nonzero" fill="#cfe2f3" stroke="#073763" stroke-width="2.0" stroke-linejoin="round" stroke-linecap="butt"></path><path d="M63.516758 85.902885L230.64015 85.902885L230.64015 82.091866L238.72935 85.902885L230.64015 89.71391L230.64015 85.902885L63.516758 85.902885Z" fill-rule="nonzero" fill="#cfe2f3" stroke="#073763" stroke-width="2.0" stroke-linejoin="round" stroke-linecap="butt"></path><path d="M201.72926 33.066765L198.63551 36.566765L194.51051 36.566765L200.27614 30.191765L197.10426 24.11364L200.68239 24.11364L202.49489 27.67614L205.65114 24.11364L209.74489 24.11364L203.96364 30.58239L207.10426 36.566765L203.52614 36.566765L201.72926 33.066765Z" fill-rule="nonzero" fill="#000000"></path><path d="M22.459818 4.5889964L22.40385 46.004745L57.436745 46.056877L57.44343 41.109474L64.48337 46.192875L57.42972 51.255302L57.436405 46.3079L22.15249 46.255394L22.208797 4.588623Z" fill-rule="nonzero" fill="#cfe2f3" stroke="#073763" stroke-width="2.0" stroke-linejoin="round" stroke-linecap="butt"></path><path d="M35.88149 33.066765L32.78774 36.566765L28.66274 36.566765L34.428364 30.191765L31.25649 24.11364L34.834614 24.11364L36.647114 27.67614L39.803364 24.11364L43.897114 24.11364L38.115864 30.58239L41.25649 36.566765L37.678364 36.566765L35.88149 33.066765Z" fill-rule="nonzero" fill="#000000"></path></svg>

