<?xml version="1.0" standalone="yes"?>

<svg version="1.1" viewBox="0.0 0.0 243.0 117.0" fill="none" stroke="none" stroke-linecap="square" stroke-miterlimit="10" xmlns="http://www.w3.org/2000/svg" xmlns:xlink="http://www.w3.org/1999/xlink"><path d="M65.1706 17.638666L65.1706 17.638666C65.1706 14.289687 67.88549 11.574803 71.23447 11.574803L171.26422 11.574803C172.87245 11.574803 174.41483 12.213673 175.55202 13.350868C176.68921 14.488063 177.32808 16.03043 177.32808 17.638666L177.32808 107.11724C177.32808 110.46622 174.6132 113.1811 171.26422 113.1811L71.23447 113.1811C67.88549 113.1811 65.1706 110.46622 65.1706 107.11724Z" fill-rule="nonzero" stroke="#073763" stroke-width="2.0" stroke-linejoin="round" stroke-linecap="butt"></path><path d="M29.72524 101.203125L32.97524 100.6875Q33.41274 101.71875 34.061176 102.14844Q34.709614 102.578125 35.81899 102.578125Q36.959614 102.578125 37.66274 102.0625Q38.13149 101.703125 38.13149 101.203125Q38.13149 100.859375 37.897114 100.59375Q37.63149 100.34375 36.490864 99.96875Q33.44399 98.953125 32.72524 98.375Q31.584616 97.453125 31.584616 95.984375Q31.584616 94.5 32.69399 93.4375Q34.22524 91.953125 37.240864 91.953125Q39.647114 91.953125 40.88149 92.828125Q42.115864 93.703125 42.44399 95.203125L39.334614 95.75Q39.084614 95.0625 38.53774 94.71875Q37.78774 94.265625 36.72524 94.265625Q35.678364 94.265625 35.217426 94.61719Q34.75649 94.96875 34.75649 95.421875Q34.75649 95.890625 35.22524 96.203125Q35.50649 96.390625 37.10024 96.859375Q39.56899 97.578125 40.397114 98.265625Q41.56899 99.234375 41.56899 100.609375Q41.56899 102.375 40.084614 103.67969Q38.60024 104.984375 35.88149 104.984375Q33.19399 104.984375 31.72524 103.99219Q30.25649 103.0 29.72524 101.203125Z" fill-rule="nonzero" fill="#000000"></path><path d="M195.37286 101.203125L198.62286 100.6875Q199.06036 101.71875 199.7088 102.14844Q200.35724 102.578125 201.46661 102.578125Q202.60724 102.578125 203.31036 102.0625Q203.77911 101.703125 203.77911 101.203125Q203.77911 100.859375 203.54474 100.59375Q203.27911 100.34375 202.13849 99.96875Q199.09161 98.953125 198.37286 98.375Q197.23224 97.453125 197.23224 95.984375Q197.23224 94.5 198.34161 93.4375Q199.87286 91.953125 202.88849 91.953125Q205.29474 91.953125 206.52911 92.828125Q207.76349 93.703125 208.09161 95.203125L204.98224 95.75Q204.73224 95.0625 204.18536 94.71875Q203.43536 94.265625 202.37286 94.265625Q201.32599 94.265625 200.86505 94.61719Q200.40411 94.96875 200.40411 95.421875Q200.40411 95.890625 200.87286 96.203125Q201.15411 96.390625 202.74786 96.859375Q205.21661 97.578125 206.04474 98.265625Q207.21661 99.234375 207.21661 100.609375Q207.21661 102.375 205.73224 103.67969Q204.24786 104.984375 201.52911 104.984375Q198.84161 104.984375 197.37286 103.99219Q195.90411 103.0 195.37286 101.203125ZM211.82599 93.609375L211.87286 90.40625L212.49786 87.5L216.09161 87.5L215.46661 90.40625L214.24786 93.609375L211.82599 93.609375Z" fill-rule="nonzero" fill="#000000"></path><path d="M178.45874 47.897636L225.22835 47.897636L225.22835 12.613722L220.15543 12.613722L225.22835 5.5669293L230.30125 12.613722L225.22835 12.613722L225.22835 47.897636L178.45874 47.897636Z" fill-rule="nonzero" fill="#cfe2f3" stroke="#073763" stroke-width="2.0" stroke-linejoin="round" stroke-linecap="butt"></path><path d="M3.160105 86.372734L56.45673 86.372734L56.45673 82.56693L64.54593 86.37795L56.45673 90.18898L56.45673 86.38317L3.160105 86.38317Z" fill-rule="nonzero" fill="#cfe2f3" stroke="#073763" stroke-width="2.0" stroke-linejoin="round" stroke-linecap="butt"></path><path d="M177.32808 85.902885L230.62471 85.902885L230.62471 82.091866L238.71391 85.902885L230.62471 89.71391L230.62471 85.902885L177.32808 85.902885Z" fill-rule="nonzero" fill="#cfe2f3" stroke="#073763" stroke-width="2.0" stroke-linejoin="round" stroke-linecap="butt"></path><path d="M197.99489 24.11364L201.18239 24.11364L200.85426 25.73864Q202.05739 24.70739 203.08864 24.26989Q204.11989 23.83239 205.27614 23.83239Q206.80739 23.83239 207.6902 24.70739Q208.57301 25.58239 208.57301 27.035515Q208.57301 27.691765 208.19801 29.51989L206.72926 36.566765L203.36989 36.566765L204.83864 29.504265Q205.16676 27.910515 205.16676 27.61364Q205.16676 26.973015 204.78395 26.598015Q204.40114 26.223015 203.72926 26.223015Q202.99489 26.223015 202.08864 26.848015Q201.18239 27.473015 200.66676 28.48864Q200.29176 29.223015 199.82301 31.45739L198.76051 36.566765L195.40114 36.566765L197.99489 24.11364Z" fill-rule="nonzero" fill="#000000"></path><path d="M22.459818 4.5889964L22.40385 46.004745L57.436745 46.056877L57.44343 41.109474L64.48337 46.192875L57.42972 51.255302L57.436405 46.3079L22.15249 46.255394L22.208797 4.588623Z" fill-rule="nonzero" fill="#cfe2f3" stroke="#073763" stroke-width="2.0" stroke-linejoin="round" stroke-linecap="butt"></path><path d="M38.60024 31.879265L41.865864 32.410515Q41.053364 34.58239 39.47524 35.723015Q37.897114 36.86364 35.803364 36.86364Q33.428364 36.86364 32.029926 35.441765Q30.63149 34.01989 30.63149 31.535515Q30.63149 29.504265 31.47524 27.699577Q32.31899 25.89489 34.022114 24.86364Q35.72524 23.83239 37.75649 23.83239Q39.959614 23.83239 41.272114 24.980827Q42.584614 26.129265 42.740864 28.004265L39.53774 28.33239Q39.428364 27.30114 38.904926 26.808952Q38.38149 26.316765 37.53774 26.316765Q36.56899 26.316765 35.72524 27.043327Q34.88149 27.76989 34.428364 29.215202Q33.97524 30.660515 33.97524 31.92614Q33.97524 33.01989 34.5143 33.621452Q35.053364 34.223015 35.865864 34.223015Q36.678364 34.223015 37.428364 33.637077Q38.178364 33.05114 38.60024 31.879265Z" fill-rule="nonzero" fill="#000000"></path></svg>

