<?xml version="1.0" standalone="yes"?>

<svg version="1.1" viewBox="0.0 0.0 243.0 117.0" fill="none" stroke="none" stroke-linecap="square" stroke-miterlimit="10" xmlns="http://www.w3.org/2000/svg" xmlns:xlink="http://www.w3.org/1999/xlink"><path d="M65.1706 17.638666L65.1706 17.638666C65.1706 14.289687 67.88549 11.574803 71.23447 11.574803L171.26422 11.574803C172.87245 11.574803 174.41483 12.213673 175.55202 13.350868C176.68921 14.488063 177.32808 16.03043 177.32808 17.638666L177.32808 107.11724C177.32808 110.46622 174.6132 113.1811 171.26422 113.1811L71.23447 113.1811C67.88549 113.1811 65.1706 110.46622 65.1706 107.11724Z" fill-rule="nonzero" stroke="#073763" stroke-width="2.0" stroke-linejoin="round" stroke-linecap="butt"></path><path d="M27.57301 49.08239L30.82301 48.566765Q31.26051 49.598015 31.908947 50.027702Q32.557384 50.45739 33.66676 50.45739Q34.807384 50.45739 35.51051 49.941765Q35.97926 49.58239 35.97926 49.08239Q35.97926 48.73864 35.744884 48.473015Q35.47926 48.223015 34.338634 47.848015Q31.29176 46.83239 30.57301 46.254265Q29.432384 45.33239 29.432384 43.86364Q29.432384 42.379265 30.54176 41.316765Q32.07301 39.83239 35.088634 39.83239Q37.494884 39.83239 38.72926 40.70739Q39.963634 41.58239 40.29176 43.08239L37.182384 43.629265Q36.932384 42.941765 36.38551 42.598015Q35.63551 42.14489 34.57301 42.14489Q33.526134 42.14489 33.065197 42.496452Q32.60426 42.848015 32.60426 43.30114Q32.60426 43.76989 33.07301 44.08239Q33.35426 44.26989 34.94801 44.73864Q37.41676 45.45739 38.244884 46.14489Q39.41676 47.11364 39.41676 48.48864Q39.41676 50.254265 37.932384 51.558952Q36.44801 52.86364 33.72926 52.86364Q31.04176 52.86364 29.57301 51.871452Q28.10426 50.879265 27.57301 49.08239Z" fill-rule="nonzero" fill="#000000"></path><path d="M200.71364 105.08239L203.96364 104.566765Q204.40114 105.598015 205.04958 106.0277Q205.69801 106.45739 206.80739 106.45739Q207.94801 106.45739 208.65114 105.941765Q209.11989 105.58239 209.11989 105.08239Q209.11989 104.73864 208.88551 104.473015Q208.61989 104.223015 207.47926 103.848015Q204.43239 102.83239 203.71364 102.254265Q202.57301 101.33239 202.57301 99.86364Q202.57301 98.379265 203.68239 97.316765Q205.21364 95.83239 208.22926 95.83239Q210.63551 95.83239 211.86989 96.70739Q213.10426 97.58239 213.43239 99.08239L210.32301 99.629265Q210.07301 98.941765 209.52614 98.598015Q208.77614 98.14489 207.71364 98.14489Q206.66676 98.14489 206.20583 98.49645Q205.74489 98.848015 205.74489 99.30114Q205.74489 99.76989 206.21364 100.08239Q206.49489 100.26989 208.08864 100.73864Q210.55739 101.45739 211.38551 102.14489Q212.55739 103.11364 212.55739 104.48864Q212.55739 106.254265 211.07301 107.55895Q209.58864 108.86364 206.86989 108.86364Q204.18239 108.86364 202.71364 107.87145Q201.24489 106.879265 200.71364 105.08239ZM217.16676 97.48864L217.21364 94.285515L217.83864 91.379265L221.43239 91.379265L220.80739 94.285515L219.58864 97.48864L217.16676 97.48864Z" fill-rule="nonzero" fill="#000000"></path><path d="M178.45874 47.897636L225.22835 47.897636L225.22835 12.613722L220.15543 12.613722L225.22835 5.5669293L230.30125 12.613722L225.22835 12.613722L225.22835 47.897636L178.45874 47.897636Z" fill-rule="nonzero" fill="#cfe2f3" stroke="#073763" stroke-width="2.0" stroke-linejoin="round" stroke-linecap="butt"></path><path d="M3.160105 62.37273L56.45673 62.37273L56.45673 58.56693L64.54593 62.377953L56.45673 66.18898L56.45673 62.383175L3.160105 62.383175Z" fill-rule="nonzero" fill="#cfe2f3" stroke="#073763" stroke-width="2.0" stroke-linejoin="round" stroke-linecap="butt"></path><path d="M177.32808 85.902885L230.62471 85.902885L230.62471 82.091866L238.71391 85.902885L230.62471 89.71391L230.62471 85.902885L177.32808 85.902885Z" fill-rule="nonzero" fill="#cfe2f3" stroke="#073763" stroke-width="2.0" stroke-linejoin="round" stroke-linecap="butt"></path><path d="M202.22926 36.566765L199.33864 36.566765L196.83864 24.11364L200.13551 24.11364L201.02614 29.55114Q201.38551 31.754265 201.44801 32.473015Q201.54176 32.26989 202.26833 30.95739Q202.99489 29.64489 203.15114 29.36364L206.24489 24.11364L209.88551 24.11364L202.22926 36.566765Z" fill-rule="nonzero" fill="#000000"></path></svg>

